<svg id="svg" version="1.1" xmlns="http://www.w3.org/2000/svg" xmlns:xlink="http://www.w3.org/1999/xlink" width="400" height="310.6617647058824" viewBox="0, 0, 400,310.6617647058824"><g id="svgg"><path id="path0" d="M10.750 11.601 C 9.224 11.988,8.320 12.722,7.628 14.137 L 7.083 15.250 7.083 112.250 L 7.083 209.250 7.442 210.017 C 8.790 212.901,11.215 213.476,15.917 212.025 C 18.172 211.329,18.717 211.168,19.875 210.853 C 20.173 210.772,21.054 210.513,21.833 210.279 C 24.063 209.608,32.363 207.155,32.917 207.004 C 33.192 206.929,34.054 206.676,34.833 206.443 C 35.612 206.209,39.175 205.157,42.750 204.106 C 46.325 203.054,51.313 201.581,53.833 200.832 C 56.354 200.083,58.567 199.433,58.750 199.386 C 63.390 198.213,66.860 195.341,68.892 190.992 C 70.312 187.953,70.181 196.384,70.129 111.500 L 70.083 35.917 69.620 34.588 C 68.266 30.705,65.415 27.353,62.102 25.746 C 61.084 25.252,60.049 24.919,55.583 23.645 C 55.217 23.540,54.692 23.389,54.417 23.309 C 54.142 23.228,52.979 22.899,51.833 22.577 C 50.688 22.254,49.112 21.803,48.333 21.573 C 47.554 21.344,46.654 21.084,46.333 20.996 C 46.012 20.908,45.262 20.692,44.667 20.515 C 44.071 20.339,43.171 20.079,42.667 19.937 C 42.162 19.796,41.075 19.488,40.250 19.254 C 39.425 19.020,38.487 18.755,38.167 18.665 C 37.846 18.576,37.058 18.347,36.417 18.157 C 34.982 17.732,33.770 17.381,33.000 17.168 C 32.679 17.080,31.479 16.741,30.333 16.417 C 29.188 16.092,27.950 15.744,27.583 15.644 C 27.217 15.543,26.729 15.402,26.500 15.329 C 26.039 15.184,24.572 14.753,23.667 14.498 C 20.557 13.623,18.693 13.091,17.500 12.740 C 16.721 12.511,15.783 12.242,15.417 12.144 C 15.050 12.046,14.575 11.897,14.361 11.813 C 13.905 11.635,11.235 11.478,10.750 11.601 M310.482 30.574 C 310.441 30.614,309.547 30.731,308.496 30.832 C 305.855 31.087,304.237 31.258,300.750 31.650 C 299.100 31.836,297.000 32.068,296.083 32.167 C 295.167 32.265,293.817 32.416,293.083 32.502 C 292.350 32.588,290.625 32.775,289.250 32.918 C 287.875 33.062,286.188 33.247,285.500 33.330 C 284.813 33.413,283.462 33.565,282.500 33.668 C 281.537 33.771,280.150 33.922,279.417 34.003 C 278.683 34.085,276.958 34.270,275.583 34.413 C 274.208 34.557,272.625 34.748,272.064 34.837 C 271.504 34.927,270.722 35.000,270.328 35.000 C 269.933 35.000,269.154 35.070,268.597 35.155 C 268.039 35.240,266.458 35.430,265.083 35.578 C 263.708 35.726,262.081 35.919,261.468 36.007 C 260.854 36.095,259.992 36.169,259.551 36.173 C 255.062 36.206,250.350 40.129,249.250 44.750 C 248.883 46.290,248.881 177.465,249.247 179.046 C 250.108 182.756,252.877 185.805,256.568 187.107 C 257.227 187.340,259.045 187.613,262.417 187.986 C 263.333 188.088,265.471 188.327,267.167 188.518 C 270.367 188.879,271.763 189.030,274.583 189.320 C 276.383 189.506,281.374 190.056,283.667 190.322 C 284.446 190.412,285.871 190.567,286.833 190.666 C 287.796 190.765,289.483 190.952,290.583 191.082 C 291.683 191.211,293.371 191.400,294.333 191.500 C 298.088 191.893,299.157 192.008,301.167 192.239 C 302.313 192.371,304.037 192.562,305.000 192.665 C 305.962 192.768,307.350 192.930,308.083 193.025 C 314.200 193.815,317.719 191.884,318.609 187.250 C 318.941 185.520,318.931 38.095,318.599 36.546 C 318.095 34.197,316.788 32.445,314.808 31.465 C 313.368 30.751,310.827 30.228,310.482 30.574 " stroke="none" fill="#4c7cbf" fill-rule="evenodd"></path><path id="path1" d="M86.250 30.610 C 83.210 31.265,81.182 33.171,80.422 36.089 C 79.967 37.835,80.041 186.558,80.498 188.036 C 81.813 192.295,84.787 193.749,90.817 193.083 C 92.064 192.945,95.483 192.572,98.417 192.254 C 101.350 191.935,104.462 191.596,105.333 191.499 C 106.204 191.402,107.229 191.290,107.611 191.250 C 108.652 191.140,114.215 190.528,115.833 190.345 C 116.612 190.257,117.962 190.104,118.833 190.006 C 119.704 189.907,122.142 189.642,124.250 189.416 C 126.358 189.190,128.758 188.927,129.583 188.831 C 130.408 188.736,133.146 188.433,135.667 188.159 C 140.811 187.599,141.084 187.560,142.250 187.234 C 145.804 186.241,149.158 182.579,149.917 178.864 C 150.272 177.132,150.287 46.676,149.933 45.083 C 148.930 40.567,144.926 36.713,140.750 36.244 C 140.383 36.203,139.408 36.095,138.583 36.003 C 137.758 35.912,136.146 35.730,135.000 35.598 C 133.854 35.466,132.092 35.272,131.083 35.167 C 130.075 35.062,128.313 34.869,127.167 34.739 C 124.744 34.464,122.656 34.236,120.375 33.996 C 119.481 33.901,118.112 33.752,117.333 33.662 C 114.994 33.395,111.522 33.014,109.750 32.830 C 108.833 32.735,107.521 32.586,106.833 32.498 C 106.146 32.411,104.458 32.225,103.083 32.086 C 101.708 31.946,100.286 31.791,99.923 31.742 C 99.560 31.692,98.547 31.578,97.673 31.488 C 96.799 31.398,95.446 31.255,94.667 31.169 C 93.888 31.083,92.200 30.898,90.917 30.757 C 88.680 30.511,86.961 30.457,86.250 30.610 " stroke="none" fill="#ef4f3f" fill-rule="evenodd"></path><path id="path2" d="M167.500 37.864 C 165.523 38.416,165.079 38.590,164.212 39.152 C 162.909 39.997,161.457 41.610,160.845 42.892 C 159.746 45.194,159.827 39.414,159.874 112.447 L 159.917 178.750 160.318 179.857 C 161.161 182.179,163.001 184.242,165.124 185.248 C 167.184 186.223,165.305 186.176,200.037 186.128 L 231.917 186.083 233.083 185.600 C 236.271 184.280,238.125 182.135,238.931 178.833 C 239.262 177.476,239.264 46.370,238.933 45.000 C 238.066 41.414,235.255 38.644,231.738 37.908 C 230.335 37.615,168.544 37.572,167.500 37.864 " stroke="none" fill="#fcba25" fill-rule="evenodd"></path><path id="path3" d="M385.417 11.166 C 384.683 11.333,383.746 11.578,383.333 11.711 C 382.921 11.843,382.246 12.046,381.833 12.162 C 381.421 12.277,380.883 12.445,380.639 12.534 C 380.395 12.623,379.945 12.757,379.639 12.832 C 379.333 12.907,377.921 13.320,376.500 13.749 C 375.079 14.178,373.654 14.590,373.333 14.664 C 373.012 14.737,372.294 14.954,371.736 15.144 C 371.178 15.334,370.316 15.599,369.819 15.733 C 368.940 15.970,366.872 16.574,364.000 17.432 C 363.221 17.665,362.096 18.001,361.500 18.179 C 360.904 18.357,360.117 18.585,359.750 18.685 C 359.383 18.786,358.783 18.963,358.417 19.079 C 358.050 19.195,357.450 19.374,357.083 19.477 C 356.717 19.580,355.892 19.820,355.250 20.010 C 354.044 20.367,352.905 20.698,351.750 21.027 C 351.383 21.132,350.558 21.383,349.917 21.586 C 349.275 21.789,348.450 22.037,348.083 22.138 C 347.717 22.238,346.779 22.511,346.000 22.745 C 345.221 22.979,344.283 23.254,343.917 23.357 C 342.887 23.647,342.145 23.865,341.417 24.092 C 341.050 24.206,340.412 24.392,340.000 24.505 C 334.504 26.016,330.359 30.304,329.078 35.802 C 328.629 37.731,328.718 186.659,329.169 188.432 C 330.458 193.492,334.701 197.821,339.667 199.141 C 340.354 199.323,344.967 200.631,349.917 202.046 C 354.867 203.461,359.067 204.659,359.250 204.709 C 359.433 204.758,364.196 206.128,369.833 207.752 C 375.471 209.376,380.346 210.775,380.667 210.862 C 381.646 211.125,382.177 211.274,384.071 211.814 C 388.016 212.939,390.563 212.094,391.583 209.322 C 391.915 208.421,391.917 208.004,391.917 111.500 L 391.917 14.583 391.453 13.667 C 390.215 11.222,388.423 10.480,385.417 11.166 " stroke="none" fill="#31b161" fill-rule="evenodd"></path><path id="path4" d="M385.333 10.453 C 385.104 10.495,384.845 10.597,384.758 10.681 C 384.671 10.765,384.431 10.833,384.225 10.833 C 384.018 10.833,383.677 10.902,383.466 10.985 C 383.256 11.068,382.633 11.263,382.083 11.418 C 380.286 11.925,379.921 12.039,379.627 12.187 C 379.468 12.268,379.211 12.333,379.056 12.333 C 378.766 12.333,377.903 12.581,377.167 12.876 C 376.740 13.047,376.032 13.249,375.000 13.494 C 374.679 13.570,373.779 13.835,373.000 14.082 C 372.221 14.329,371.340 14.599,371.042 14.682 C 370.744 14.765,370.256 14.902,369.958 14.986 C 369.660 15.070,368.854 15.297,368.167 15.490 C 367.479 15.683,366.767 15.909,366.583 15.991 C 366.400 16.074,366.063 16.177,365.833 16.220 C 365.193 16.339,362.952 17.012,362.627 17.182 C 362.468 17.265,362.190 17.333,362.010 17.333 C 361.830 17.333,361.510 17.400,361.300 17.481 C 361.089 17.562,360.242 17.832,359.417 18.081 C 358.592 18.329,357.744 18.600,357.534 18.683 C 357.323 18.766,356.971 18.833,356.752 18.833 C 356.533 18.833,356.307 18.908,356.250 19.000 C 356.193 19.092,355.983 19.167,355.782 19.168 C 355.581 19.168,355.202 19.281,354.939 19.418 C 354.677 19.555,354.287 19.667,354.074 19.667 C 353.861 19.667,353.640 19.742,353.583 19.833 C 353.527 19.925,353.259 20.000,352.988 20.000 C 352.717 20.000,352.365 20.068,352.206 20.150 C 352.047 20.233,351.467 20.429,350.917 20.587 C 350.367 20.746,349.786 20.940,349.627 21.021 C 349.468 21.101,349.154 21.167,348.929 21.167 C 348.704 21.167,348.473 21.242,348.417 21.333 C 348.360 21.425,348.149 21.502,347.948 21.504 C 347.748 21.505,347.058 21.693,346.417 21.919 C 345.775 22.146,345.086 22.332,344.885 22.333 C 344.684 22.333,344.473 22.408,344.417 22.500 C 344.360 22.592,344.098 22.667,343.833 22.667 C 343.569 22.667,343.307 22.742,343.250 22.833 C 343.193 22.925,342.994 23.000,342.807 23.000 C 342.620 23.000,342.231 23.106,341.942 23.235 C 341.653 23.364,341.229 23.509,341.000 23.557 C 340.771 23.604,340.321 23.719,340.000 23.812 C 339.679 23.905,339.152 24.049,338.828 24.131 C 337.996 24.344,335.194 25.743,334.505 26.290 C 333.573 27.030,331.667 28.875,331.667 29.036 C 331.667 29.118,331.442 29.424,331.167 29.717 C 330.893 30.010,330.668 30.301,330.667 30.363 C 330.667 30.425,330.573 30.575,330.457 30.696 C 330.283 30.880,329.850 31.712,328.806 33.873 C 328.730 34.032,328.667 34.336,328.667 34.548 C 328.667 34.760,328.602 35.005,328.524 35.092 C 328.016 35.653,328.000 38.001,328.000 111.895 C 328.000 185.096,328.022 188.404,328.513 188.908 C 328.597 188.995,328.667 189.227,328.667 189.422 C 328.667 189.618,328.716 189.828,328.777 189.888 C 328.838 189.949,329.025 190.388,329.192 190.864 C 329.360 191.339,329.554 191.771,329.623 191.823 C 329.693 191.874,329.963 192.323,330.224 192.819 C 330.484 193.315,330.784 193.811,330.890 193.921 C 330.997 194.031,331.308 194.412,331.582 194.769 C 332.591 196.081,335.341 198.500,335.824 198.500 C 335.924 198.500,336.304 198.688,336.667 198.917 C 337.030 199.146,337.428 199.333,337.552 199.333 C 337.676 199.333,337.830 199.386,337.894 199.450 C 337.958 199.514,338.514 199.707,339.130 199.879 C 339.746 200.052,340.625 200.309,341.083 200.450 C 341.542 200.592,342.161 200.744,342.460 200.789 C 342.759 200.834,343.044 200.937,343.095 201.018 C 343.145 201.100,343.348 201.167,343.546 201.167 C 343.744 201.167,344.208 201.271,344.578 201.399 C 344.947 201.527,345.587 201.722,346.000 201.832 C 346.412 201.942,346.880 202.100,347.039 202.183 C 347.199 202.266,347.550 202.333,347.821 202.333 C 348.092 202.333,348.360 202.408,348.417 202.500 C 348.473 202.592,348.694 202.667,348.907 202.667 C 349.121 202.667,349.510 202.779,349.773 202.916 C 350.035 203.053,350.456 203.165,350.708 203.166 C 350.960 203.166,351.167 203.242,351.167 203.333 C 351.167 203.425,351.393 203.500,351.669 203.500 C 351.945 203.500,352.301 203.568,352.461 203.651 C 352.620 203.734,353.238 203.930,353.833 204.086 C 354.429 204.242,355.067 204.431,355.250 204.506 C 355.574 204.638,356.060 204.755,357.083 204.948 C 357.358 205.000,357.658 205.101,357.750 205.173 C 357.842 205.245,358.199 205.356,358.544 205.421 C 358.888 205.485,359.211 205.604,359.262 205.686 C 359.312 205.767,359.607 205.833,359.917 205.833 C 360.227 205.833,360.527 205.908,360.583 206.000 C 360.640 206.092,360.870 206.167,361.095 206.167 C 361.320 206.167,361.635 206.235,361.794 206.318 C 361.953 206.401,362.571 206.595,363.167 206.750 C 363.762 206.905,364.380 207.099,364.539 207.182 C 364.699 207.265,365.013 207.333,365.238 207.333 C 365.463 207.333,365.693 207.408,365.750 207.500 C 365.807 207.592,366.055 207.669,366.302 207.673 C 366.548 207.676,366.938 207.786,367.167 207.917 C 367.396 208.048,367.823 208.158,368.115 208.161 C 368.408 208.164,368.693 208.242,368.750 208.333 C 368.807 208.425,369.037 208.500,369.262 208.500 C 369.487 208.500,369.801 208.568,369.961 208.650 C 370.120 208.733,370.587 208.891,371.000 209.001 C 371.412 209.111,372.053 209.306,372.422 209.434 C 372.792 209.562,373.256 209.667,373.454 209.667 C 373.652 209.667,373.860 209.742,373.917 209.833 C 373.973 209.925,374.199 210.000,374.419 210.000 C 374.638 210.000,374.990 210.065,375.200 210.145 C 375.411 210.225,376.033 210.421,376.583 210.581 C 377.133 210.741,377.733 210.933,377.917 211.007 C 378.100 211.081,378.456 211.185,378.708 211.237 C 378.960 211.290,379.373 211.376,379.625 211.429 C 379.877 211.482,380.233 211.588,380.417 211.664 C 381.076 211.940,382.486 212.333,382.813 212.333 C 382.997 212.333,383.193 212.408,383.250 212.500 C 383.307 212.592,383.517 212.668,383.718 212.669 C 383.919 212.670,384.384 212.776,384.752 212.905 C 387.428 213.837,391.402 212.438,391.939 210.375 C 391.992 210.169,392.103 210.000,392.185 210.000 C 392.266 210.000,392.333 209.790,392.333 209.533 C 392.333 209.277,392.427 208.973,392.542 208.858 C 392.708 208.692,392.750 189.031,392.750 111.667 C 392.750 34.302,392.708 14.641,392.542 14.475 C 392.427 14.360,392.333 14.057,392.333 13.800 C 392.333 13.543,392.258 13.333,392.167 13.333 C 392.075 13.333,392.000 13.236,392.000 13.117 C 392.000 12.997,391.629 12.484,391.176 11.976 C 389.935 10.583,387.764 10.017,385.333 10.453 M9.917 11.148 C 9.033 11.432,7.172 13.125,7.161 13.654 C 7.158 13.799,7.046 14.062,6.911 14.240 C 6.777 14.418,6.667 14.770,6.667 15.022 C 6.667 15.274,6.592 15.527,6.500 15.583 C 6.269 15.726,6.269 209.000,6.500 209.000 C 6.592 209.000,6.666 209.131,6.666 209.292 C 6.665 209.674,7.214 211.234,7.375 211.306 C 7.444 211.336,7.500 211.437,7.500 211.530 C 7.500 211.775,9.011 213.167,9.277 213.167 C 9.399 213.167,9.500 213.242,9.500 213.333 C 9.500 213.425,9.710 213.500,9.967 213.500 C 10.223 213.500,10.517 213.584,10.620 213.686 C 10.880 213.947,13.670 213.707,14.583 213.345 C 14.767 213.273,15.367 213.083,15.917 212.923 C 16.467 212.764,17.047 212.566,17.206 212.483 C 17.365 212.401,17.717 212.333,17.988 212.333 C 18.259 212.333,18.523 212.265,18.574 212.181 C 18.626 212.097,18.968 211.978,19.333 211.917 C 19.699 211.855,20.041 211.736,20.092 211.652 C 20.144 211.568,20.402 211.500,20.667 211.500 C 20.931 211.500,21.193 211.425,21.250 211.333 C 21.307 211.242,21.559 211.167,21.810 211.167 C 22.061 211.167,22.338 211.098,22.425 211.014 C 22.512 210.930,22.808 210.826,23.083 210.782 C 23.358 210.739,23.771 210.630,24.000 210.540 C 24.814 210.220,25.612 210.000,25.960 210.000 C 26.155 210.000,26.360 209.925,26.417 209.833 C 26.473 209.742,26.725 209.667,26.977 209.667 C 27.228 209.667,27.517 209.583,27.620 209.480 C 27.723 209.377,28.094 209.232,28.445 209.158 C 28.796 209.083,29.365 208.942,29.708 208.844 C 30.052 208.747,30.615 208.587,30.958 208.489 C 31.302 208.391,31.871 208.250,32.222 208.176 C 32.573 208.101,32.944 207.956,33.047 207.853 C 33.149 207.751,33.439 207.667,33.690 207.667 C 33.941 207.667,34.193 207.592,34.250 207.500 C 34.307 207.408,34.569 207.333,34.833 207.333 C 35.098 207.333,35.360 207.258,35.417 207.167 C 35.473 207.075,35.674 207.000,35.862 207.000 C 36.214 207.000,37.689 206.566,38.206 206.310 C 38.365 206.231,38.680 206.167,38.905 206.167 C 39.130 206.167,39.360 206.092,39.417 206.000 C 39.473 205.908,39.736 205.833,40.000 205.833 C 40.264 205.833,40.523 205.765,40.574 205.681 C 40.626 205.597,40.968 205.478,41.333 205.417 C 41.699 205.355,42.041 205.236,42.092 205.152 C 42.144 205.068,42.429 205.000,42.727 205.000 C 43.024 205.000,43.338 204.930,43.425 204.844 C 43.512 204.758,43.771 204.657,44.000 204.619 C 44.229 204.582,44.529 204.513,44.667 204.466 C 44.804 204.419,45.367 204.250,45.917 204.090 C 46.467 203.931,47.047 203.733,47.206 203.650 C 47.365 203.568,47.721 203.500,47.998 203.500 C 48.274 203.500,48.500 203.442,48.500 203.371 C 48.500 203.240,49.651 202.888,50.627 202.722 C 50.925 202.671,51.211 202.563,51.261 202.482 C 51.312 202.400,51.537 202.333,51.762 202.333 C 51.987 202.333,52.301 202.266,52.461 202.183 C 52.620 202.100,53.087 201.941,53.500 201.830 C 53.913 201.718,54.533 201.523,54.878 201.397 C 55.224 201.270,55.656 201.167,55.839 201.167 C 56.022 201.167,56.301 201.099,56.461 201.016 C 56.620 200.934,57.087 200.775,57.500 200.663 C 58.801 200.312,59.906 199.965,60.206 199.813 C 60.365 199.733,60.617 199.667,60.765 199.667 C 60.914 199.667,61.383 199.490,61.809 199.274 C 64.474 197.924,66.255 196.458,67.812 194.333 C 68.182 193.829,68.544 193.342,68.617 193.250 C 68.764 193.065,69.974 190.609,70.177 190.083 C 70.509 189.224,70.723 188.515,70.884 187.750 C 71.123 186.614,71.237 37.171,71.000 36.933 C 70.908 36.842,70.833 36.533,70.833 36.246 C 70.833 35.694,70.387 34.191,70.145 33.925 C 70.065 33.838,70.000 33.634,70.000 33.472 C 70.000 33.033,69.057 31.380,67.923 29.831 C 66.542 27.945,63.470 25.375,62.223 25.062 C 62.009 25.008,61.833 24.897,61.833 24.815 C 61.833 24.734,61.713 24.667,61.567 24.667 C 61.420 24.667,61.064 24.561,60.775 24.432 C 60.244 24.194,59.697 24.050,58.707 23.886 C 58.408 23.837,58.122 23.730,58.072 23.648 C 58.022 23.567,57.826 23.500,57.638 23.500 C 57.330 23.500,56.132 23.159,55.250 22.820 C 55.067 22.749,54.729 22.654,54.500 22.607 C 54.024 22.511,53.313 22.315,52.000 21.918 C 51.496 21.765,50.839 21.601,50.540 21.552 C 50.241 21.503,49.956 21.396,49.905 21.315 C 49.855 21.233,49.630 21.167,49.405 21.167 C 49.180 21.167,48.865 21.099,48.706 21.015 C 48.243 20.773,45.975 20.127,45.291 20.042 C 44.946 20.000,44.623 19.898,44.572 19.816 C 44.522 19.734,44.300 19.667,44.079 19.667 C 43.859 19.667,43.432 19.563,43.131 19.437 C 42.281 19.080,41.428 18.833,41.040 18.833 C 40.845 18.833,40.640 18.758,40.583 18.667 C 40.527 18.575,40.296 18.500,40.071 18.500 C 39.846 18.500,39.532 18.430,39.373 18.345 C 38.931 18.110,37.396 17.667,37.020 17.667 C 36.837 17.667,36.640 17.592,36.583 17.500 C 36.527 17.408,36.259 17.333,35.988 17.333 C 35.717 17.333,35.365 17.265,35.206 17.182 C 34.924 17.035,33.709 16.682,33.458 16.674 C 33.388 16.672,33.060 16.557,32.729 16.419 C 32.397 16.280,31.984 16.167,31.811 16.167 C 31.637 16.167,31.365 16.099,31.206 16.015 C 30.782 15.794,28.035 15.011,26.750 14.745 C 26.475 14.688,26.100 14.579,25.917 14.502 C 25.573 14.359,24.224 13.954,23.125 13.665 C 22.781 13.574,22.181 13.416,21.792 13.314 C 21.402 13.212,20.895 13.060,20.664 12.977 C 20.434 12.894,20.024 12.785,19.753 12.736 C 19.482 12.687,19.183 12.586,19.089 12.511 C 18.994 12.436,18.692 12.334,18.417 12.285 C 17.923 12.195,17.632 12.116,15.833 11.586 C 15.329 11.437,14.692 11.275,14.417 11.225 C 14.142 11.175,13.790 11.066,13.636 10.983 C 13.196 10.748,10.838 10.853,9.917 11.148 M388.474 11.105 C 390.008 11.547,390.666 12.113,391.453 13.667 L 391.917 14.583 391.917 111.500 C 391.917 208.004,391.915 208.421,391.583 209.322 C 390.563 212.094,388.016 212.939,384.071 211.814 C 382.177 211.274,381.646 211.125,380.667 210.862 C 380.346 210.775,375.471 209.376,369.833 207.752 C 364.196 206.128,359.433 204.758,359.250 204.709 C 359.067 204.659,354.867 203.461,349.917 202.046 C 344.967 200.631,340.354 199.323,339.667 199.141 C 334.701 197.821,330.458 193.492,329.169 188.432 C 328.718 186.659,328.629 37.731,329.078 35.802 C 330.359 30.304,334.504 26.016,340.000 24.505 C 340.412 24.392,341.050 24.206,341.417 24.092 C 342.145 23.865,342.887 23.647,343.917 23.357 C 344.283 23.254,345.221 22.979,346.000 22.745 C 346.779 22.511,347.717 22.238,348.083 22.138 C 348.450 22.037,349.275 21.789,349.917 21.586 C 350.558 21.383,351.383 21.132,351.750 21.027 C 352.905 20.698,354.044 20.367,355.250 20.010 C 355.892 19.820,356.717 19.580,357.083 19.477 C 357.450 19.374,358.050 19.195,358.417 19.079 C 358.783 18.963,359.383 18.786,359.750 18.685 C 360.117 18.585,360.904 18.357,361.500 18.179 C 362.096 18.001,363.221 17.665,364.000 17.432 C 366.872 16.574,368.940 15.970,369.819 15.733 C 370.316 15.599,371.178 15.334,371.736 15.144 C 372.294 14.954,373.012 14.737,373.333 14.664 C 373.654 14.590,375.079 14.178,376.500 13.749 C 377.921 13.320,379.333 12.907,379.639 12.832 C 379.945 12.757,380.395 12.623,380.639 12.534 C 380.883 12.445,381.421 12.277,381.833 12.162 C 382.246 12.046,382.921 11.843,383.333 11.711 C 385.861 10.899,387.208 10.740,388.474 11.105 M14.361 11.813 C 14.575 11.897,15.050 12.046,15.417 12.144 C 15.783 12.242,16.721 12.511,17.500 12.740 C 18.693 13.091,20.557 13.623,23.667 14.498 C 24.572 14.753,26.039 15.184,26.500 15.329 C 26.729 15.402,27.217 15.543,27.583 15.644 C 27.950 15.744,29.188 16.092,30.333 16.417 C 31.479 16.741,32.679 17.080,33.000 17.168 C 33.770 17.381,34.982 17.732,36.417 18.157 C 37.058 18.347,37.846 18.576,38.167 18.665 C 38.487 18.755,39.425 19.020,40.250 19.254 C 41.075 19.488,42.162 19.796,42.667 19.937 C 43.171 20.079,44.071 20.339,44.667 20.515 C 45.262 20.692,46.012 20.908,46.333 20.996 C 46.654 21.084,47.554 21.344,48.333 21.573 C 49.112 21.803,50.688 22.254,51.833 22.577 C 52.979 22.899,54.142 23.228,54.417 23.309 C 54.692 23.389,55.217 23.540,55.583 23.645 C 60.049 24.919,61.084 25.252,62.102 25.746 C 65.415 27.353,68.266 30.705,69.620 34.588 L 70.083 35.917 70.129 111.500 C 70.181 196.384,70.312 187.953,68.892 190.992 C 66.860 195.341,63.390 198.213,58.750 199.386 C 58.567 199.433,56.354 200.083,53.833 200.832 C 51.313 201.581,46.325 203.054,42.750 204.106 C 39.175 205.157,35.612 206.209,34.833 206.443 C 34.054 206.676,33.192 206.929,32.917 207.004 C 32.363 207.155,24.063 209.608,21.833 210.279 C 21.054 210.513,20.173 210.772,19.875 210.853 C 18.717 211.168,18.172 211.329,15.917 212.025 C 11.215 213.476,8.790 212.901,7.442 210.017 L 7.083 209.250 7.083 112.250 L 7.083 15.250 7.628 14.137 C 8.320 12.722,9.224 11.988,10.750 11.601 C 11.235 11.478,13.905 11.635,14.361 11.813 M86.333 29.953 C 85.921 29.991,85.512 30.091,85.425 30.177 C 85.338 30.263,85.139 30.333,84.982 30.333 C 83.873 30.333,81.220 32.565,80.521 34.086 C 80.396 34.359,80.189 34.782,80.063 35.026 C 79.937 35.269,79.833 35.696,79.833 35.974 C 79.833 36.253,79.758 36.527,79.667 36.583 C 79.556 36.652,79.500 61.974,79.500 112.010 C 79.500 162.114,79.556 187.333,79.667 187.333 C 79.758 187.333,79.833 187.576,79.833 187.874 C 79.833 189.359,81.936 192.216,83.667 193.084 C 84.171 193.337,84.712 193.608,84.869 193.686 C 85.427 193.964,87.599 194.204,88.583 194.095 C 89.133 194.035,90.146 193.948,90.833 193.903 C 91.521 193.858,92.196 193.775,92.333 193.719 C 92.471 193.663,93.371 193.550,94.333 193.467 C 95.296 193.385,96.721 193.251,97.500 193.169 C 98.279 193.088,99.756 192.949,100.781 192.861 C 101.806 192.772,102.738 192.642,102.852 192.572 C 102.966 192.501,103.814 192.379,104.738 192.300 C 109.272 191.911,112.720 191.540,113.667 191.340 C 114.079 191.253,114.881 191.178,115.447 191.174 C 116.014 191.170,116.665 191.096,116.893 191.009 C 117.121 190.922,117.932 190.838,118.696 190.821 C 119.459 190.805,120.197 190.732,120.337 190.660 C 120.476 190.588,121.226 190.489,122.004 190.439 C 123.198 190.363,125.558 190.094,128.000 189.754 C 128.321 189.710,129.108 189.630,129.750 189.578 C 133.347 189.284,137.280 188.854,137.917 188.685 C 138.192 188.613,138.979 188.536,139.667 188.515 C 140.354 188.495,140.988 188.408,141.075 188.322 C 141.162 188.237,141.466 188.167,141.750 188.167 C 142.034 188.167,142.338 188.096,142.425 188.010 C 142.512 187.924,142.787 187.817,143.035 187.772 C 145.702 187.294,149.432 183.336,150.359 180.000 C 150.448 179.679,150.610 179.192,150.719 178.917 C 150.972 178.277,151.095 47.324,150.844 45.954 C 150.290 42.935,149.510 41.299,147.660 39.275 C 146.814 38.349,144.236 36.500,143.792 36.500 C 143.668 36.500,143.495 36.436,143.408 36.357 C 143.103 36.083,141.514 35.667,140.770 35.667 C 140.357 35.667,139.979 35.601,139.929 35.521 C 139.880 35.440,139.145 35.362,138.296 35.347 C 137.447 35.331,136.680 35.247,136.593 35.159 C 136.505 35.072,135.713 35.000,134.833 35.000 C 133.953 35.000,133.162 34.929,133.075 34.842 C 132.928 34.695,131.593 34.525,127.667 34.154 C 121.697 33.591,119.498 33.341,118.905 33.158 C 118.623 33.071,117.747 33.000,116.956 33.000 C 116.166 33.000,115.473 32.925,115.417 32.833 C 115.360 32.742,114.676 32.667,113.896 32.667 C 113.116 32.667,112.344 32.595,112.179 32.507 C 112.015 32.419,111.194 32.310,110.355 32.266 C 109.516 32.221,108.751 32.135,108.654 32.076 C 108.461 31.956,105.594 31.681,103.250 31.557 C 102.425 31.513,101.679 31.407,101.592 31.322 C 101.505 31.237,100.971 31.167,100.406 31.167 C 99.841 31.167,98.975 31.085,98.481 30.986 C 97.590 30.806,95.632 30.590,92.750 30.353 C 91.925 30.285,91.138 30.184,91.000 30.128 C 90.670 29.994,87.288 29.867,86.333 29.953 M308.265 30.125 C 308.196 30.194,307.452 30.301,306.612 30.364 C 303.227 30.615,301.345 30.806,301.167 30.917 C 301.063 30.981,300.215 31.104,299.281 31.191 C 298.347 31.277,296.871 31.414,296.000 31.495 C 293.259 31.750,291.096 31.981,290.750 32.057 C 290.567 32.098,289.684 32.186,288.788 32.254 C 287.892 32.321,287.119 32.442,287.070 32.522 C 287.021 32.601,286.305 32.667,285.479 32.667 C 284.654 32.667,283.850 32.735,283.694 32.819 C 283.537 32.903,282.736 33.012,281.913 33.063 C 279.975 33.181,276.797 33.554,276.583 33.687 C 276.492 33.744,275.745 33.806,274.924 33.823 C 274.104 33.841,273.354 33.907,273.258 33.969 C 273.162 34.032,272.408 34.133,271.583 34.194 C 268.712 34.406,266.415 34.672,266.083 34.831 C 265.900 34.919,265.075 35.027,264.250 35.072 C 257.916 35.416,255.421 36.018,253.053 37.773 C 251.878 38.644,250.029 40.791,249.556 41.833 C 249.452 42.063,249.196 42.625,248.988 43.083 C 248.780 43.542,248.534 44.292,248.442 44.750 C 248.203 45.936,248.210 177.946,248.449 179.083 C 248.652 180.050,248.983 181.015,249.189 181.242 C 249.269 181.329,249.333 181.495,249.333 181.611 C 249.333 182.288,251.545 185.050,252.957 186.135 C 254.046 186.973,256.529 188.167,257.183 188.167 C 257.370 188.167,257.651 188.236,257.809 188.320 C 257.966 188.404,258.580 188.493,259.173 188.517 C 259.765 188.540,260.550 188.620,260.917 188.694 C 261.839 188.880,266.840 189.408,269.333 189.583 C 270.021 189.631,270.958 189.741,271.417 189.828 C 272.756 190.081,278.698 190.721,283.516 191.132 C 284.488 191.215,285.366 191.334,285.468 191.397 C 285.570 191.460,286.501 191.590,287.535 191.685 C 288.570 191.781,290.092 191.926,290.917 192.008 C 291.742 192.090,293.208 192.221,294.176 192.299 C 295.143 192.376,296.026 192.496,296.138 192.565 C 296.250 192.635,297.183 192.768,298.212 192.862 C 299.241 192.956,300.758 193.102,301.583 193.186 C 302.408 193.270,303.758 193.406,304.583 193.488 C 305.408 193.569,307.133 193.761,308.417 193.912 C 314.600 194.644,317.775 192.863,319.402 187.750 C 319.796 186.512,319.811 37.334,319.417 36.392 C 319.279 36.062,319.167 35.614,319.167 35.396 C 319.167 35.178,319.092 35.000,319.000 35.000 C 318.908 35.000,318.833 34.855,318.833 34.679 C 318.833 34.502,318.740 34.258,318.625 34.137 C 318.510 34.016,318.307 33.704,318.173 33.445 C 317.859 32.837,316.662 31.641,316.055 31.327 C 315.796 31.193,315.546 31.040,315.500 30.987 C 315.330 30.790,314.272 30.333,313.984 30.333 C 313.820 30.333,313.640 30.258,313.583 30.167 C 313.463 29.972,308.455 29.933,308.265 30.125 M90.917 30.757 C 92.200 30.898,93.888 31.083,94.667 31.169 C 95.446 31.255,96.799 31.398,97.673 31.488 C 98.547 31.578,99.560 31.692,99.923 31.742 C 100.286 31.791,101.708 31.946,103.083 32.086 C 104.458 32.225,106.146 32.411,106.833 32.498 C 107.521 32.586,108.833 32.735,109.750 32.830 C 111.522 33.014,114.994 33.395,117.333 33.662 C 118.112 33.752,119.481 33.901,120.375 33.996 C 122.656 34.236,124.744 34.464,127.167 34.739 C 128.313 34.869,130.075 35.062,131.083 35.167 C 132.092 35.272,133.854 35.466,135.000 35.598 C 136.146 35.730,137.758 35.912,138.583 36.003 C 139.408 36.095,140.383 36.203,140.750 36.244 C 144.926 36.713,148.930 40.567,149.933 45.083 C 150.287 46.676,150.272 177.132,149.917 178.864 C 149.158 182.579,145.804 186.241,142.250 187.234 C 141.084 187.560,140.811 187.599,135.667 188.159 C 133.146 188.433,130.408 188.736,129.583 188.831 C 128.758 188.927,126.358 189.190,124.250 189.416 C 122.142 189.642,119.704 189.907,118.833 190.006 C 117.962 190.104,116.612 190.257,115.833 190.345 C 114.215 190.528,108.652 191.140,107.611 191.250 C 107.229 191.290,106.204 191.402,105.333 191.499 C 104.462 191.596,101.350 191.935,98.417 192.254 C 95.483 192.572,92.064 192.945,90.817 193.083 C 84.787 193.749,81.813 192.295,80.498 188.036 C 80.041 186.558,79.967 37.835,80.422 36.089 C 81.182 33.171,83.210 31.265,86.250 30.610 C 86.961 30.457,88.680 30.511,90.917 30.757 M312.597 30.679 C 315.660 31.234,317.937 33.460,318.599 36.546 C 318.931 38.095,318.941 185.520,318.609 187.250 C 317.719 191.884,314.200 193.815,308.083 193.025 C 307.350 192.930,305.962 192.768,305.000 192.665 C 304.037 192.562,302.313 192.371,301.167 192.239 C 299.157 192.008,298.088 191.893,294.333 191.500 C 293.371 191.400,291.683 191.211,290.583 191.082 C 289.483 190.952,287.796 190.765,286.833 190.666 C 285.871 190.567,284.446 190.412,283.667 190.322 C 281.374 190.056,276.383 189.506,274.583 189.320 C 271.763 189.030,270.367 188.879,267.167 188.518 C 265.471 188.327,263.333 188.088,262.417 187.986 C 259.045 187.613,257.227 187.340,256.568 187.107 C 252.877 185.805,250.108 182.756,249.247 179.046 C 248.881 177.465,248.883 46.290,249.250 44.750 C 250.350 40.129,255.062 36.206,259.551 36.173 C 259.992 36.169,260.854 36.095,261.468 36.007 C 262.081 35.919,263.708 35.726,265.083 35.578 C 266.458 35.430,268.039 35.240,268.597 35.155 C 269.154 35.070,269.933 35.000,270.328 35.000 C 270.722 35.000,271.504 34.927,272.064 34.837 C 272.625 34.748,274.208 34.557,275.583 34.413 C 276.958 34.270,278.683 34.085,279.417 34.003 C 280.150 33.922,281.537 33.771,282.500 33.668 C 283.462 33.565,284.813 33.413,285.500 33.330 C 286.188 33.247,287.875 33.062,289.250 32.918 C 290.625 32.775,292.350 32.588,293.083 32.502 C 293.817 32.416,295.167 32.265,296.083 32.167 C 297.000 32.068,299.100 31.836,300.750 31.650 C 304.237 31.258,305.855 31.087,308.496 30.832 C 309.547 30.731,310.441 30.614,310.482 30.574 C 310.610 30.446,311.575 30.493,312.597 30.679 M167.583 37.287 C 167.308 37.326,167.012 37.428,166.925 37.513 C 166.838 37.597,166.589 37.667,166.373 37.667 C 165.979 37.667,164.304 38.405,163.834 38.786 C 163.696 38.898,163.323 39.162,163.004 39.373 C 161.969 40.060,160.640 41.960,159.824 43.917 C 159.748 44.100,159.633 44.587,159.568 45.000 C 159.192 47.394,159.468 180.000,159.849 180.000 C 159.932 180.000,160.000 180.188,160.000 180.417 C 160.000 180.646,160.056 180.834,160.125 180.834 C 160.194 180.834,160.389 181.172,160.558 181.584 C 160.728 181.996,160.934 182.333,161.017 182.333 C 161.099 182.333,161.167 182.432,161.167 182.554 C 161.167 183.820,165.061 186.245,167.917 186.755 C 169.625 187.061,229.366 187.123,230.862 186.821 C 233.450 186.298,235.090 185.529,236.481 184.185 C 237.405 183.293,238.667 181.688,238.667 181.405 C 238.667 181.332,238.813 180.967,238.992 180.594 C 239.883 178.735,239.833 182.835,239.830 112.083 C 239.827 41.171,239.877 45.046,238.945 43.193 C 238.094 41.499,237.983 41.345,236.640 39.984 C 235.491 38.821,233.499 37.667,232.641 37.667 C 232.417 37.667,232.140 37.573,232.025 37.458 C 231.823 37.257,168.946 37.089,167.583 37.287 M231.738 37.908 C 235.255 38.644,238.066 41.414,238.933 45.000 C 239.264 46.370,239.262 177.476,238.931 178.833 C 238.125 182.135,236.271 184.280,233.083 185.600 L 231.917 186.083 200.037 186.128 C 165.305 186.176,167.184 186.223,165.124 185.248 C 163.001 184.242,161.161 182.179,160.318 179.857 L 159.917 178.750 159.874 112.447 C 159.827 39.414,159.746 45.194,160.845 42.892 C 161.457 41.610,162.909 39.997,164.212 39.152 C 165.079 38.590,165.523 38.416,167.500 37.864 C 168.544 37.572,230.335 37.615,231.738 37.908 M160.200 223.533 C 160.047 223.686,160.000 227.320,160.000 238.873 L 160.000 254.012 159.292 253.185 C 158.902 252.730,158.517 252.352,158.436 252.346 C 158.355 252.339,158.168 252.195,158.020 252.025 C 157.605 251.553,155.095 250.031,154.340 249.796 C 153.969 249.680,153.667 249.529,153.667 249.459 C 153.667 249.390,153.454 249.333,153.194 249.333 C 152.935 249.333,152.666 249.277,152.597 249.208 C 152.084 248.695,144.813 248.202,144.276 248.644 C 144.170 248.731,143.726 248.855,143.290 248.920 C 142.853 248.985,142.455 249.105,142.405 249.186 C 142.355 249.267,142.130 249.333,141.905 249.333 C 141.680 249.333,141.365 249.400,141.206 249.481 C 141.047 249.562,140.692 249.729,140.417 249.852 C 138.287 250.805,134.333 254.143,134.333 254.987 C 134.333 255.071,134.277 255.164,134.208 255.194 C 133.990 255.292,133.167 256.649,133.167 256.913 C 133.167 257.053,133.092 257.167,133.000 257.167 C 132.908 257.167,132.833 257.273,132.833 257.403 C 132.833 257.533,132.708 257.889,132.555 258.195 C 132.035 259.233,132.000 259.329,132.000 259.714 C 132.000 259.926,131.933 260.171,131.850 260.258 C 131.768 260.345,131.659 260.717,131.607 261.083 C 131.555 261.450,131.441 262.200,131.354 262.750 C 131.266 263.300,131.195 264.650,131.195 265.750 C 131.195 266.850,131.266 268.200,131.354 268.750 C 131.441 269.300,131.552 270.050,131.599 270.417 C 131.647 270.783,131.746 271.233,131.820 271.417 C 131.893 271.600,132.048 272.050,132.163 272.417 C 132.362 273.053,132.535 273.488,133.075 274.716 C 134.557 278.085,139.942 282.833,142.281 282.833 C 142.463 282.833,142.662 282.884,142.725 282.947 C 143.444 283.666,148.981 283.917,151.243 283.332 C 154.873 282.393,158.105 280.461,159.743 278.250 C 159.965 277.950,159.990 278.151,159.995 280.258 C 159.998 281.851,160.064 282.664,160.200 282.800 C 160.512 283.112,163.333 283.065,163.796 282.741 L 164.167 282.481 164.167 253.167 L 164.167 223.852 163.796 223.593 C 163.333 223.268,160.512 223.222,160.200 223.533 M14.292 223.626 C 13.919 223.709,13.828 282.761,14.200 283.133 C 14.551 283.484,17.556 283.399,17.891 283.029 C 18.145 282.747,18.167 280.443,18.167 253.274 L 18.167 223.825 17.718 223.655 C 17.303 223.497,14.958 223.477,14.292 223.626 M276.042 223.663 L 275.667 223.823 275.669 253.286 C 275.671 271.531,275.732 282.845,275.830 283.000 C 276.062 283.368,279.281 283.457,279.750 283.108 C 280.102 282.846,280.298 224.076,279.948 223.726 C 279.750 223.528,276.481 223.475,276.042 223.663 M31.090 235.322 C 31.030 235.420,30.722 235.500,30.407 235.500 C 30.091 235.500,29.833 235.575,29.833 235.667 C 29.833 235.758,29.740 235.834,29.625 235.835 C 29.510 235.836,29.233 236.069,29.008 236.354 C 27.037 238.848,28.479 242.276,31.484 242.238 C 35.442 242.188,36.124 236.123,32.246 235.465 C 31.973 235.418,31.626 235.327,31.475 235.262 C 31.324 235.197,31.151 235.224,31.090 235.322 M120.757 235.322 C 120.697 235.420,120.423 235.500,120.150 235.500 C 119.632 235.500,119.424 235.622,118.690 236.356 C 117.874 237.172,117.833 237.281,117.833 238.653 C 117.833 241.434,120.157 243.084,122.500 241.967 C 125.424 240.572,125.005 235.897,121.917 235.456 C 121.642 235.416,121.293 235.330,121.142 235.264 C 120.991 235.198,120.818 235.224,120.757 235.322 M54.764 248.644 C 54.710 248.731,54.291 248.854,53.833 248.917 C 53.375 248.980,53.000 249.099,53.000 249.182 C 53.000 249.265,52.737 249.333,52.417 249.333 C 52.096 249.333,51.833 249.408,51.833 249.500 C 51.833 249.592,51.720 249.667,51.581 249.667 C 51.348 249.667,50.964 249.830,50.333 250.197 C 50.196 250.277,49.952 250.387,49.792 250.441 C 49.631 250.495,49.500 250.605,49.500 250.686 C 49.500 250.767,49.387 250.833,49.250 250.833 C 49.112 250.833,49.000 250.903,49.000 250.989 C 49.000 251.074,48.855 251.190,48.677 251.247 C 48.500 251.303,47.978 251.702,47.518 252.133 C 47.058 252.564,46.547 253.037,46.382 253.185 C 46.050 253.482,45.811 253.769,45.081 254.750 C 44.809 255.117,44.547 255.454,44.501 255.500 C 44.455 255.546,44.299 255.809,44.155 256.083 C 44.010 256.358,43.813 256.733,43.715 256.917 C 43.184 257.914,42.667 259.123,42.667 259.368 C 42.667 259.521,42.592 259.693,42.500 259.750 C 42.408 259.807,42.333 260.075,42.333 260.345 C 42.333 260.616,42.266 260.968,42.184 261.127 C 41.382 262.685,41.382 269.981,42.184 271.539 C 42.266 271.699,42.333 271.976,42.333 272.157 C 42.333 272.489,42.468 272.880,42.998 274.083 C 43.626 275.509,44.065 276.333,44.196 276.333 C 44.272 276.333,44.333 276.431,44.333 276.550 C 44.333 276.820,45.807 278.662,46.728 279.544 C 48.290 281.038,50.735 282.432,52.750 282.975 C 53.117 283.074,53.841 283.270,54.359 283.411 C 56.302 283.938,62.273 283.616,62.941 282.948 C 63.004 282.885,63.203 282.833,63.384 282.833 C 64.457 282.833,68.031 280.576,69.542 278.944 L 70.333 278.089 70.333 289.943 C 70.333 300.599,70.360 301.808,70.597 301.899 C 71.037 302.068,73.833 302.012,74.178 301.827 C 74.494 301.658,74.500 301.189,74.500 275.597 L 74.500 249.538 74.089 249.269 C 73.539 248.909,70.924 248.886,70.571 249.238 C 70.388 249.421,70.333 250.003,70.333 251.757 L 70.333 254.039 69.282 252.978 C 68.095 251.780,67.855 251.579,66.919 250.997 C 65.481 250.102,64.604 249.667,64.239 249.667 C 64.119 249.667,63.973 249.592,63.917 249.500 C 63.860 249.408,63.631 249.333,63.407 249.333 C 63.183 249.333,63.000 249.274,63.000 249.203 C 63.000 248.750,55.032 248.210,54.764 248.644 M206.049 248.818 C 205.480 248.971,204.962 249.149,204.896 249.215 C 204.831 249.280,204.565 249.333,204.306 249.333 C 204.046 249.333,203.833 249.408,203.833 249.500 C 203.833 249.592,203.646 249.667,203.417 249.667 C 203.188 249.667,203.000 249.742,203.000 249.833 C 203.000 249.925,202.859 250.000,202.687 250.000 C 202.515 250.000,202.281 250.112,202.167 250.250 C 202.053 250.387,201.856 250.500,201.730 250.500 C 201.603 250.500,201.500 250.575,201.500 250.667 C 201.500 250.758,201.382 250.833,201.239 250.833 C 200.611 250.833,196.500 254.739,196.500 255.335 C 196.500 255.426,196.429 255.500,196.341 255.500 C 196.254 255.500,196.051 255.781,195.892 256.125 C 195.732 256.469,195.559 256.787,195.509 256.833 C 195.319 257.005,195.000 257.671,195.000 257.894 C 195.000 258.022,194.887 258.219,194.750 258.333 C 194.612 258.447,194.500 258.719,194.500 258.937 C 194.500 259.155,194.425 259.333,194.333 259.333 C 194.242 259.333,194.167 259.512,194.167 259.730 C 194.167 259.948,194.054 260.395,193.917 260.724 C 193.779 261.053,193.667 261.546,193.667 261.818 C 193.667 262.091,193.592 262.360,193.500 262.417 C 193.286 262.549,193.276 268.872,193.489 269.572 C 193.575 269.853,193.771 270.571,193.924 271.167 C 194.250 272.431,194.299 272.567,194.935 274.000 C 195.200 274.596,195.473 275.108,195.542 275.139 C 195.610 275.169,195.667 275.269,195.667 275.360 C 195.667 275.655,197.105 277.726,197.988 278.703 C 199.306 280.160,202.638 282.500,203.394 282.500 C 203.533 282.500,203.693 282.575,203.750 282.667 C 203.807 282.758,204.024 282.833,204.232 282.833 C 204.441 282.833,204.663 282.885,204.726 282.948 C 205.388 283.610,211.122 283.934,212.885 283.409 C 213.361 283.268,214.012 283.075,214.333 282.982 C 214.654 282.888,215.067 282.754,215.250 282.685 C 215.731 282.503,218.235 281.270,218.333 281.167 C 218.379 281.119,218.717 280.884,219.083 280.645 C 219.450 280.405,220.268 279.732,220.901 279.150 L 222.051 278.090 221.932 280.920 C 221.778 284.566,221.415 287.963,221.151 288.242 C 221.068 288.329,220.998 288.591,220.995 288.825 C 220.992 289.059,220.879 289.396,220.745 289.574 C 220.610 289.751,220.500 290.033,220.500 290.199 C 220.500 290.364,220.425 290.500,220.333 290.500 C 220.242 290.500,220.167 290.610,220.167 290.745 C 220.167 291.340,218.622 293.543,217.474 294.583 C 216.656 295.325,216.109 295.680,215.000 296.185 C 214.588 296.373,214.120 296.596,213.961 296.680 C 213.801 296.764,213.445 296.833,213.169 296.833 C 212.893 296.833,212.667 296.897,212.667 296.975 C 212.667 297.135,210.357 297.396,209.083 297.381 C 207.651 297.363,205.667 297.129,205.667 296.978 C 205.667 296.898,205.404 296.833,205.083 296.833 C 204.762 296.833,204.500 296.758,204.500 296.667 C 204.500 296.575,204.331 296.495,204.125 296.488 C 203.919 296.481,203.525 296.334,203.250 296.162 C 202.975 295.989,202.501 295.721,202.197 295.566 C 201.892 295.411,201.432 295.089,201.174 294.850 C 200.915 294.612,200.489 294.228,200.227 293.997 C 199.593 293.439,198.833 292.541,198.833 292.349 C 198.833 292.264,198.777 292.169,198.708 292.139 C 198.429 292.015,197.667 290.171,197.412 289.000 C 197.262 288.313,197.049 287.487,196.938 287.167 L 196.737 286.583 194.934 286.536 C 193.748 286.505,193.052 286.554,192.899 286.681 C 192.632 286.903,192.584 287.929,192.833 288.083 C 192.925 288.140,193.000 288.590,193.000 289.083 C 193.000 289.577,193.075 290.027,193.167 290.083 C 193.258 290.140,193.333 290.408,193.333 290.679 C 193.333 290.950,193.405 291.301,193.492 291.461 C 193.579 291.620,193.890 292.275,194.183 292.917 C 195.357 295.485,197.488 297.855,199.666 299.017 C 200.078 299.237,200.453 299.458,200.500 299.509 C 200.843 299.889,203.898 300.963,205.250 301.179 C 212.138 302.282,217.558 300.776,221.465 296.675 C 222.379 295.716,224.167 293.189,224.167 292.856 C 224.167 292.752,224.242 292.667,224.333 292.667 C 224.425 292.667,224.500 292.479,224.500 292.250 C 224.500 292.021,224.575 291.833,224.667 291.833 C 224.758 291.833,224.833 291.692,224.833 291.519 C 224.833 291.346,224.945 290.990,225.082 290.727 C 225.219 290.465,225.332 290.096,225.332 289.908 C 225.333 289.720,225.401 289.495,225.484 289.408 C 225.648 289.236,225.758 288.502,226.020 285.833 C 226.120 284.822,226.224 276.819,226.267 266.864 L 226.342 249.644 225.963 249.328 C 225.419 248.874,222.442 248.845,222.231 249.292 C 222.155 249.452,222.053 250.534,222.005 251.696 L 221.917 253.809 220.708 252.651 C 219.559 251.550,217.837 250.331,216.750 249.849 C 216.475 249.727,216.120 249.562,215.961 249.481 C 215.801 249.400,215.520 249.333,215.336 249.333 C 215.151 249.333,215.000 249.271,215.000 249.195 C 215.000 248.611,207.924 248.313,206.049 248.818 M246.008 248.658 C 245.875 248.742,245.406 248.861,244.966 248.921 C 244.527 248.982,244.125 249.099,244.074 249.182 C 244.022 249.265,243.804 249.333,243.589 249.333 C 243.374 249.333,242.910 249.477,242.557 249.653 C 242.205 249.829,241.804 250.019,241.667 250.076 C 240.977 250.362,239.001 251.695,239.000 251.875 C 239.000 251.944,238.906 252.001,238.792 252.003 C 238.384 252.008,235.500 255.355,235.500 255.822 C 235.500 255.920,235.442 256.000,235.371 256.000 C 235.300 256.000,235.093 256.337,234.912 256.748 C 234.731 257.160,234.527 257.498,234.458 257.498 C 234.390 257.499,234.333 257.683,234.333 257.907 C 234.333 258.131,234.258 258.360,234.167 258.417 C 234.075 258.473,234.000 258.688,234.000 258.893 C 234.000 259.099,233.929 259.338,233.843 259.425 C 233.658 259.611,233.370 260.684,233.129 262.083 C 232.926 263.262,232.880 268.089,233.062 269.167 C 233.262 270.356,233.706 272.069,233.860 272.242 C 233.937 272.329,234.000 272.536,234.000 272.702 C 234.000 272.869,234.068 273.135,234.152 273.294 C 234.235 273.453,234.513 274.033,234.770 274.583 C 235.954 277.125,239.709 281.333,240.793 281.333 C 240.892 281.333,240.997 281.392,241.028 281.464 C 241.133 281.710,243.283 282.669,244.417 282.975 C 244.783 283.074,245.507 283.270,246.026 283.411 C 247.918 283.924,252.653 283.685,254.250 282.994 C 254.433 282.915,254.931 282.738,255.355 282.600 C 257.027 282.060,259.199 280.654,260.708 279.136 L 261.500 278.340 261.500 280.337 C 261.500 282.952,261.540 283.000,263.724 283.000 C 266.094 283.000,265.837 285.072,265.837 266.000 C 265.837 246.964,266.080 249.000,263.802 249.000 C 261.538 249.000,261.500 249.043,261.500 251.578 L 261.500 253.617 260.542 252.722 C 260.015 252.229,259.246 251.605,258.833 251.334 C 258.421 251.064,258.008 250.782,257.917 250.709 C 257.825 250.635,257.300 250.362,256.750 250.102 C 256.200 249.842,255.620 249.563,255.461 249.481 C 255.301 249.400,255.025 249.333,254.845 249.333 C 254.666 249.333,254.478 249.265,254.426 249.182 C 254.375 249.099,253.958 248.980,253.500 248.917 C 253.042 248.854,252.625 248.734,252.574 248.651 C 252.451 248.453,246.322 248.459,246.008 248.658 M299.333 248.757 C 299.012 248.880,298.544 248.985,298.292 248.991 C 298.040 248.996,297.833 249.075,297.833 249.167 C 297.833 249.258,297.645 249.333,297.414 249.333 C 297.184 249.333,296.865 249.400,296.706 249.481 C 296.547 249.563,295.967 249.842,295.417 250.101 C 294.867 250.360,294.392 250.631,294.361 250.703 C 294.331 250.775,294.232 250.833,294.142 250.833 C 293.996 250.833,293.393 251.247,292.440 252.000 C 291.386 252.834,289.285 255.393,288.815 256.417 C 288.731 256.600,288.518 256.975,288.343 257.250 C 288.168 257.525,288.019 257.906,288.012 258.097 C 288.005 258.288,287.949 258.496,287.886 258.559 C 286.924 259.521,286.289 265.670,286.808 269.000 C 286.915 269.688,287.049 270.550,287.106 270.917 C 287.163 271.283,287.313 271.731,287.438 271.912 C 287.564 272.093,287.667 272.375,287.667 272.539 C 287.667 272.704,287.735 272.968,287.818 273.127 C 287.902 273.286,288.208 273.942,288.500 274.583 C 289.514 276.815,291.247 278.961,293.333 280.569 C 294.309 281.321,297.236 282.833,297.717 282.833 C 297.875 282.833,298.135 282.905,298.294 282.993 C 299.433 283.623,304.627 283.884,306.495 283.405 C 309.911 282.529,312.686 281.032,314.461 279.107 L 315.167 278.341 315.167 280.337 C 315.167 282.949,315.209 283.000,317.380 283.000 C 318.509 283.000,319.026 282.930,319.296 282.741 L 319.667 282.481 319.667 266.010 L 319.667 249.538 319.256 249.269 C 318.763 248.946,316.349 248.892,315.781 249.192 C 315.208 249.493,315.172 249.637,315.169 251.638 L 315.167 253.525 314.676 253.138 C 314.406 252.924,314.178 252.675,314.170 252.583 C 314.141 252.278,310.684 250.000,310.249 250.000 C 310.112 250.000,310.000 249.925,310.000 249.833 C 310.000 249.742,309.817 249.667,309.593 249.667 C 309.369 249.667,309.140 249.592,309.083 249.500 C 309.027 249.408,308.810 249.333,308.601 249.333 C 308.393 249.333,308.166 249.277,308.097 249.208 C 307.509 248.620,300.614 248.265,299.333 248.757 M29.609 249.305 C 29.144 249.818,29.190 282.578,29.656 282.827 C 29.833 282.922,30.646 283.000,31.463 283.000 C 33.839 283.000,33.583 285.054,33.583 265.968 L 33.583 249.637 33.190 249.319 C 32.625 248.861,30.020 248.851,29.609 249.305 M84.205 249.205 C 83.638 249.478,83.647 249.256,83.724 261.417 C 83.808 274.709,83.836 275.027,85.135 277.833 C 85.915 279.516,89.180 282.500,90.242 282.500 C 90.373 282.500,90.527 282.575,90.583 282.667 C 90.640 282.758,90.857 282.833,91.065 282.833 C 91.274 282.833,91.496 282.885,91.559 282.948 C 92.457 283.846,98.531 283.886,100.583 283.007 C 100.767 282.929,101.254 282.738,101.667 282.584 C 103.777 281.797,106.013 279.839,107.013 277.904 C 107.592 276.783,107.767 276.279,108.150 274.623 C 108.534 272.962,108.394 249.626,107.998 249.287 C 107.472 248.837,104.864 248.875,104.365 249.340 L 104.000 249.680 104.000 261.247 C 104.000 268.778,103.942 272.850,103.833 272.917 C 103.742 272.973,103.667 273.353,103.667 273.760 C 103.667 274.167,103.592 274.500,103.500 274.500 C 103.408 274.500,103.333 274.689,103.333 274.920 C 103.333 275.151,103.146 275.637,102.917 276.000 C 102.688 276.363,102.500 276.724,102.500 276.802 C 102.500 277.048,100.871 278.500,100.595 278.500 C 100.451 278.500,100.333 278.575,100.333 278.667 C 100.333 278.758,100.188 278.833,100.010 278.833 C 99.832 278.833,99.640 278.908,99.583 279.000 C 99.527 279.092,99.200 279.167,98.857 279.167 C 98.514 279.167,98.153 279.247,98.056 279.344 C 97.942 279.458,97.227 279.494,96.064 279.444 C 93.539 279.336,93.050 279.245,91.759 278.644 C 91.211 278.388,90.000 277.279,90.000 277.032 C 90.000 276.923,89.939 276.833,89.864 276.833 C 89.650 276.833,88.864 275.019,88.601 273.917 C 88.118 271.901,88.000 269.019,88.000 259.302 L 88.000 249.538 87.589 249.269 C 87.107 248.953,84.817 248.910,84.205 249.205 M119.292 249.232 C 118.812 249.596,118.843 282.571,119.322 282.827 C 119.943 283.159,122.402 283.042,122.891 282.657 L 123.327 282.314 123.332 266.045 L 123.336 249.775 122.973 249.387 C 122.538 248.925,119.846 248.812,119.292 249.232 M325.750 249.274 C 325.321 249.702,326.195 251.485,327.330 252.500 C 327.382 252.546,328.130 253.483,328.994 254.583 C 329.858 255.683,331.056 257.210,331.657 257.976 C 332.258 258.741,332.975 259.646,333.250 259.986 C 333.525 260.325,333.975 260.890,334.250 261.241 C 334.525 261.592,334.828 261.963,334.923 262.065 C 335.018 262.167,335.317 262.550,335.588 262.917 C 335.860 263.283,336.119 263.621,336.166 263.667 C 336.212 263.712,336.491 264.062,336.787 264.442 L 337.323 265.135 336.957 265.609 C 336.755 265.870,336.514 266.164,336.420 266.262 C 336.327 266.360,336.063 266.716,335.833 267.053 C 335.604 267.389,335.360 267.665,335.292 267.666 C 335.223 267.666,335.167 267.773,335.167 267.903 C 335.167 268.033,335.110 268.164,335.041 268.194 C 334.906 268.254,333.337 270.233,332.089 271.917 C 331.818 272.283,331.518 272.664,331.423 272.762 C 331.328 272.860,331.063 273.216,330.833 273.553 C 330.604 273.889,330.360 274.165,330.292 274.166 C 330.223 274.166,330.167 274.246,330.167 274.342 C 330.167 274.439,329.942 274.758,329.667 275.051 C 329.393 275.344,329.168 275.631,329.167 275.690 C 329.167 275.749,328.906 276.086,328.587 276.440 C 328.268 276.794,328.006 277.128,328.004 277.183 C 328.002 277.238,327.869 277.438,327.708 277.627 C 327.548 277.817,327.117 278.364,326.750 278.844 C 326.383 279.323,325.891 279.948,325.656 280.232 C 323.789 282.494,323.969 283.001,326.639 282.998 C 328.861 282.995,328.852 282.999,330.181 281.230 C 330.827 280.371,331.444 279.574,331.553 279.459 C 331.661 279.344,331.974 278.950,332.247 278.583 C 332.521 278.217,332.836 277.804,332.947 277.667 C 333.206 277.348,336.816 272.678,337.633 271.606 C 337.972 271.161,338.325 270.711,338.417 270.606 C 338.508 270.502,338.905 269.985,339.297 269.458 C 340.158 268.302,340.138 268.304,340.838 269.292 C 341.147 269.727,341.444 270.121,341.498 270.167 C 341.572 270.229,344.616 274.099,345.627 275.417 C 345.698 275.508,345.928 275.808,346.138 276.083 C 346.349 276.358,346.702 276.808,346.924 277.083 C 347.146 277.358,348.170 278.671,349.199 280.000 C 350.229 281.329,351.181 282.529,351.315 282.667 C 351.696 283.058,355.348 283.128,355.725 282.751 C 356.053 282.423,356.081 281.941,355.788 281.637 C 355.671 281.516,355.428 281.218,355.246 280.976 C 354.018 279.334,352.751 277.741,352.636 277.694 C 352.561 277.664,352.500 277.539,352.500 277.417 C 352.500 277.294,352.440 277.169,352.367 277.139 C 352.294 277.108,351.754 276.446,351.167 275.667 C 350.579 274.887,350.039 274.225,349.966 274.194 C 349.893 274.164,349.833 274.039,349.833 273.917 C 349.833 273.794,349.766 273.669,349.684 273.639 C 349.602 273.608,349.058 272.946,348.475 272.167 C 347.892 271.387,346.942 270.150,346.363 269.417 C 345.065 267.773,345.031 267.730,344.422 266.913 C 344.149 266.549,343.794 266.106,343.632 265.929 C 343.054 265.300,343.220 264.598,344.166 263.667 C 344.333 263.502,346.146 261.232,346.775 260.400 C 347.128 259.933,347.679 259.228,348.000 258.834 C 348.321 258.439,348.772 257.884,349.002 257.600 C 349.233 257.316,349.793 256.596,350.246 256.000 C 350.699 255.404,351.116 254.879,351.171 254.833 C 351.468 254.588,354.445 250.670,354.682 250.212 L 354.960 249.675 355.060 250.177 C 355.116 250.453,355.566 251.520,356.061 252.548 C 356.557 253.576,357.158 254.824,357.398 255.323 C 357.637 255.821,357.833 256.328,357.833 256.448 C 357.833 256.568,357.908 256.667,358.000 256.667 C 358.092 256.667,358.167 256.742,358.167 256.834 C 358.167 256.925,358.551 257.807,359.020 258.792 C 360.649 262.214,361.614 264.254,361.915 264.917 C 362.443 266.076,363.829 269.011,364.827 271.083 C 366.699 274.967,367.473 276.594,367.919 277.583 C 368.664 279.231,370.000 282.052,370.268 282.542 C 370.494 282.955,370.491 283.053,370.236 283.542 C 369.725 284.518,369.667 284.659,369.667 284.914 C 369.667 285.053,369.600 285.167,369.518 285.167 C 369.436 285.167,369.320 285.362,369.260 285.602 C 369.200 285.841,368.997 286.385,368.809 286.810 C 368.621 287.235,368.407 287.733,368.333 287.917 C 368.260 288.100,368.041 288.609,367.846 289.049 C 367.651 289.488,367.374 290.163,367.231 290.549 C 367.087 290.934,366.781 291.662,366.550 292.167 C 366.151 293.040,366.001 293.388,365.621 294.333 C 365.375 294.945,364.972 295.875,364.809 296.206 C 364.731 296.365,364.667 296.609,364.667 296.748 C 364.667 296.886,364.592 297.000,364.500 297.000 C 364.408 297.000,364.333 297.114,364.333 297.252 C 364.333 297.391,364.262 297.635,364.175 297.794 C 364.032 298.054,363.803 298.587,363.297 299.833 C 363.204 300.063,363.062 300.380,362.981 300.539 C 362.393 301.694,362.813 302.001,364.972 301.997 C 367.035 301.994,366.977 302.044,368.009 299.417 C 368.081 299.233,368.321 298.671,368.543 298.167 C 368.766 297.662,369.044 296.987,369.162 296.667 C 369.280 296.346,369.510 295.783,369.672 295.417 C 369.834 295.050,370.087 294.469,370.234 294.125 C 370.750 292.913,371.047 292.243,371.355 291.594 C 371.527 291.233,371.667 290.853,371.667 290.750 C 371.667 290.647,371.807 290.267,371.978 289.906 C 372.149 289.545,372.403 288.987,372.542 288.667 C 373.114 287.344,373.393 286.716,373.689 286.094 C 373.860 285.733,374.000 285.379,374.000 285.307 C 374.000 285.235,374.188 284.767,374.417 284.266 C 374.646 283.765,374.833 283.312,374.833 283.259 C 374.833 283.206,374.991 282.808,375.183 282.373 C 375.376 281.939,375.595 281.433,375.670 281.250 C 375.745 281.067,376.000 280.490,376.237 279.969 C 376.473 279.447,376.667 278.980,376.667 278.931 C 376.667 278.882,376.900 278.334,377.184 277.713 C 377.469 277.091,377.925 276.021,378.197 275.333 C 378.469 274.646,378.761 274.012,378.846 273.925 C 378.931 273.838,379.000 273.668,379.000 273.548 C 379.000 273.428,379.159 272.974,379.353 272.540 C 380.218 270.603,380.373 270.246,380.667 269.500 C 380.838 269.065,381.134 268.361,381.323 267.937 C 381.512 267.514,381.817 266.830,382.000 266.418 C 382.183 266.007,382.333 265.620,382.333 265.560 C 382.333 265.441,383.073 263.776,383.340 263.294 C 383.428 263.135,383.500 262.931,383.500 262.840 C 383.500 262.750,383.697 262.242,383.937 261.713 C 384.177 261.183,384.484 260.487,384.620 260.167 C 384.755 259.846,385.016 259.246,385.198 258.833 C 385.381 258.421,385.591 257.933,385.665 257.750 C 385.739 257.567,385.962 257.051,386.161 256.604 C 386.359 256.157,386.670 255.413,386.853 254.951 C 387.035 254.489,387.334 253.767,387.518 253.347 C 387.891 252.492,388.080 252.047,388.353 251.375 C 388.455 251.123,388.605 250.786,388.686 250.627 C 388.897 250.213,388.868 249.434,388.633 249.200 C 388.127 248.693,384.671 249.064,384.668 249.625 C 384.667 249.740,384.592 249.833,384.500 249.833 C 384.408 249.833,384.333 249.953,384.333 250.099 C 384.333 250.246,384.230 250.564,384.104 250.808 C 383.977 251.051,383.797 251.438,383.704 251.667 C 383.495 252.178,383.149 252.985,382.666 254.083 C 382.465 254.542,382.225 255.104,382.133 255.333 C 382.040 255.563,381.871 255.975,381.756 256.250 C 381.641 256.525,381.469 256.938,381.373 257.167 C 381.278 257.396,381.035 257.958,380.834 258.417 C 380.632 258.875,380.356 259.512,380.220 259.833 C 380.083 260.154,379.903 260.547,379.819 260.706 C 379.735 260.865,379.667 261.146,379.667 261.331 C 379.667 261.516,379.610 261.667,379.542 261.667 C 379.473 261.668,379.279 262.024,379.110 262.459 C 378.686 263.554,378.585 263.798,378.167 264.750 C 377.684 265.849,377.338 266.655,377.129 267.167 C 377.036 267.396,376.856 267.782,376.730 268.026 C 376.603 268.269,376.500 268.588,376.500 268.734 C 376.500 268.880,376.425 269.000,376.333 269.000 C 376.242 269.000,376.167 269.151,376.167 269.336 C 376.167 269.520,376.095 269.801,376.006 269.961 C 375.866 270.215,375.238 271.619,374.833 272.583 C 374.429 273.548,373.801 274.952,373.660 275.206 C 373.572 275.365,373.500 275.646,373.500 275.831 C 373.500 276.016,373.425 276.167,373.333 276.167 C 373.242 276.167,373.167 276.263,373.167 276.381 C 373.167 276.500,373.033 276.858,372.870 277.177 L 372.574 277.759 372.287 277.158 C 372.129 276.828,372.000 276.470,372.000 276.362 C 372.000 276.255,371.925 276.167,371.833 276.167 C 371.742 276.167,371.667 276.060,371.667 275.930 C 371.667 275.800,371.414 275.181,371.106 274.555 C 370.798 273.929,370.319 272.929,370.042 272.333 C 369.766 271.737,369.147 270.425,368.668 269.417 C 367.513 266.985,366.090 263.968,364.541 260.667 C 364.218 259.979,363.702 258.903,363.394 258.275 C 363.086 257.646,362.833 257.028,362.833 256.900 C 362.833 256.771,362.758 256.667,362.667 256.667 C 362.575 256.667,362.500 256.595,362.500 256.506 C 362.500 256.335,361.659 254.485,360.731 252.612 C 360.421 251.986,360.167 251.367,360.167 251.237 C 360.167 251.107,360.104 251.000,360.027 251.000 C 359.950 251.000,359.784 250.689,359.659 250.310 C 359.254 249.084,356.143 248.367,355.145 249.269 C 354.872 249.517,354.827 249.517,354.579 249.269 C 354.363 249.053,353.958 249.002,352.530 249.012 C 350.394 249.027,350.214 249.114,348.983 250.742 C 348.501 251.379,348.012 252.016,347.897 252.158 C 347.705 252.394,346.767 253.559,346.279 254.167 C 346.168 254.304,345.854 254.717,345.581 255.083 C 345.307 255.450,344.877 255.975,344.626 256.250 C 344.374 256.525,344.168 256.801,344.167 256.863 C 344.167 256.925,344.071 257.075,343.955 257.196 C 343.838 257.318,343.258 258.017,342.666 258.750 C 342.073 259.483,341.451 260.233,341.283 260.417 C 341.115 260.600,340.827 260.994,340.642 261.292 C 340.209 261.991,340.196 261.987,339.413 260.977 C 339.049 260.505,338.410 259.699,337.995 259.185 C 337.580 258.671,337.092 258.051,336.912 257.808 C 336.386 257.100,332.231 251.833,331.489 250.935 C 331.254 250.650,330.893 250.173,330.686 249.875 C 330.480 249.577,330.203 249.333,330.072 249.333 C 329.941 249.333,329.833 249.258,329.833 249.167 C 329.833 248.857,326.068 248.956,325.750 249.274 M60.750 252.910 C 61.117 252.971,61.567 253.082,61.750 253.157 C 63.220 253.759,63.690 253.991,64.496 254.517 C 67.029 256.170,68.810 258.677,69.752 261.917 C 69.912 262.467,70.108 263.089,70.188 263.300 C 70.268 263.510,70.333 264.838,70.333 266.250 C 70.333 267.662,70.268 268.990,70.188 269.200 C 70.108 269.411,69.908 270.033,69.742 270.583 C 69.577 271.133,69.379 271.655,69.304 271.742 C 69.228 271.829,69.167 272.073,69.167 272.283 C 69.167 272.494,69.109 272.667,69.040 272.667 C 68.970 272.667,68.838 272.809,68.748 272.984 C 68.657 273.158,68.443 273.572,68.271 273.903 C 68.100 274.234,67.595 274.893,67.150 275.368 C 66.704 275.842,66.320 276.272,66.295 276.324 C 66.099 276.730,63.322 278.500,62.881 278.500 C 62.763 278.500,62.667 278.575,62.667 278.667 C 62.667 278.758,62.494 278.833,62.283 278.833 C 62.072 278.833,61.829 278.901,61.742 278.983 C 61.347 279.356,57.153 279.662,56.339 279.378 C 56.015 279.264,55.468 279.171,55.123 279.169 C 54.778 279.168,54.365 279.100,54.206 279.019 C 54.047 278.938,53.729 278.796,53.500 278.704 C 52.509 278.304,51.167 277.602,51.167 277.484 C 51.167 277.413,51.012 277.307,50.822 277.246 C 50.406 277.114,48.167 274.854,48.167 274.566 C 48.167 274.453,48.110 274.336,48.042 274.306 C 47.788 274.193,47.000 272.830,47.000 272.504 C 47.000 272.318,46.925 272.167,46.833 272.167 C 46.742 272.167,46.667 271.994,46.667 271.783 C 46.667 271.573,46.579 271.313,46.473 271.206 C 45.738 270.472,45.753 262.513,46.491 261.776 C 46.588 261.679,46.667 261.426,46.667 261.214 C 46.667 260.790,46.667 260.789,47.585 259.000 C 48.219 257.764,48.853 256.857,49.672 256.016 C 50.270 255.402,51.308 254.500,51.416 254.500 C 51.466 254.500,51.786 254.327,52.128 254.115 C 52.470 253.903,53.012 253.633,53.333 253.515 C 53.654 253.396,54.067 253.240,54.250 253.167 C 55.349 252.730,58.837 252.592,60.750 252.910 M150.333 252.911 C 151.126 253.025,151.197 253.049,152.713 253.733 C 153.242 253.971,153.717 254.167,153.768 254.167 C 154.495 254.167,157.358 257.008,158.219 258.583 C 158.419 258.950,158.640 259.275,158.708 259.306 C 158.777 259.336,158.833 259.458,158.833 259.576 C 158.833 259.695,159.021 260.216,159.250 260.734 C 159.479 261.252,159.667 261.932,159.667 262.245 C 159.667 262.558,159.742 262.860,159.833 262.917 C 159.933 262.978,160.000 264.054,160.000 265.583 C 160.000 267.113,159.933 268.189,159.833 268.250 C 159.742 268.307,159.667 268.719,159.667 269.167 C 159.667 269.614,159.592 270.027,159.500 270.083 C 159.408 270.140,159.333 270.313,159.332 270.468 C 159.332 270.623,159.219 270.965,159.082 271.227 C 158.945 271.490,158.833 271.846,158.833 272.019 C 158.833 272.192,158.758 272.333,158.667 272.333 C 158.575 272.333,158.500 272.447,158.500 272.587 C 158.500 272.726,158.313 273.137,158.083 273.500 C 157.854 273.863,157.667 274.198,157.667 274.245 C 157.667 274.572,154.571 277.667,154.243 277.667 C 154.110 277.667,154.000 277.734,154.000 277.815 C 154.000 277.897,153.813 278.011,153.583 278.068 C 153.354 278.126,153.167 278.247,153.167 278.337 C 153.167 278.426,153.021 278.500,152.843 278.500 C 152.665 278.500,152.473 278.575,152.417 278.667 C 152.360 278.758,152.146 278.833,151.940 278.833 C 151.735 278.833,151.495 278.901,151.408 278.983 C 150.860 279.501,144.167 279.502,144.167 278.984 C 144.167 278.901,143.942 278.833,143.667 278.833 C 143.392 278.833,143.167 278.758,143.167 278.667 C 143.167 278.575,143.046 278.500,142.897 278.500 C 142.212 278.500,139.550 276.377,138.432 274.938 C 137.661 273.944,136.333 271.427,136.333 270.957 C 136.333 270.834,136.272 270.662,136.196 270.575 C 135.316 269.560,135.350 263.600,136.250 261.083 C 137.668 257.117,142.013 253.014,144.812 252.997 C 145.053 252.996,145.362 252.920,145.500 252.828 C 145.757 252.657,148.940 252.711,150.333 252.911 M212.333 252.912 C 212.746 252.971,213.233 253.082,213.417 253.158 C 213.600 253.235,214.162 253.459,214.667 253.657 C 215.689 254.057,217.586 255.227,218.055 255.746 C 218.222 255.931,218.691 256.434,219.096 256.863 C 219.502 257.292,219.833 257.684,219.833 257.735 C 219.833 257.785,220.096 258.237,220.417 258.739 C 220.737 259.240,221.000 259.762,221.000 259.899 C 221.000 260.035,221.075 260.193,221.167 260.250 C 221.258 260.307,221.333 260.524,221.333 260.732 C 221.333 260.941,221.387 261.165,221.453 261.231 C 222.269 262.047,222.298 268.566,221.492 270.039 C 221.405 270.199,221.333 270.513,221.333 270.738 C 221.333 270.963,221.258 271.193,221.167 271.250 C 221.075 271.307,221.000 271.521,221.000 271.727 C 221.000 271.932,220.931 272.171,220.847 272.258 C 220.762 272.345,220.481 272.829,220.221 273.333 C 219.249 275.218,216.553 278.000,215.699 278.000 C 215.612 278.000,215.447 278.112,215.333 278.250 C 215.219 278.387,214.985 278.500,214.813 278.500 C 214.641 278.500,214.500 278.575,214.500 278.667 C 214.500 278.758,214.275 278.833,214.000 278.833 C 213.725 278.833,213.500 278.901,213.500 278.984 C 213.500 279.208,211.994 279.364,209.833 279.364 C 207.672 279.364,206.167 279.208,206.167 278.984 C 206.167 278.901,206.035 278.835,205.875 278.836 C 205.554 278.839,203.783 277.991,203.694 277.792 C 203.664 277.723,203.539 277.667,203.417 277.667 C 202.980 277.667,200.100 274.581,199.590 273.565 C 199.318 273.025,199.049 272.546,198.992 272.500 C 198.934 272.454,198.749 271.948,198.579 271.375 C 198.409 270.802,198.209 270.333,198.135 270.333 C 198.061 270.333,198.000 270.048,198.000 269.700 C 198.000 269.352,197.916 268.983,197.814 268.881 C 197.555 268.622,197.552 263.215,197.811 262.956 C 197.915 262.852,198.000 262.565,198.000 262.319 C 198.000 262.073,198.112 261.657,198.249 261.394 C 198.386 261.131,198.498 260.790,198.499 260.635 C 198.500 260.480,198.575 260.307,198.667 260.250 C 198.758 260.193,198.833 260.048,198.833 259.927 C 198.833 259.384,200.899 256.490,201.833 255.725 C 201.971 255.613,202.421 255.244,202.833 254.905 C 203.246 254.566,204.071 254.064,204.667 253.788 C 205.262 253.513,205.880 253.223,206.039 253.144 C 206.199 253.065,206.536 252.995,206.789 252.988 C 207.043 252.982,207.400 252.910,207.583 252.828 C 207.933 252.673,211.046 252.728,212.333 252.912 M252.167 252.951 C 254.840 253.397,258.345 255.789,259.649 258.056 C 260.451 259.452,260.762 260.099,260.981 260.833 C 261.104 261.246,261.265 261.771,261.339 262.000 C 261.735 263.236,261.816 265.581,261.537 267.750 C 261.254 269.945,261.147 270.492,260.982 270.595 C 260.900 270.645,260.833 270.863,260.833 271.080 C 260.833 271.480,260.353 272.538,260.125 272.639 C 260.056 272.669,260.000 272.802,260.000 272.934 C 260.000 273.422,258.079 276.053,257.303 276.629 C 257.145 276.745,256.912 276.945,256.785 277.072 C 256.377 277.480,254.691 278.500,254.425 278.500 C 254.283 278.500,254.167 278.575,254.167 278.667 C 254.167 278.758,253.957 278.833,253.700 278.833 C 253.443 278.833,253.162 278.901,253.075 278.983 C 252.988 279.065,252.617 279.171,252.250 279.218 C 251.883 279.265,251.339 279.367,251.040 279.444 C 250.235 279.650,245.833 279.262,245.833 278.984 C 245.833 278.901,245.694 278.833,245.524 278.833 C 245.228 278.833,243.008 277.755,242.834 277.527 C 242.788 277.466,242.375 277.119,241.917 276.754 C 241.458 276.390,240.998 275.978,240.893 275.838 C 240.789 275.698,240.475 275.322,240.196 275.004 C 239.916 274.685,239.521 274.085,239.318 273.670 C 239.114 273.256,238.810 272.718,238.641 272.474 C 238.472 272.231,238.333 271.889,238.333 271.714 C 238.333 271.540,238.223 271.251,238.089 271.074 C 237.954 270.896,237.842 270.586,237.839 270.385 C 237.836 270.184,237.758 269.973,237.667 269.917 C 237.575 269.860,237.500 269.410,237.500 268.917 C 237.500 268.423,237.425 267.973,237.333 267.917 C 237.237 267.857,237.167 266.974,237.167 265.833 C 237.167 264.693,237.237 263.809,237.333 263.750 C 237.425 263.693,237.500 263.313,237.500 262.905 C 237.500 262.496,237.562 262.032,237.638 261.873 C 237.715 261.714,237.902 261.334,238.055 261.028 C 238.208 260.723,238.333 260.369,238.333 260.242 C 238.333 258.732,242.112 254.718,244.501 253.689 C 245.005 253.473,245.547 253.229,245.706 253.148 C 245.865 253.066,246.203 252.999,246.456 252.997 C 246.709 252.996,247.029 252.920,247.167 252.828 C 247.454 252.636,250.768 252.718,252.167 252.951 M305.917 252.957 C 306.930 253.154,307.351 253.302,308.833 253.980 C 311.108 255.021,314.500 258.827,314.500 260.340 C 314.500 260.509,314.575 260.693,314.667 260.750 C 314.758 260.807,314.833 261.021,314.833 261.227 C 314.833 261.432,314.901 261.671,314.985 261.758 C 315.648 262.453,315.353 270.326,314.647 270.762 C 314.566 270.812,314.500 270.997,314.500 271.172 C 314.500 271.591,313.461 273.716,312.882 274.481 C 312.632 274.812,312.349 275.188,312.255 275.316 C 311.248 276.679,308.236 278.833,307.337 278.833 C 307.163 278.833,306.973 278.908,306.917 279.000 C 306.860 279.092,306.485 279.167,306.083 279.167 C 305.682 279.167,305.307 279.242,305.250 279.333 C 305.191 279.429,304.335 279.500,303.250 279.500 C 302.165 279.500,301.309 279.429,301.250 279.333 C 301.193 279.242,300.818 279.167,300.417 279.167 C 300.015 279.167,299.640 279.092,299.583 279.000 C 299.527 278.908,299.297 278.833,299.073 278.833 C 298.850 278.833,298.667 278.758,298.667 278.667 C 298.667 278.575,298.521 278.500,298.343 278.500 C 298.165 278.500,297.975 278.427,297.919 278.338 C 297.864 278.249,297.579 278.060,297.285 277.919 C 295.711 277.165,293.179 274.413,292.720 272.958 C 292.669 272.798,292.562 272.667,292.481 272.667 C 292.400 272.667,292.333 272.553,292.333 272.414 C 292.333 272.276,292.267 272.032,292.187 271.873 C 291.810 271.126,291.500 270.295,291.500 270.028 C 291.500 269.866,291.432 269.662,291.348 269.575 C 290.854 269.060,290.855 262.775,291.349 262.258 C 291.432 262.171,291.500 261.968,291.500 261.806 C 291.500 261.541,291.619 261.219,292.230 259.833 C 292.809 258.520,294.760 255.903,295.500 255.448 C 295.729 255.308,296.083 255.036,296.287 254.844 C 297.037 254.139,299.527 253.003,300.333 252.998 C 300.563 252.996,300.862 252.920,301.000 252.828 C 301.296 252.630,304.698 252.720,305.917 252.957 " stroke="none" fill="#a1a3a5" fill-rule="evenodd"></path></g></svg>