<?xml version="1.0" encoding="UTF-8"?>
<svg xmlns="http://www.w3.org/2000/svg" xmlns:xlink="http://www.w3.org/1999/xlink" width="20px" height="19px" viewBox="0 0 20 19" version="1.1">
<g id="surface1">
<path style=" stroke:none;fill-rule:nonzero;fill:rgb(90.980392%,90.980392%,90.980392%);fill-opacity:1;" d="M -12.5625 35.105469 C -10.007812 31.648438 -12.300781 26.828125 -16.691406 26.429688 C -21.082031 26.027344 -24.277344 30.351562 -22.441406 34.207031 C -20.945312 37.347656 -16.84375 38.40625 -13.910156 36.402344 L -9.039062 41.085938 L -7.691406 39.789062 Z M -12.453125 31.929688 C -12.453125 35.453125 -16.417969 37.65625 -19.59375 35.894531 C -22.765625 34.132812 -22.765625 29.730469 -19.59375 27.96875 C -18.867188 27.566406 -18.046875 27.355469 -17.210938 27.355469 C -14.585938 27.359375 -12.453125 29.40625 -12.453125 31.929688 Z M 16.277344 6.632812 C 15.8125 6.519531 15.3125 6.632812 14.953125 6.941406 C 14.90625 6.726562 14.828125 6.519531 14.714844 6.324219 C 14.597656 6.148438 14.207031 5.796875 13.839844 5.726562 C 13.496094 5.671875 13.140625 5.671875 12.792969 5.734375 C 12.460938 5.8125 12.164062 5.996094 11.953125 6.253906 C 11.929688 6.207031 11.90625 6.160156 11.875 6.113281 C 11.648438 5.792969 11.304688 5.570312 10.910156 5.492188 C 10.5625 5.429688 10.203125 5.449219 9.867188 5.550781 C 9.65625 5.613281 9.46875 5.730469 9.324219 5.890625 C 9.292969 5.71875 9.265625 5.554688 9.238281 5.394531 C 9.101562 4.5625 8.945312 4 8.6875 3.441406 C 8.527344 3.089844 8.226562 2.433594 7.667969 2.160156 C 7.144531 1.90625 6.363281 2.039062 6 2.445312 C 5.679688 2.808594 5.566406 3.464844 5.667969 4.394531 C 5.730469 4.859375 5.824219 5.320312 5.9375 5.777344 L 6.042969 6.195312 C 6.101562 6.449219 6.160156 6.675781 6.242188 6.960938 L 6.289062 7.128906 C 6.367188 7.390625 6.402344 7.511719 6.503906 7.941406 C 6.5625 8.1875 6.613281 8.445312 6.65625 8.695312 C 6.511719 8.523438 6.351562 8.363281 6.179688 8.21875 C 5.726562 7.863281 5.273438 7.539062 4.699219 7.484375 C 3.867188 7.398438 3.105469 7.945312 2.957031 8.734375 C 2.863281 9.109375 2.925781 9.503906 3.132812 9.835938 C 3.296875 10.128906 3.652344 10.550781 3.996094 10.957031 C 4.214844 11.214844 4.421875 11.457031 4.550781 11.636719 C 4.851562 12.0625 5.085938 12.445312 5.277344 12.757812 C 5.417969 13.003906 5.574219 13.242188 5.746094 13.46875 C 5.75 13.476562 5.753906 13.480469 5.761719 13.484375 L 6.582031 14.355469 C 6.714844 14.46875 6.890625 14.628906 7.066406 14.789062 C 7.289062 14.992188 7.511719 15.199219 7.675781 15.332031 C 7.8125 15.441406 7.832031 15.902344 7.769531 16.246094 C 7.730469 16.457031 7.894531 16.648438 8.117188 16.652344 L 8.835938 16.664062 C 9.230469 16.667969 9.632812 16.675781 10 16.675781 C 10.382812 16.683594 10.769531 16.667969 11.148438 16.632812 C 11.65625 16.570312 12.15625 15.863281 12.4375 15.453125 C 12.496094 15.5625 13.039062 16.527344 13.648438 16.621094 C 14.09375 16.6875 14.839844 16.597656 14.917969 16.589844 C 15.132812 16.5625 15.273438 16.359375 15.214844 16.160156 C 15.148438 15.921875 15.113281 15.675781 15.113281 15.425781 C 15.113281 15.324219 15.121094 15.246094 15.121094 15.183594 C 15.125 14.984375 15.152344 14.789062 15.203125 14.597656 C 15.265625 14.300781 15.859375 13.539062 16.277344 13.066406 C 16.5625 12.640625 16.789062 12.179688 16.949219 11.699219 C 17.09375 11.210938 17.175781 10.234375 17.191406 10.035156 C 17.21875 9.6875 17.230469 9.394531 17.230469 8.910156 L 17.230469 8.746094 C 17.230469 8.5 17.230469 8.433594 17.210938 7.921875 C 17.175781 6.96875 16.550781 6.703125 16.277344 6.632812 Z M 16.878906 8.910156 C 16.878906 9.382812 16.867188 9.667969 16.839844 10.007812 C 16.8125 10.375 16.730469 11.199219 16.613281 11.59375 C 16.460938 12.039062 16.253906 12.464844 15.992188 12.859375 C 15.992188 12.859375 14.976562 14 14.859375 14.515625 C 14.789062 14.804688 14.757812 15.101562 14.761719 15.398438 C 14.761719 15.683594 14.800781 15.964844 14.875 16.242188 C 14.875 16.242188 14.113281 16.335938 13.703125 16.273438 C 13.332031 16.214844 12.871094 15.503906 12.753906 15.285156 C 12.640625 15.042969 12.296875 15.007812 12.132812 15.222656 C 12.121094 15.238281 12.113281 15.25 12.105469 15.265625 C 11.890625 15.617188 11.429688 16.242188 11.105469 16.285156 C 10.472656 16.359375 9.152344 16.3125 8.121094 16.300781 C 8.121094 16.300781 8.296875 15.378906 7.90625 15.0625 C 7.613281 14.824219 7.113281 14.34375 6.816406 14.089844 L 6.027344 13.257812 C 5.753906 12.929688 5.429688 12.261719 4.84375 11.445312 C 4.511719 10.984375 3.691406 10.117188 3.449219 9.675781 C 3.234375 9.289062 3.257812 9.113281 3.308594 8.789062 C 3.398438 8.214844 4.011719 7.769531 4.664062 7.828125 C 5.15625 7.875 5.574219 8.1875 5.953125 8.484375 C 6.199219 8.703125 6.421875 8.945312 6.628906 9.203125 C 6.78125 9.382812 6.820312 9.457031 6.984375 9.667969 C 7.203125 9.949219 7.273438 10.089844 7.191406 9.78125 C 7.121094 9.328125 7.011719 8.550781 6.851562 7.867188 C 6.726562 7.347656 6.699219 7.265625 6.585938 6.867188 C 6.457031 6.445312 6.398438 6.144531 6.285156 5.699219 C 6.171875 5.257812 6.085938 4.8125 6.023438 4.363281 C 5.96875 3.863281 5.941406 3.046875 6.277344 2.671875 C 6.539062 2.378906 7.136719 2.289062 7.507812 2.472656 C 7.996094 2.707031 8.269531 3.386719 8.398438 3.660156 C 8.625 4.148438 8.765625 4.710938 8.886719 5.453125 C 9.042969 6.394531 9.332031 7.703125 9.339844 7.980469 C 9.363281 7.640625 9.277344 6.929688 9.339844 6.609375 C 9.40625 6.273438 9.648438 6 9.976562 5.875 C 10.253906 5.792969 10.550781 5.777344 10.839844 5.828125 C 11.132812 5.886719 11.390625 6.050781 11.566406 6.285156 C 11.910156 6.855469 11.917969 8.019531 11.933594 7.957031 C 12.015625 7.613281 12 6.835938 12.203125 6.511719 C 12.359375 6.296875 12.59375 6.140625 12.855469 6.070312 C 13.160156 6.019531 13.46875 6.015625 13.773438 6.066406 C 14.007812 6.109375 14.328125 6.378906 14.414062 6.511719 C 14.621094 6.824219 14.742188 7.714844 14.777344 8.027344 C 14.789062 8.15625 14.847656 7.667969 15.054688 7.351562 C 15.433594 6.769531 16.808594 6.65625 16.859375 7.9375 C 16.882812 8.535156 16.878906 8.507812 16.878906 8.910156 Z M 16.878906 8.910156 "/>
<path style=" stroke:none;fill-rule:nonzero;fill:rgb(90.980392%,90.980392%,90.980392%);fill-opacity:1;" d="M 15.054688 7.351562 C 14.847656 7.667969 14.792969 8.15625 14.777344 8.027344 C 14.742188 7.714844 14.625 6.824219 14.417969 6.511719 C 14.332031 6.378906 14.007812 6.109375 13.773438 6.066406 C 13.46875 6.015625 13.160156 6.019531 12.855469 6.070312 C 12.59375 6.140625 12.363281 6.296875 12.203125 6.511719 C 12 6.835938 12.015625 7.609375 11.933594 7.957031 C 11.917969 8.019531 11.914062 6.859375 11.566406 6.285156 C 11.390625 6.050781 11.132812 5.886719 10.839844 5.828125 C 10.546875 5.777344 10.25 5.792969 9.96875 5.878906 C 9.636719 6 9.398438 6.277344 9.332031 6.609375 C 9.273438 6.933594 9.359375 7.644531 9.332031 7.980469 C 9.320312 7.707031 9.035156 6.394531 8.878906 5.457031 C 8.753906 4.714844 8.613281 4.152344 8.386719 3.664062 C 8.261719 3.390625 7.984375 2.710938 7.5 2.472656 C 7.128906 2.292969 6.527344 2.382812 6.265625 2.675781 C 5.933594 3.050781 5.960938 3.867188 6.011719 4.367188 C 6.078125 4.8125 6.167969 5.257812 6.285156 5.695312 C 6.398438 6.144531 6.460938 6.441406 6.585938 6.863281 C 6.699219 7.261719 6.730469 7.34375 6.851562 7.863281 C 7.011719 8.546875 7.121094 9.328125 7.191406 9.777344 C 7.273438 10.085938 7.203125 9.945312 6.984375 9.664062 C 6.820312 9.453125 6.78125 9.378906 6.628906 9.199219 C 6.421875 8.941406 6.199219 8.703125 5.953125 8.480469 C 5.570312 8.183594 5.15625 7.871094 4.664062 7.824219 C 4.011719 7.765625 3.394531 8.210938 3.308594 8.785156 C 3.257812 9.109375 3.234375 9.285156 3.449219 9.671875 C 3.691406 10.113281 4.511719 10.980469 4.84375 11.441406 C 5.429688 12.257812 5.753906 12.929688 6.027344 13.257812 L 6.816406 14.097656 C 7.113281 14.351562 7.613281 14.828125 7.90625 15.066406 C 8.296875 15.382812 8.121094 16.308594 8.121094 16.308594 C 9.152344 16.316406 10.46875 16.367188 11.105469 16.289062 C 11.429688 16.25 11.890625 15.621094 12.105469 15.273438 C 12.234375 15.035156 12.582031 15.023438 12.726562 15.25 C 12.738281 15.261719 12.746094 15.277344 12.753906 15.292969 C 12.871094 15.511719 13.332031 16.222656 13.703125 16.28125 C 14.113281 16.34375 14.875 16.246094 14.875 16.246094 C 14.800781 15.972656 14.761719 15.691406 14.761719 15.40625 C 14.757812 15.109375 14.789062 14.8125 14.859375 14.523438 C 14.96875 14.007812 15.992188 12.867188 15.992188 12.867188 C 16.253906 12.472656 16.460938 12.046875 16.613281 11.601562 C 16.730469 11.199219 16.8125 10.378906 16.839844 10.015625 C 16.867188 9.671875 16.878906 9.386719 16.878906 8.914062 C 16.878906 8.515625 16.878906 8.539062 16.859375 7.9375 C 16.804688 6.65625 15.441406 6.769531 15.054688 7.351562 Z M 16.523438 8.746094 L 16.523438 8.90625 C 16.523438 9.371094 16.511719 9.648438 16.484375 9.980469 C 16.453125 10.496094 16.382812 11.003906 16.269531 11.503906 C 16.132812 11.902344 15.949219 12.285156 15.71875 12.640625 C 15.539062 12.84375 14.632812 13.878906 14.507812 14.453125 C 14.449219 14.683594 14.417969 14.921875 14.414062 15.164062 L 14.40625 15.386719 C 14.398438 15.574219 14.410156 15.757812 14.445312 15.945312 C 14.21875 15.964844 13.988281 15.964844 13.761719 15.945312 C 13.621094 15.914062 13.265625 15.496094 13.070312 15.136719 C 12.953125 14.90625 12.714844 14.753906 12.449219 14.746094 C 12.183594 14.75 11.9375 14.882812 11.796875 15.097656 C 11.515625 15.558594 11.179688 15.917969 11.0625 15.953125 C 10.59375 16.007812 9.707031 15.996094 8.851562 15.980469 L 8.515625 15.980469 C 8.53125 15.613281 8.480469 15.09375 8.136719 14.8125 C 7.980469 14.691406 7.765625 14.492188 7.558594 14.300781 C 7.375 14.132812 7.191406 13.964844 7.082031 13.875 L 6.296875 13.042969 C 6.152344 12.84375 6.015625 12.632812 5.890625 12.421875 C 5.695312 12.09375 5.453125 11.695312 5.136719 11.253906 C 5 11.0625 4.78125 10.804688 4.550781 10.53125 C 4.261719 10.214844 4 9.875 3.765625 9.519531 C 3.601562 9.222656 3.617188 9.136719 3.660156 8.84375 C 3.722656 8.445312 4.179688 8.132812 4.632812 8.171875 C 5.011719 8.207031 5.347656 8.457031 5.726562 8.75 C 5.921875 8.925781 6.105469 9.113281 6.269531 9.3125 L 6.359375 9.421875 C 6.445312 9.519531 6.488281 9.582031 6.546875 9.664062 L 6.8125 10.015625 C 6.917969 10.15625 7.097656 10.394531 7.378906 10.261719 C 7.660156 10.128906 7.582031 9.84375 7.550781 9.726562 L 7.535156 9.636719 C 7.464844 9.164062 7.359375 8.441406 7.207031 7.789062 C 7.101562 7.339844 7.0625 7.210938 6.984375 6.933594 L 6.933594 6.769531 C 6.855469 6.496094 6.800781 6.28125 6.742188 6.035156 L 6.636719 5.613281 C 6.53125 5.1875 6.445312 4.757812 6.382812 4.324219 C 6.308594 3.628906 6.371094 3.09375 6.550781 2.890625 C 6.699219 2.722656 7.121094 2.660156 7.351562 2.769531 C 7.6875 2.929688 7.925781 3.460938 8.078125 3.792969 C 8.273438 4.214844 8.414062 4.726562 8.542969 5.5 C 8.609375 5.914062 8.707031 6.402344 8.796875 6.84375 C 8.886719 7.316406 8.992188 7.855469 8.996094 7.984375 C 9.003906 8.167969 9.15625 8.3125 9.347656 8.316406 C 9.5 8.339844 9.695312 8.175781 9.707031 7.996094 C 9.71875 7.84375 9.707031 7.628906 9.699219 7.394531 C 9.675781 7.152344 9.675781 6.90625 9.699219 6.664062 C 9.742188 6.460938 9.882812 6.289062 10.078125 6.203125 C 10.304688 6.136719 10.542969 6.121094 10.777344 6.160156 C 10.972656 6.199219 11.144531 6.304688 11.269531 6.453125 C 11.425781 6.710938 11.523438 7.191406 11.578125 7.886719 C 11.582031 7.980469 11.601562 8.277344 11.914062 8.300781 C 12.09375 8.3125 12.253906 8.199219 12.296875 8.03125 C 12.328125 7.859375 12.355469 7.683594 12.367188 7.507812 C 12.394531 7.234375 12.433594 6.828125 12.523438 6.683594 C 12.628906 6.554688 12.773438 6.457031 12.933594 6.40625 C 13.191406 6.359375 13.457031 6.355469 13.71875 6.398438 C 13.878906 6.460938 14.019531 6.5625 14.132812 6.691406 C 14.242188 6.855469 14.363281 7.40625 14.4375 8.058594 C 14.457031 8.230469 14.59375 8.367188 14.773438 8.386719 C 15.082031 8.40625 15.152344 8.128906 15.179688 8.019531 C 15.21875 7.847656 15.285156 7.683594 15.371094 7.53125 C 15.546875 7.316406 15.832031 7.222656 16.109375 7.289062 C 16.429688 7.371094 16.507812 7.6875 16.519531 7.941406 C 16.523438 8.445312 16.523438 8.5 16.523438 8.746094 Z M 16.523438 8.746094 "/>
<path style=" stroke:none;fill-rule:nonzero;fill:rgb(90.980392%,90.980392%,90.980392%);fill-opacity:1;" d="M 13.855469 10.074219 C 13.660156 10.074219 13.5 10.230469 13.5 10.417969 L 13.5 13.582031 C 13.5 13.84375 13.796875 14.007812 14.035156 13.878906 C 14.144531 13.816406 14.210938 13.703125 14.210938 13.582031 L 14.210938 10.417969 C 14.210938 10.230469 14.054688 10.074219 13.855469 10.074219 Z M 11.925781 10.074219 C 11.726562 10.074219 11.566406 10.230469 11.570312 10.417969 L 11.582031 13.589844 C 11.582031 13.855469 11.882812 14.019531 12.117188 13.890625 C 12.230469 13.828125 12.296875 13.714844 12.296875 13.589844 L 12.28125 10.417969 C 12.285156 10.226562 12.121094 10.074219 11.925781 10.074219 Z M 10.039062 10.101562 C 9.84375 10.101562 9.683594 10.257812 9.683594 10.445312 L 9.707031 13.578125 C 9.707031 13.769531 9.867188 13.921875 10.0625 13.921875 C 10.257812 13.917969 10.417969 13.765625 10.417969 13.574219 L 10.394531 10.441406 C 10.394531 10.253906 10.238281 10.101562 10.039062 10.101562 Z M 10.039062 10.101562 "/>
</g>
</svg>
