<?xml version="1.0" encoding="utf-8"?>
<svg width="40px" height="38px" viewBox="0 0 40 38" version="1.1" xmlns="http://www.w3.org/2000/svg" xmlns:bx="https://boxy-svg.com">
  <g id="surface1">
    <path d="M 11.53 18.318 L 12.183 18.394 L 12.796 18.617 L 13.328 18.973 L 13.748 19.439 L 14.028 19.987 L 14.152 20.581 L 14.11 21.186 L 13.907 21.761 L 13.554 22.272 L 13.074 22.687 L 12.497 22.978 L 11.859 23.129 L 11.201 23.129 L 10.563 22.978 L 9.986 22.687 L 9.506 22.272 L 9.153 21.761 L 8.95 21.186 L 8.908 20.581 L 9.032 19.987 L 9.312 19.439 L 9.732 18.973 L 10.264 18.617 L 10.877 18.394 Z" bx:shape="n-gon 11.53 20.733 2.627 2.415 25 0 1@0345153f"/>
    <path d="M 9.83 18.472 L 10.045 18.501 L 10.247 18.587 L 10.423 18.724 L 10.561 18.903 L 10.654 19.114 L 10.694 19.343 L 10.681 19.575 L 10.614 19.797 L 10.497 19.993 L 10.339 20.153 L 10.149 20.265 L 9.939 20.323 L 9.721 20.323 L 9.511 20.265 L 9.321 20.153 L 9.163 19.993 L 9.046 19.797 L 8.979 19.575 L 8.966 19.343 L 9.006 19.114 L 9.099 18.903 L 9.237 18.724 L 9.413 18.587 L 9.615 18.501 Z" bx:shape="n-gon 9.83 19.401 0.866 0.929 25 0 1@ccbfd3c1"/>
    <path d="M 9.809 16.784 L 10.385 16.852 L 10.924 17.054 L 11.394 17.375 L 11.764 17.796 L 12.011 18.29 L 12.119 18.827 L 12.083 19.372 L 11.904 19.892 L 11.593 20.354 L 11.17 20.728 L 10.661 20.991 L 10.099 21.127 L 9.519 21.127 L 8.957 20.991 L 8.448 20.728 L 8.025 20.354 L 7.714 19.892 L 7.535 19.372 L 7.499 18.827 L 7.607 18.29 L 7.854 17.796 L 8.224 17.375 L 8.694 17.054 L 9.233 16.852 Z" bx:shape="n-gon 9.809 18.964 2.315 2.18 25 0 1@9c032694"/>
    <path d="M 10.303 16.838 L 10.909 16.902 L 11.477 17.089 L 11.971 17.389 L 12.361 17.782 L 12.621 18.243 L 12.735 18.743 L 12.697 19.252 L 12.508 19.737 L 12.181 20.167 L 11.735 20.516 L 11.2 20.761 L 10.608 20.888 L 9.998 20.888 L 9.406 20.761 L 8.871 20.516 L 8.425 20.167 L 8.098 19.737 L 7.909 19.252 L 7.871 18.743 L 7.985 18.243 L 8.245 17.782 L 8.635 17.389 L 9.129 17.089 L 9.697 16.902 Z" bx:shape="n-gon 10.303 18.871 2.437 2.033 25 0 1@86cb633e"/>
    <path d="M 17.548 20.964 L 18.544 21.088 L 19.477 21.452 L 20.29 22.034 L 20.93 22.796 L 21.357 23.691 L 21.545 24.663 L 21.482 25.651 L 21.172 26.592 L 20.634 27.427 L 19.902 28.104 L 19.022 28.581 L 18.05 28.827 L 17.046 28.827 L 16.074 28.581 L 15.194 28.104 L 14.462 27.427 L 13.924 26.592 L 13.614 25.651 L 13.551 24.663 L 13.739 23.691 L 14.166 22.796 L 14.806 22.034 L 15.619 21.452 L 16.552 21.088 Z" bx:shape="n-gon 17.548 24.911 4.005 3.947 25 0 1@940cf19b"/>
    <path d="M 8.414 16.426 L 8.708 16.48 L 8.984 16.638 L 9.225 16.891 L 9.414 17.223 L 9.54 17.612 L 9.596 18.034 L 9.577 18.464 L 9.485 18.873 L 9.326 19.236 L 9.11 19.53 L 8.85 19.737 L 8.562 19.844 L 8.266 19.844 L 7.978 19.737 L 7.718 19.53 L 7.502 19.236 L 7.343 18.873 L 7.251 18.464 L 7.232 18.034 L 7.288 17.612 L 7.414 17.223 L 7.603 16.891 L 7.844 16.638 L 8.12 16.48 Z" bx:shape="n-gon 8.414 18.142 1.184 1.716 25 0 1@6e4f4793"/>
    <path d="M 10.053 16.241 L 10.38 16.276 L 10.687 16.379 L 10.954 16.543 L 11.164 16.758 L 11.305 17.01 L 11.366 17.284 L 11.346 17.563 L 11.244 17.828 L 11.067 18.063 L 10.827 18.254 L 10.537 18.389 L 10.218 18.458 L 9.888 18.458 L 9.569 18.389 L 9.279 18.254 L 9.039 18.063 L 8.862 17.828 L 8.76 17.563 L 8.74 17.284 L 8.801 17.01 L 8.942 16.758 L 9.152 16.543 L 9.419 16.379 L 9.726 16.276 Z" bx:shape="n-gon 10.053 17.354 1.316 1.113 25 0 1@502f56e0"/>
    <path d="M 9.11 16.056 L 9.265 16.083 L 9.41 16.162 L 9.536 16.288 L 9.635 16.454 L 9.702 16.648 L 9.731 16.859 L 9.721 17.074 L 9.673 17.278 L 9.589 17.459 L 9.476 17.606 L 9.339 17.71 L 9.188 17.763 L 9.032 17.763 L 8.881 17.71 L 8.744 17.606 L 8.631 17.459 L 8.547 17.278 L 8.499 17.074 L 8.489 16.859 L 8.518 16.648 L 8.585 16.454 L 8.684 16.288 L 8.81 16.162 L 8.955 16.083 Z" bx:shape="n-gon 9.11 16.913 0.622 0.857 25 0 1@56c02750"/>
    <path d="M 8.761 16.166 L 8.907 16.183 L 9.044 16.232 L 9.163 16.311 L 9.257 16.414 L 9.319 16.536 L 9.347 16.667 L 9.338 16.801 L 9.292 16.929 L 9.213 17.042 L 9.106 17.134 L 8.977 17.198 L 8.835 17.232 L 8.687 17.232 L 8.545 17.198 L 8.416 17.134 L 8.309 17.042 L 8.23 16.929 L 8.184 16.801 L 8.175 16.667 L 8.203 16.536 L 8.265 16.414 L 8.359 16.311 L 8.478 16.232 L 8.615 16.183 Z" bx:shape="n-gon 8.761 16.701 0.587 0.535 25 0 1@1f0d8826"/>
    <path d="M 14.962 5.541 L 15.363 5.654 L 15.739 5.985 L 16.066 6.513 L 16.324 7.206 L 16.496 8.02 L 16.572 8.903 L 16.546 9.8 L 16.421 10.655 L 16.205 11.414 L 15.91 12.03 L 15.556 12.463 L 15.164 12.687 L 14.76 12.687 L 14.368 12.463 L 14.014 12.03 L 13.719 11.414 L 13.503 10.655 L 13.378 9.8 L 13.352 8.903 L 13.428 8.02 L 13.6 7.206 L 13.858 6.513 L 14.185 5.985 L 14.561 5.654 Z" bx:shape="n-gon 14.962 9.128 1.613 3.587 25 0 1@c20fdaef"/>
    <path d="M 14.177 5.423 L 14.523 5.462 L 14.847 5.576 L 15.129 5.757 L 15.351 5.996 L 15.499 6.276 L 15.564 6.58 L 15.542 6.888 L 15.435 7.182 L 15.248 7.444 L 14.994 7.655 L 14.689 7.804 L 14.351 7.881 L 14.003 7.881 L 13.665 7.804 L 13.36 7.655 L 13.106 7.444 L 12.919 7.182 L 12.812 6.888 L 12.79 6.58 L 12.855 6.276 L 13.003 5.996 L 13.225 5.757 L 13.507 5.576 L 13.831 5.462 Z" bx:shape="n-gon 14.177 6.657 1.39 1.234 25 0 1@36a0decd"/>
    <path d="M 14.277 5.245 L 14.565 5.274 L 14.834 5.359 L 15.069 5.494 L 15.254 5.672 L 15.377 5.88 L 15.432 6.106 L 15.414 6.336 L 15.324 6.555 L 15.168 6.75 L 14.957 6.907 L 14.703 7.018 L 14.422 7.076 L 14.132 7.076 L 13.851 7.018 L 13.597 6.907 L 13.386 6.75 L 13.23 6.555 L 13.14 6.336 L 13.122 6.106 L 13.177 5.88 L 13.3 5.672 L 13.485 5.494 L 13.72 5.359 L 13.989 5.274 Z" bx:shape="n-gon 14.277 6.164 1.157 0.919 25 0 1@790ff12c"/>
    <path d="M 14.158 5.688 L 14.517 5.808 L 14.854 6.162 L 15.146 6.727 L 15.377 7.468 L 15.531 8.337 L 15.599 9.281 L 15.576 10.24 L 15.465 11.154 L 15.271 11.966 L 15.007 12.624 L 14.69 13.087 L 14.339 13.326 L 13.977 13.326 L 13.626 13.087 L 13.309 12.624 L 13.045 11.966 L 12.851 11.154 L 12.74 10.24 L 12.717 9.281 L 12.785 8.337 L 12.939 7.468 L 13.17 6.727 L 13.462 6.162 L 13.799 5.808 Z" bx:shape="n-gon 14.158 9.522 1.444 3.834 25 0 1@11f8afbf"/>
    <path d="M 24.795 17.652 L 26.745 17.808 L 28.573 18.267 L 30.164 19 L 31.417 19.961 L 32.254 21.089 L 32.623 22.314 L 32.499 23.558 L 31.892 24.744 L 30.838 25.797 L 29.405 26.65 L 27.682 27.251 L 25.778 27.561 L 23.812 27.561 L 21.908 27.251 L 20.185 26.65 L 18.752 25.797 L 17.698 24.744 L 17.091 23.558 L 16.967 22.314 L 17.336 21.089 L 18.173 19.961 L 19.426 19 L 21.017 18.267 L 22.845 17.808 Z" bx:shape="n-gon 24.795 22.626 7.843 4.974 25 0 1@60a35c03"/>
    <path d="M 23.258 23.977 L 24.319 24.065 L 25.313 24.325 L 26.178 24.739 L 26.859 25.282 L 27.314 25.92 L 27.515 26.612 L 27.447 27.316 L 27.117 27.986 L 26.544 28.581 L 25.765 29.064 L 24.828 29.404 L 23.793 29.579 L 22.723 29.579 L 21.688 29.404 L 20.751 29.064 L 19.972 28.581 L 19.399 27.986 L 19.069 27.316 L 19.001 26.612 L 19.202 25.92 L 19.657 25.282 L 20.338 24.739 L 21.203 24.325 L 22.197 24.065 Z" bx:shape="n-gon 23.258 26.789 4.265 2.812 25 0 1@4ad91dbe"/>
    <path d="M 18.058 27.736 L 18.438 27.803 L 18.795 27.999 L 19.105 28.312 L 19.349 28.722 L 19.512 29.204 L 19.584 29.727 L 19.56 30.258 L 19.441 30.764 L 19.236 31.214 L 18.957 31.578 L 18.621 31.835 L 18.25 31.967 L 17.866 31.967 L 17.495 31.835 L 17.159 31.578 L 16.88 31.214 L 16.675 30.764 L 16.556 30.258 L 16.532 29.727 L 16.604 29.204 L 16.767 28.722 L 17.011 28.312 L 17.321 27.999 L 17.678 27.803 Z" bx:shape="n-gon 18.058 29.86 1.529 2.124 25 0 1@9c467440"/>
    <path d="M 21.052 28.352 L 21.593 28.413 L 22.099 28.592 L 22.54 28.878 L 22.888 29.253 L 23.12 29.693 L 23.222 30.171 L 23.187 30.657 L 23.019 31.119 L 22.727 31.53 L 22.33 31.863 L 21.852 32.098 L 21.324 32.219 L 20.78 32.219 L 20.252 32.098 L 19.774 31.863 L 19.377 31.53 L 19.085 31.119 L 18.917 30.657 L 18.882 30.171 L 18.984 29.693 L 19.216 29.253 L 19.564 28.878 L 20.005 28.592 L 20.511 28.413 Z" bx:shape="n-gon 21.052 30.293 2.174 1.941 25 0 1@187f74eb"/>
    <path d="M 27.041 13.31 L 27.516 13.39 L 27.96 13.624 L 28.347 13.999 L 28.652 14.49 L 28.856 15.066 L 28.945 15.692 L 28.915 16.328 L 28.767 16.934 L 28.511 17.472 L 28.162 17.909 L 27.743 18.215 L 27.28 18.374 L 26.802 18.374 L 26.339 18.215 L 25.92 17.909 L 25.571 17.472 L 25.315 16.934 L 25.167 16.328 L 25.137 15.692 L 25.226 15.066 L 25.43 14.49 L 25.735 13.999 L 26.122 13.624 L 26.566 13.39 Z" bx:shape="n-gon 27.041 15.852 1.908 2.542 25 0 1@65eeb153"/>
    <path d="M 32.002 14.64 L 32.277 14.688 L 32.534 14.827 L 32.758 15.05 L 32.935 15.343 L 33.053 15.686 L 33.105 16.059 L 33.087 16.438 L 33.002 16.799 L 32.853 17.119 L 32.652 17.379 L 32.409 17.562 L 32.14 17.656 L 31.864 17.656 L 31.595 17.562 L 31.352 17.379 L 31.151 17.119 L 31.002 16.799 L 30.917 16.438 L 30.899 16.059 L 30.951 15.686 L 31.069 15.343 L 31.246 15.05 L 31.47 14.827 L 31.727 14.688 Z" bx:shape="n-gon 32.002 16.154 1.105 1.514 25 0 1@eb663098"/>
    <path d="M 21.431 12.293 L 21.838 12.344 L 22.22 12.494 L 22.552 12.733 L 22.813 13.046 L 22.988 13.414 L 23.065 13.813 L 23.039 14.219 L 22.912 14.606 L 22.692 14.949 L 22.393 15.227 L 22.034 15.423 L 21.636 15.524 L 21.226 15.524 L 20.828 15.423 L 20.469 15.227 L 20.17 14.949 L 19.95 14.606 L 19.823 14.219 L 19.797 13.813 L 19.874 13.414 L 20.049 13.046 L 20.31 12.733 L 20.642 12.494 L 21.024 12.344 Z" bx:shape="n-gon 21.431 13.915 1.637 1.622 25 0 1@529584de"/>
    <path d="M 14.728 5.642 L 15.236 5.774 L 15.713 6.161 L 16.127 6.779 L 16.454 7.59 L 16.672 8.541 L 16.768 9.575 L 16.736 10.624 L 16.577 11.625 L 16.303 12.513 L 15.929 13.233 L 15.48 13.739 L 14.984 14.001 L 14.472 14.001 L 13.976 13.739 L 13.527 13.233 L 13.153 12.513 L 12.879 11.625 L 12.72 10.624 L 12.688 9.575 L 12.784 8.541 L 13.002 7.59 L 13.329 6.779 L 13.743 6.161 L 14.22 5.774 Z" bx:shape="n-gon 14.728 9.838 2.044 4.196 25 0 1@23e23d90"/>
    <path d="M 14.844 13.206 L 15.215 13.234 L 15.563 13.315 L 15.866 13.445 L 16.105 13.614 L 16.264 13.814 L 16.334 14.031 L 16.311 14.251 L 16.195 14.461 L 15.994 14.647 L 15.722 14.798 L 15.394 14.904 L 15.031 14.959 L 14.657 14.959 L 14.294 14.904 L 13.966 14.798 L 13.694 14.647 L 13.493 14.461 L 13.377 14.251 L 13.354 14.031 L 13.424 13.814 L 13.583 13.614 L 13.822 13.445 L 14.125 13.315 L 14.473 13.234 Z" bx:shape="n-gon 14.844 14.086 1.493 0.88 25 0 1@e30fe676"/>
    <path d="M 16.383 10.951 L 16.724 11.075 L 17.043 11.44 L 17.322 12.023 L 17.541 12.788 L 17.687 13.685 L 17.751 14.66 L 17.73 15.649 L 17.624 16.593 L 17.439 17.43 L 17.189 18.109 L 16.888 18.587 L 16.555 18.834 L 16.211 18.834 L 15.878 18.587 L 15.577 18.109 L 15.327 17.43 L 15.142 16.593 L 15.036 15.649 L 15.015 14.66 L 15.079 13.685 L 15.225 12.788 L 15.444 12.023 L 15.723 11.44 L 16.042 11.075 Z" bx:shape="n-gon 16.383 14.908 1.371 3.957 25 0 1@a810edb4"/>
    <path d="M 16.617 9.171 L 16.83 9.236 L 17.03 9.426 L 17.204 9.73 L 17.341 10.128 L 17.432 10.595 L 17.472 11.103 L 17.459 11.618 L 17.392 12.11 L 17.277 12.546 L 17.121 12.899 L 16.932 13.148 L 16.724 13.277 L 16.51 13.277 L 16.302 13.148 L 16.113 12.899 L 15.957 12.546 L 15.842 12.11 L 15.775 11.618 L 15.762 11.103 L 15.802 10.595 L 15.893 10.128 L 16.03 9.73 L 16.204 9.426 L 16.404 9.236 Z" bx:shape="n-gon 16.617 11.232 0.857 2.061 25 0 1@7785ebbc"/>
    <path d="M 13.411 5.576 L 13.681 5.643 L 13.935 5.838 L 14.155 6.151 L 14.329 6.56 L 14.445 7.041 L 14.496 7.563 L 14.479 8.093 L 14.395 8.599 L 14.249 9.047 L 14.05 9.411 L 13.811 9.667 L 13.547 9.799 L 13.275 9.799 L 13.011 9.667 L 12.772 9.411 L 12.573 9.047 L 12.427 8.599 L 12.343 8.093 L 12.326 7.563 L 12.377 7.041 L 12.493 6.56 L 12.667 6.151 L 12.887 5.838 L 13.141 5.643 Z" bx:shape="n-gon 13.411 7.696 1.087 2.12 25 0 1@bf188b9f"/>
    <path d="M 13.831 5.134 L 14.03 5.166 L 14.217 5.259 L 14.379 5.409 L 14.507 5.604 L 14.593 5.834 L 14.63 6.083 L 14.618 6.337 L 14.556 6.578 L 14.448 6.793 L 14.302 6.967 L 14.126 7.089 L 13.931 7.152 L 13.731 7.152 L 13.536 7.089 L 13.36 6.967 L 13.214 6.793 L 13.106 6.578 L 13.044 6.337 L 13.032 6.083 L 13.069 5.834 L 13.155 5.604 L 13.283 5.409 L 13.445 5.259 L 13.632 5.166 Z" bx:shape="n-gon 13.831 6.147 0.801 1.013 25 0 1@9f2735b8"/>
    <path d="M 17.238 13.442 L 17.465 13.502 L 17.677 13.679 L 17.862 13.962 L 18.008 14.332 L 18.105 14.767 L 18.148 15.24 L 18.134 15.719 L 18.063 16.177 L 17.941 16.583 L 17.774 16.912 L 17.574 17.143 L 17.352 17.263 L 17.124 17.263 L 16.902 17.143 L 16.702 16.912 L 16.535 16.583 L 16.413 16.177 L 16.342 15.719 L 16.328 15.24 L 16.371 14.767 L 16.468 14.332 L 16.614 13.962 L 16.799 13.679 L 17.011 13.502 Z" bx:shape="n-gon 17.238 15.36 0.912 1.918 25 0 1@d3334373"/>
    <path d="M 14.758 13.484 L 15.029 13.524 L 15.284 13.641 L 15.505 13.827 L 15.679 14.072 L 15.796 14.359 L 15.847 14.671 L 15.83 14.987 L 15.745 15.289 L 15.599 15.557 L 15.399 15.774 L 15.16 15.927 L 14.895 16.006 L 14.621 16.006 L 14.356 15.927 L 14.117 15.774 L 13.917 15.557 L 13.771 15.289 L 13.686 14.987 L 13.669 14.671 L 13.72 14.359 L 13.837 14.072 L 14.011 13.827 L 14.232 13.641 L 14.487 13.524 Z" bx:shape="n-gon 14.758 14.75 1.091 1.266 25 0 1@e3797996"/>
    <path d="M 15.02 20.688 L 15.641 20.735 L 16.224 20.875 L 16.731 21.097 L 17.13 21.389 L 17.397 21.731 L 17.514 22.103 L 17.475 22.481 L 17.281 22.841 L 16.946 23.161 L 16.489 23.42 L 15.94 23.602 L 15.333 23.696 L 14.707 23.696 L 14.1 23.602 L 13.551 23.42 L 13.094 23.161 L 12.759 22.841 L 12.565 22.481 L 12.526 22.103 L 12.643 21.731 L 12.91 21.389 L 13.309 21.097 L 13.816 20.875 L 14.399 20.735 Z" bx:shape="n-gon 15.02 22.198 2.499 1.51 25 0 1@f7c78edd"/>
    <path d="M 12.179 21.863 L 12.623 21.909 L 13.039 22.044 L 13.402 22.261 L 13.687 22.544 L 13.878 22.877 L 13.961 23.238 L 13.933 23.605 L 13.795 23.955 L 13.555 24.265 L 13.229 24.517 L 12.836 24.694 L 12.403 24.785 L 11.955 24.785 L 11.522 24.694 L 11.129 24.517 L 10.803 24.265 L 10.563 23.955 L 10.425 23.605 L 10.397 23.238 L 10.48 22.877 L 10.671 22.544 L 10.956 22.261 L 11.319 22.044 L 11.735 21.909 Z" bx:shape="n-gon 12.179 23.33 1.786 1.467 25 0 1@832c67af"/>
    <path d="M 17.651 15.496 L 17.961 15.604 L 18.251 15.922 L 18.504 16.429 L 18.703 17.094 L 18.836 17.875 L 18.895 18.723 L 18.875 19.584 L 18.778 20.405 L 18.611 21.134 L 18.383 21.724 L 18.11 22.14 L 17.807 22.355 L 17.495 22.355 L 17.192 22.14 L 16.919 21.724 L 16.691 21.134 L 16.524 20.405 L 16.427 19.584 L 16.407 18.723 L 16.466 17.875 L 16.599 17.094 L 16.798 16.429 L 17.051 15.922 L 17.341 15.604 Z" bx:shape="n-gon 17.651 18.939 1.246 3.443 25 0 1@6711879a"/>
    <path d="M 21.963 27.395 L 21.975 27.424 L 21.987 27.51 L 21.997 27.648 L 22.005 27.828 L 22.011 28.039 L 22.013 28.268 L 22.012 28.502 L 22.008 28.724 L 22.002 28.921 L 21.992 29.081 L 21.981 29.194 L 21.969 29.252 L 21.957 29.252 L 21.945 29.194 L 21.934 29.081 L 21.924 28.921 L 21.918 28.724 L 21.914 28.502 L 21.913 28.268 L 21.915 28.039 L 21.921 27.828 L 21.929 27.648 L 21.939 27.51 L 21.951 27.424 Z" bx:shape="n-gon 21.963 28.327 0.05 0.932 25 0 1@91137b87"/>
    <path d="M 18.913 25.981 L 19.377 26.049 L 19.812 26.25 L 20.191 26.57 L 20.489 26.99 L 20.689 27.483 L 20.776 28.018 L 20.747 28.561 L 20.602 29.079 L 20.352 29.539 L 20.01 29.912 L 19.6 30.174 L 19.147 30.31 L 18.679 30.31 L 18.226 30.174 L 17.816 29.912 L 17.474 29.539 L 17.224 29.079 L 17.079 28.561 L 17.05 28.018 L 17.137 27.483 L 17.337 26.99 L 17.635 26.57 L 18.014 26.25 L 18.449 26.049 Z" bx:shape="n-gon 18.913 28.154 1.867 2.173 25 0 1@4895905d"/>
    <path d="M 13.239 23.706 L 13.535 23.756 L 13.812 23.902 L 14.053 24.136 L 14.243 24.443 L 14.37 24.803 L 14.426 25.194 L 14.407 25.592 L 14.315 25.97 L 14.155 26.306 L 13.938 26.579 L 13.677 26.77 L 13.388 26.869 L 13.09 26.869 L 12.801 26.77 L 12.54 26.579 L 12.323 26.306 L 12.163 25.97 L 12.071 25.592 L 12.052 25.194 L 12.108 24.803 L 12.235 24.443 L 12.425 24.136 L 12.666 23.902 L 12.943 23.756 Z" bx:shape="n-gon 13.239 25.294 1.189 1.588 25 0 1@4d94b108"/>
    <path d="M 13.967 25.702 L 14.307 25.729 L 14.625 25.808 L 14.902 25.935 L 15.12 26.101 L 15.266 26.296 L 15.33 26.507 L 15.309 26.722 L 15.203 26.927 L 15.02 27.109 L 14.77 27.256 L 14.47 27.36 L 14.138 27.413 L 13.796 27.413 L 13.464 27.36 L 13.164 27.256 L 12.914 27.109 L 12.731 26.927 L 12.625 26.722 L 12.604 26.507 L 12.668 26.296 L 12.814 26.101 L 13.032 25.935 L 13.309 25.808 L 13.627 25.729 Z" bx:shape="n-gon 13.967 26.561 1.366 0.859 25 0 1@deb2c865"/>
    <path d="M 12.101 23.635 L 12.232 23.66 L 12.354 23.735 L 12.46 23.855 L 12.544 24.011 L 12.6 24.195 L 12.625 24.395 L 12.617 24.598 L 12.576 24.791 L 12.506 24.963 L 12.41 25.102 L 12.294 25.2 L 12.167 25.251 L 12.035 25.251 L 11.908 25.2 L 11.792 25.102 L 11.696 24.963 L 11.626 24.791 L 11.585 24.598 L 11.577 24.395 L 11.602 24.195 L 11.658 24.011 L 11.742 23.855 L 11.848 23.735 L 11.97 23.66 Z" bx:shape="n-gon 12.101 24.446 0.525 0.811 25 0 1@aa297211"/>
    <path d="M 12.23 23.938 L 12.353 23.965 L 12.468 24.044 L 12.568 24.171 L 12.647 24.337 L 12.7 24.532 L 12.723 24.744 L 12.715 24.959 L 12.677 25.164 L 12.611 25.346 L 12.52 25.494 L 12.412 25.598 L 12.292 25.651 L 12.168 25.651 L 12.048 25.598 L 11.94 25.494 L 11.849 25.346 L 11.783 25.164 L 11.745 24.959 L 11.737 24.744 L 11.76 24.532 L 11.813 24.337 L 11.892 24.171 L 11.992 24.044 L 12.107 23.965 Z" bx:shape="n-gon 12.23 24.798 0.494 0.86 25 0 1@cddc6a15"/>
    <path d="M 15.038 25.95 L 15.383 25.985 L 15.706 26.089 L 15.987 26.255 L 16.208 26.473 L 16.356 26.729 L 16.421 27.006 L 16.399 27.288 L 16.292 27.557 L 16.106 27.795 L 15.853 27.989 L 15.548 28.125 L 15.212 28.195 L 14.864 28.195 L 14.528 28.125 L 14.223 27.989 L 13.97 27.795 L 13.784 27.557 L 13.677 27.288 L 13.655 27.006 L 13.72 26.729 L 13.868 26.473 L 14.089 26.255 L 14.37 26.089 L 14.693 25.985 Z" bx:shape="n-gon 15.038 27.077 1.386 1.127 25 0 1@12595763"/>
    <path d="M 15.349 26.986 L 15.647 27.013 L 15.927 27.092 L 16.17 27.218 L 16.361 27.384 L 16.489 27.578 L 16.546 27.789 L 16.527 28.004 L 16.434 28.208 L 16.273 28.389 L 16.054 28.536 L 15.79 28.64 L 15.499 28.693 L 15.199 28.693 L 14.908 28.64 L 14.644 28.536 L 14.425 28.389 L 14.264 28.208 L 14.171 28.004 L 14.152 27.789 L 14.209 27.578 L 14.337 27.384 L 14.528 27.218 L 14.771 27.092 L 15.051 27.013 Z" bx:shape="n-gon 15.349 27.843 1.199 0.857 25 0 1@75cf9b62"/>
    <path d="M 16.334 27.699 L 16.805 27.721 L 17.245 27.785 L 17.629 27.888 L 17.931 28.022 L 18.133 28.18 L 18.222 28.351 L 18.192 28.525 L 18.046 28.691 L 17.792 28.839 L 17.446 28.958 L 17.03 29.042 L 16.571 29.086 L 16.097 29.086 L 15.638 29.042 L 15.222 28.958 L 14.876 28.839 L 14.622 28.691 L 14.476 28.525 L 14.446 28.351 L 14.535 28.18 L 14.737 28.022 L 15.039 27.888 L 15.423 27.785 L 15.863 27.721 Z" bx:shape="n-gon 16.334 28.395 1.892 0.696 25 0 1@99b9714c"/>
    <path d="M 16.738 27.706 L 16.852 27.746 L 16.958 27.865 L 17.051 28.054 L 17.124 28.302 L 17.173 28.594 L 17.194 28.91 L 17.187 29.232 L 17.152 29.538 L 17.09 29.81 L 17.007 30.031 L 16.906 30.186 L 16.795 30.266 L 16.681 30.266 L 16.57 30.186 L 16.469 30.031 L 16.386 29.81 L 16.324 29.538 L 16.289 29.232 L 16.282 28.91 L 16.303 28.594 L 16.352 28.302 L 16.425 28.054 L 16.518 27.865 L 16.624 27.746 Z" bx:shape="n-gon 16.738 28.991 0.457 1.285 25 0 1@18694e46"/>
    <path d="M 16.281 27.935 L 16.458 27.969 L 16.624 28.067 L 16.769 28.224 L 16.883 28.431 L 16.959 28.673 L 16.993 28.936 L 16.981 29.203 L 16.926 29.458 L 16.83 29.684 L 16.7 29.867 L 16.543 29.996 L 16.37 30.063 L 16.192 30.063 L 16.019 29.996 L 15.862 29.867 L 15.732 29.684 L 15.636 29.458 L 15.581 29.203 L 15.569 28.936 L 15.603 28.673 L 15.679 28.431 L 15.793 28.224 L 15.938 28.067 L 16.104 27.969 Z" bx:shape="n-gon 16.281 29.003 0.713 1.068 25 0 1@2495068c"/>
    <path d="M 17.357 31.122 L 17.484 31.137 L 17.603 31.181 L 17.707 31.252 L 17.788 31.345 L 17.843 31.454 L 17.867 31.573 L 17.859 31.693 L 17.819 31.808 L 17.751 31.91 L 17.657 31.992 L 17.545 32.05 L 17.421 32.08 L 17.293 32.08 L 17.169 32.05 L 17.057 31.992 L 16.963 31.91 L 16.895 31.808 L 16.855 31.693 L 16.847 31.573 L 16.871 31.454 L 16.926 31.345 L 17.007 31.252 L 17.111 31.181 L 17.23 31.137 Z" bx:shape="n-gon 17.357 31.603 0.511 0.481 25 0 1@76750973"/>
    <path d="M 19.386 30.477 L 19.635 30.505 L 19.868 30.585 L 20.071 30.715 L 20.23 30.884 L 20.337 31.083 L 20.384 31.299 L 20.368 31.518 L 20.291 31.727 L 20.157 31.913 L 19.974 32.064 L 19.754 32.169 L 19.511 32.224 L 19.261 32.224 L 19.018 32.169 L 18.798 32.064 L 18.615 31.913 L 18.481 31.727 L 18.404 31.518 L 18.388 31.299 L 18.435 31.083 L 18.542 30.884 L 18.701 30.715 L 18.904 30.585 L 19.137 30.505 Z" bx:shape="n-gon 19.386 31.354 1 0.877 25 0 1@cdbb6872"/>
    <path d="M 18.273 30.645 L 18.402 30.669 L 18.522 30.74 L 18.627 30.854 L 18.71 31.002 L 18.765 31.177 L 18.789 31.367 L 18.781 31.559 L 18.741 31.743 L 18.671 31.906 L 18.577 32.038 L 18.463 32.131 L 18.338 32.179 L 18.208 32.179 L 18.083 32.131 L 17.969 32.038 L 17.875 31.906 L 17.805 31.743 L 17.765 31.559 L 17.757 31.367 L 17.781 31.177 L 17.836 31.002 L 17.919 30.854 L 18.024 30.74 L 18.144 30.669 Z" bx:shape="n-gon 18.273 31.415 0.517 0.77 25 0 1@7329ef9b"/>
    <path d="M 18.247 31.24 L 18.43 31.257 L 18.601 31.305 L 18.75 31.383 L 18.868 31.484 L 18.946 31.603 L 18.981 31.733 L 18.969 31.865 L 18.912 31.99 L 18.813 32.101 L 18.679 32.192 L 18.518 32.255 L 18.339 32.288 L 18.155 32.288 L 17.976 32.255 L 17.815 32.192 L 17.681 32.101 L 17.582 31.99 L 17.525 31.865 L 17.513 31.733 L 17.548 31.603 L 17.626 31.484 L 17.744 31.383 L 17.893 31.305 L 18.064 31.257 Z" bx:shape="n-gon 18.247 31.766 0.735 0.526 25 0 1@4b4e6bb1"/>
    <path d="M 22.758 28.499 L 23.021 28.54 L 23.268 28.659 L 23.482 28.85 L 23.651 29.101 L 23.764 29.395 L 23.814 29.714 L 23.797 30.038 L 23.715 30.347 L 23.573 30.621 L 23.38 30.843 L 23.147 31 L 22.891 31.081 L 22.625 31.081 L 22.369 31 L 22.136 30.843 L 21.943 30.621 L 21.801 30.347 L 21.719 30.038 L 21.702 29.714 L 21.752 29.395 L 21.865 29.101 L 22.034 28.85 L 22.248 28.659 L 22.495 28.54 Z" bx:shape="n-gon 22.758 29.795 1.058 1.296 25 0 1@11c15d5c"/>
    <path d="M 23.937 28.545 L 24.095 28.57 L 24.244 28.644 L 24.373 28.761 L 24.475 28.915 L 24.543 29.096 L 24.573 29.292 L 24.563 29.491 L 24.513 29.681 L 24.428 29.85 L 24.311 29.987 L 24.171 30.083 L 24.017 30.133 L 23.857 30.133 L 23.703 30.083 L 23.563 29.987 L 23.446 29.85 L 23.361 29.681 L 23.311 29.491 L 23.301 29.292 L 23.331 29.096 L 23.399 28.915 L 23.501 28.761 L 23.63 28.644 L 23.779 28.57 Z" bx:shape="n-gon 23.937 29.342 0.637 0.797 25 0 1@8575bbbd"/>
    <path d="M 24.77 28.516 L 25.099 28.536 L 25.407 28.594 L 25.675 28.687 L 25.886 28.809 L 26.027 28.953 L 26.089 29.108 L 26.069 29.266 L 25.966 29.417 L 25.789 29.551 L 25.547 29.659 L 25.257 29.736 L 24.936 29.775 L 24.604 29.775 L 24.283 29.736 L 23.993 29.659 L 23.751 29.551 L 23.574 29.417 L 23.471 29.266 L 23.451 29.108 L 23.513 28.953 L 23.654 28.809 L 23.865 28.687 L 24.133 28.594 L 24.441 28.536 Z" bx:shape="n-gon 24.77 29.148 1.322 0.632 25 0 1@9a4b6944"/>
    <path d="M 27.672 26.697 L 28.031 26.783 L 28.367 27.034 L 28.659 27.435 L 28.89 27.96 L 29.043 28.578 L 29.111 29.248 L 29.088 29.929 L 28.977 30.578 L 28.783 31.154 L 28.52 31.621 L 28.203 31.95 L 27.853 32.12 L 27.491 32.12 L 27.141 31.95 L 26.824 31.621 L 26.561 31.154 L 26.367 30.578 L 26.256 29.929 L 26.233 29.248 L 26.301 28.578 L 26.454 27.96 L 26.685 27.435 L 26.977 27.034 L 27.313 26.783 Z" bx:shape="n-gon 27.672 29.419 1.442 2.722 25 0 1@f7acc8e7"/>
    <path d="M 26.071 26.563 L 26.375 26.624 L 26.659 26.804 L 26.907 27.09 L 27.102 27.466 L 27.232 27.908 L 27.29 28.387 L 27.27 28.874 L 27.176 29.338 L 27.012 29.749 L 26.789 30.083 L 26.52 30.318 L 26.224 30.44 L 25.918 30.44 L 25.622 30.318 L 25.353 30.083 L 25.13 29.749 L 24.966 29.338 L 24.872 28.874 L 24.852 28.387 L 24.91 27.908 L 25.04 27.466 L 25.235 27.09 L 25.483 26.804 L 25.767 26.624 Z" bx:shape="n-gon 26.071 28.509 1.221 1.946 25 0 1@42551498"/>
    <path d="M 26.572 29.462 L 26.7 29.487 L 26.821 29.561 L 26.925 29.679 L 27.008 29.834 L 27.063 30.015 L 27.087 30.213 L 27.079 30.413 L 27.039 30.604 L 26.97 30.774 L 26.875 30.911 L 26.762 31.008 L 26.637 31.058 L 26.507 31.058 L 26.382 31.008 L 26.269 30.911 L 26.174 30.774 L 26.105 30.604 L 26.065 30.413 L 26.057 30.213 L 26.081 30.015 L 26.136 29.834 L 26.219 29.679 L 26.323 29.561 L 26.444 29.487 Z" bx:shape="n-gon 26.572 30.263 0.516 0.801 25 0 1@97e453d0"/>
    <path d="M 28.735 30.863 L 28.832 30.883 L 28.923 30.943 L 29.003 31.038 L 29.065 31.162 L 29.107 31.308 L 29.125 31.467 L 29.119 31.628 L 29.089 31.781 L 29.036 31.918 L 28.965 32.028 L 28.879 32.106 L 28.784 32.146 L 28.686 32.146 L 28.591 32.106 L 28.505 32.028 L 28.434 31.918 L 28.381 31.781 L 28.351 31.628 L 28.345 31.467 L 28.363 31.308 L 28.405 31.162 L 28.467 31.038 L 28.547 30.943 L 28.638 30.883 Z" bx:shape="n-gon 28.735 31.507 0.391 0.644 25 0 1@913f7631"/>
    <path d="M 28.17 30.717 L 28.338 30.744 L 28.495 30.824 L 28.632 30.951 L 28.74 31.119 L 28.812 31.315 L 28.844 31.528 L 28.833 31.744 L 28.781 31.95 L 28.69 32.133 L 28.567 32.282 L 28.418 32.386 L 28.255 32.44 L 28.085 32.44 L 27.922 32.386 L 27.773 32.282 L 27.65 32.133 L 27.559 31.95 L 27.507 31.744 L 27.496 31.528 L 27.528 31.315 L 27.6 31.119 L 27.708 30.951 L 27.845 30.824 L 28.002 30.744 Z" bx:shape="n-gon 28.17 31.582 0.675 0.865 25 0 1@41a15112"/>
    <path d="M 29.815 24.784 L 29.966 24.824 L 30.108 24.942 L 30.232 25.129 L 30.329 25.375 L 30.394 25.664 L 30.423 25.978 L 30.413 26.297 L 30.366 26.6 L 30.284 26.87 L 30.173 27.089 L 30.039 27.243 L 29.891 27.322 L 29.739 27.322 L 29.591 27.243 L 29.457 27.089 L 29.346 26.87 L 29.264 26.6 L 29.217 26.297 L 29.207 25.978 L 29.236 25.664 L 29.301 25.375 L 29.398 25.129 L 29.522 24.942 L 29.664 24.824 Z" bx:shape="n-gon 29.815 26.058 0.609 1.274 25 0 1@d09c68bd"/>
    <path d="M 28.231 25.966 L 28.635 26.015 L 29.014 26.159 L 29.343 26.389 L 29.603 26.69 L 29.776 27.044 L 29.853 27.428 L 29.827 27.818 L 29.701 28.19 L 29.483 28.52 L 29.186 28.788 L 28.829 28.976 L 28.435 29.074 L 28.027 29.074 L 27.633 28.976 L 27.276 28.788 L 26.979 28.52 L 26.761 28.19 L 26.635 27.818 L 26.609 27.428 L 26.686 27.044 L 26.859 26.69 L 27.119 26.389 L 27.448 26.159 L 27.827 26.015 Z" bx:shape="n-gon 28.231 27.526 1.625 1.56 25 0 1@b44fd358"/>
    <path d="M 30.014 24.701 L 30.242 24.733 L 30.455 24.826 L 30.64 24.975 L 30.787 25.17 L 30.884 25.4 L 30.927 25.649 L 30.913 25.901 L 30.842 26.142 L 30.719 26.356 L 30.552 26.53 L 30.351 26.652 L 30.129 26.715 L 29.899 26.715 L 29.677 26.652 L 29.476 26.53 L 29.309 26.356 L 29.186 26.142 L 29.115 25.901 L 29.101 25.649 L 29.144 25.4 L 29.241 25.17 L 29.388 24.975 L 29.573 24.826 L 29.786 24.733 Z" bx:shape="n-gon 30.014 25.712 0.915 1.011 25 0 1@c8f3cd2a"/>
    <path d="M 30.621 24.173 L 30.87 24.205 L 31.104 24.3 L 31.307 24.451 L 31.467 24.649 L 31.574 24.881 L 31.621 25.134 L 31.605 25.39 L 31.528 25.634 L 31.393 25.851 L 31.21 26.027 L 30.99 26.151 L 30.747 26.215 L 30.495 26.215 L 30.252 26.151 L 30.032 26.027 L 29.849 25.851 L 29.714 25.634 L 29.637 25.39 L 29.621 25.134 L 29.668 24.881 L 29.775 24.649 L 29.935 24.451 L 30.138 24.3 L 30.372 24.205 Z" bx:shape="n-gon 30.621 25.198 1.002 1.025 25 0 1@0624ce9e"/>
    <path d="M 31.63 16.422 L 31.98 16.532 L 32.309 16.856 L 32.595 17.373 L 32.82 18.05 L 32.97 18.846 L 33.036 19.71 L 33.014 20.587 L 32.905 21.424 L 32.716 22.166 L 32.458 22.768 L 32.149 23.192 L 31.807 23.41 L 31.453 23.41 L 31.111 23.192 L 30.802 22.768 L 30.544 22.166 L 30.355 21.424 L 30.246 20.587 L 30.224 19.71 L 30.29 18.846 L 30.44 18.05 L 30.665 17.373 L 30.951 16.856 L 31.28 16.532 Z" bx:shape="n-gon 31.63 19.93 1.409 3.508 25 0 1@dd34ef68"/>
    <path d="M 32.311 20.148 L 32.454 20.198 L 32.588 20.344 L 32.705 20.577 L 32.796 20.882 L 32.858 21.241 L 32.885 21.631 L 32.876 22.026 L 32.831 22.404 L 32.754 22.738 L 32.649 23.01 L 32.523 23.201 L 32.383 23.3 L 32.239 23.3 L 32.099 23.201 L 31.973 23.01 L 31.868 22.738 L 31.791 22.404 L 31.746 22.026 L 31.737 21.631 L 31.764 21.241 L 31.826 20.882 L 31.917 20.577 L 32.034 20.344 L 32.168 20.198 Z" bx:shape="n-gon 32.311 21.73 0.575 1.582 25 0 1@d9c36c73"/>
    <path d="M 32.577 15.391 L 32.756 15.466 L 32.923 15.686 L 33.069 16.038 L 33.183 16.499 L 33.26 17.041 L 33.294 17.629 L 33.282 18.226 L 33.227 18.796 L 33.13 19.301 L 32.999 19.711 L 32.841 19.999 L 32.667 20.148 L 32.487 20.148 L 32.313 19.999 L 32.155 19.711 L 32.024 19.301 L 31.927 18.796 L 31.872 18.226 L 31.86 17.629 L 31.894 17.041 L 31.971 16.499 L 32.085 16.038 L 32.231 15.686 L 32.398 15.466 Z" bx:shape="n-gon 32.577 17.779 0.718 2.388 25 0 1@b43737fc"/>
    <path d="M 15.273 14.532 L 15.514 14.591 L 15.74 14.765 L 15.936 15.043 L 16.091 15.408 L 16.195 15.836 L 16.24 16.301 L 16.225 16.773 L 16.15 17.222 L 16.02 17.622 L 15.843 17.946 L 15.63 18.173 L 15.394 18.291 L 15.152 18.291 L 14.916 18.173 L 14.703 17.946 L 14.526 17.622 L 14.396 17.222 L 14.321 16.773 L 14.306 16.301 L 14.351 15.836 L 14.455 15.408 L 14.61 15.043 L 14.806 14.765 L 15.032 14.591 Z" bx:shape="n-gon 15.273 16.419 0.969 1.887 25 0 1@bfd5e968"/>
    <path d="M 16.455 16.901 L 16.66 16.993 L 16.851 17.263 L 17.018 17.693 L 17.15 18.258 L 17.238 18.921 L 17.276 19.641 L 17.263 20.373 L 17.2 21.07 L 17.089 21.689 L 16.939 22.191 L 16.758 22.544 L 16.558 22.726 L 16.352 22.726 L 16.152 22.544 L 15.971 22.191 L 15.821 21.689 L 15.71 21.07 L 15.647 20.373 L 15.634 19.641 L 15.672 18.921 L 15.76 18.258 L 15.892 17.693 L 16.059 17.263 L 16.25 16.993 Z" bx:shape="n-gon 16.455 19.825 0.823 2.924 25 0 1@20378387"/>
    <path d="M 15.546 17.064 L 15.773 17.129 L 15.986 17.32 L 16.172 17.626 L 16.318 18.026 L 16.415 18.496 L 16.458 19.007 L 16.444 19.525 L 16.373 20.02 L 16.25 20.458 L 16.083 20.814 L 15.882 21.064 L 15.661 21.194 L 15.431 21.194 L 15.21 21.064 L 15.009 20.814 L 14.842 20.458 L 14.719 20.02 L 14.648 19.525 L 14.634 19.007 L 14.677 18.496 L 14.774 18.026 L 14.92 17.626 L 15.106 17.32 L 15.319 17.129 Z" bx:shape="n-gon 15.546 19.137 0.914 2.073 25 0 1@3cd4362a"/>
    <path d="M 14.851 19.904 L 15.163 19.939 L 15.455 20.042 L 15.709 20.207 L 15.909 20.422 L 16.043 20.676 L 16.102 20.951 L 16.082 21.23 L 15.985 21.497 L 15.816 21.733 L 15.587 21.925 L 15.312 22.06 L 15.008 22.129 L 14.694 22.129 L 14.39 22.06 L 14.115 21.925 L 13.886 21.733 L 13.717 21.497 L 13.62 21.23 L 13.6 20.951 L 13.659 20.676 L 13.793 20.422 L 13.993 20.207 L 14.247 20.042 L 14.539 19.939 Z" bx:shape="n-gon 14.851 21.021 1.253 1.117 25 0 1@003d2534"/>
    <path d="M 19.584 16.053 L 20.152 16.115 L 20.684 16.298 L 21.147 16.59 L 21.512 16.972 L 21.755 17.421 L 21.862 17.909 L 21.827 18.404 L 21.65 18.876 L 21.343 19.295 L 20.926 19.635 L 20.424 19.874 L 19.87 19.997 L 19.298 19.997 L 18.744 19.874 L 18.242 19.635 L 17.825 19.295 L 17.518 18.876 L 17.341 18.404 L 17.306 17.909 L 17.413 17.421 L 17.656 16.972 L 18.021 16.59 L 18.484 16.298 L 19.016 16.115 Z" bx:shape="n-gon 19.584 18.033 2.283 1.98 25 0 1@4eda8e7a"/>
    <path d="M 20.941 12.611 L 21.346 12.708 L 21.725 12.991 L 22.055 13.444 L 22.315 14.037 L 22.488 14.734 L 22.565 15.49 L 22.539 16.259 L 22.413 16.991 L 22.195 17.641 L 21.897 18.168 L 21.54 18.539 L 21.145 18.731 L 20.737 18.731 L 20.342 18.539 L 19.985 18.168 L 19.687 17.641 L 19.469 16.991 L 19.343 16.259 L 19.317 15.49 L 19.394 14.734 L 19.567 14.037 L 19.827 13.444 L 20.157 12.991 L 20.536 12.708 Z" bx:shape="n-gon 20.941 15.683 1.627 3.072 25 0 1@32e5de79"/>
    <path d="M 21.523 12.282 L 22.06 12.405 L 22.564 12.768 L 23.002 13.346 L 23.347 14.105 L 23.577 14.995 L 23.679 15.962 L 23.645 16.945 L 23.477 17.881 L 23.187 18.712 L 22.793 19.386 L 22.318 19.86 L 21.794 20.105 L 21.252 20.105 L 20.728 19.86 L 20.253 19.386 L 19.859 18.712 L 19.569 17.881 L 19.401 16.945 L 19.367 15.962 L 19.469 14.995 L 19.699 14.105 L 20.044 13.346 L 20.482 12.768 L 20.986 12.405 Z" bx:shape="n-gon 21.523 16.209 2.16 3.927 25 0 1@c0cc603f"/>
    <path d="M 20.987 12.259 L 21.438 12.316 L 21.86 12.484 L 22.227 12.753 L 22.517 13.104 L 22.71 13.517 L 22.795 13.966 L 22.767 14.421 L 22.627 14.855 L 22.383 15.241 L 22.052 15.553 L 21.654 15.773 L 21.214 15.887 L 20.76 15.887 L 20.32 15.773 L 19.922 15.553 L 19.591 15.241 L 19.347 14.855 L 19.207 14.421 L 19.179 13.966 L 19.264 13.517 L 19.457 13.104 L 19.747 12.753 L 20.114 12.484 L 20.536 12.316 Z" bx:shape="n-gon 20.987 14.08 1.812 1.821 25 0 1@d1818dfc"/>
    <path d="M 20.264 12.418 L 20.528 12.44 L 20.776 12.506 L 20.992 12.612 L 21.162 12.749 L 21.275 12.911 L 21.325 13.087 L 21.308 13.266 L 21.226 13.436 L 21.083 13.587 L 20.889 13.71 L 20.655 13.796 L 20.397 13.84 L 20.131 13.84 L 19.873 13.796 L 19.639 13.71 L 19.445 13.587 L 19.302 13.436 L 19.22 13.266 L 19.203 13.087 L 19.253 12.911 L 19.366 12.749 L 19.536 12.612 L 19.752 12.506 L 20 12.44 Z" bx:shape="n-gon 20.264 13.132 1.063 0.714 25 0 1@7468822b"/>
    <path d="M 27.072 12.906 L 27.549 12.942 L 27.996 13.049 L 28.384 13.219 L 28.691 13.442 L 28.895 13.703 L 28.985 13.988 L 28.955 14.276 L 28.807 14.551 L 28.549 14.796 L 28.199 14.994 L 27.778 15.133 L 27.312 15.205 L 26.832 15.205 L 26.366 15.133 L 25.945 14.994 L 25.595 14.796 L 25.337 14.551 L 25.189 14.276 L 25.159 13.988 L 25.249 13.703 L 25.453 13.442 L 25.76 13.219 L 26.148 13.049 L 26.595 12.942 Z" bx:shape="n-gon 27.072 14.06 1.917 1.154 25 0 1@25c7e363"/>
    <path d="M 20.886 11.998 L 21.153 12.042 L 21.404 12.173 L 21.622 12.381 L 21.794 12.654 L 21.908 12.974 L 21.959 13.322 L 21.942 13.676 L 21.859 14.013 L 21.714 14.312 L 21.518 14.554 L 21.282 14.725 L 21.021 14.813 L 20.751 14.813 L 20.49 14.725 L 20.254 14.554 L 20.058 14.312 L 19.913 14.013 L 19.83 13.676 L 19.813 13.322 L 19.864 12.974 L 19.978 12.654 L 20.15 12.381 L 20.368 12.173 L 20.619 12.042 Z" bx:shape="n-gon 20.886 13.411 1.075 1.413 25 0 1@7d9b138e"/>
    <path d="M 25.528 12.915 L 25.788 13.018 L 26.031 13.32 L 26.243 13.803 L 26.41 14.436 L 26.522 15.179 L 26.571 15.986 L 26.554 16.806 L 26.474 17.587 L 26.333 18.281 L 26.142 18.843 L 25.913 19.239 L 25.659 19.443 L 25.397 19.443 L 25.143 19.239 L 24.914 18.843 L 24.723 18.281 L 24.582 17.587 L 24.502 16.806 L 24.485 15.986 L 24.534 15.179 L 24.646 14.436 L 24.813 13.803 L 25.025 13.32 L 25.268 13.018 Z" bx:shape="n-gon 25.528 16.192 1.045 3.277 25 0 1@f5a1bc49"/>
    <path d="M 24.697 16.24 L 25.08 16.277 L 25.44 16.386 L 25.753 16.561 L 25.999 16.79 L 26.164 17.058 L 26.236 17.35 L 26.212 17.646 L 26.092 17.928 L 25.885 18.179 L 25.603 18.382 L 25.265 18.525 L 24.89 18.599 L 24.504 18.599 L 24.129 18.525 L 23.791 18.382 L 23.509 18.179 L 23.302 17.928 L 23.182 17.646 L 23.158 17.35 L 23.23 17.058 L 23.395 16.79 L 23.641 16.561 L 23.954 16.386 L 24.314 16.277 Z" bx:shape="n-gon 24.697 17.424 1.542 1.184 25 0 1@e00a99b4"/>
    <path d="M 31.94 14.469 L 32.233 14.509 L 32.508 14.626 L 32.746 14.812 L 32.935 15.057 L 33.06 15.344 L 33.116 15.656 L 33.097 15.972 L 33.006 16.274 L 32.848 16.542 L 32.632 16.759 L 32.374 16.912 L 32.088 16.991 L 31.792 16.991 L 31.506 16.912 L 31.248 16.759 L 31.032 16.542 L 30.874 16.274 L 30.783 15.972 L 30.764 15.656 L 30.82 15.344 L 30.945 15.057 L 31.134 14.812 L 31.372 14.626 L 31.647 14.509 Z" bx:shape="n-gon 31.94 15.735 1.178 1.266 25 0 1@46c246bf"/>
    <path d="M 28.685 15.556 L 28.908 15.611 L 29.117 15.774 L 29.298 16.034 L 29.442 16.375 L 29.537 16.776 L 29.579 17.21 L 29.565 17.652 L 29.496 18.073 L 29.375 18.446 L 29.212 18.749 L 29.015 18.962 L 28.797 19.072 L 28.573 19.072 L 28.355 18.962 L 28.158 18.749 L 27.995 18.446 L 27.874 18.073 L 27.805 17.652 L 27.791 17.21 L 27.833 16.776 L 27.928 16.375 L 28.072 16.034 L 28.253 15.774 L 28.462 15.611 Z" bx:shape="n-gon 28.685 17.321 0.896 1.765 25 0 1@7338d907"/>
    <path d="M 26.854 12.428 L 27.164 12.452 L 27.454 12.523 L 27.707 12.636 L 27.906 12.785 L 28.039 12.959 L 28.098 13.149 L 28.078 13.341 L 27.981 13.524 L 27.814 13.687 L 27.586 13.819 L 27.313 13.912 L 27.01 13.96 L 26.698 13.96 L 26.395 13.912 L 26.122 13.819 L 25.894 13.687 L 25.727 13.524 L 25.63 13.341 L 25.61 13.149 L 25.669 12.959 L 25.802 12.785 L 26.001 12.636 L 26.254 12.523 L 26.544 12.452 Z" bx:shape="n-gon 26.854 13.197 1.246 0.769 25 0 1@9f0c7707"/>
    <path d="M 25.946 12.51 L 26.152 12.535 L 26.346 12.608 L 26.514 12.726 L 26.647 12.879 L 26.735 13.06 L 26.774 13.256 L 26.761 13.455 L 26.697 13.645 L 26.586 13.813 L 26.434 13.95 L 26.252 14.046 L 26.05 14.096 L 25.842 14.096 L 25.64 14.046 L 25.458 13.95 L 25.306 13.813 L 25.195 13.645 L 25.131 13.455 L 25.118 13.256 L 25.157 13.06 L 25.245 12.879 L 25.378 12.726 L 25.546 12.608 L 25.74 12.535 Z" bx:shape="n-gon 25.946 13.306 0.83 0.796 25 0 1@af15bd7c"/>
    <path d="M 31.008 14.724 L 31.179 14.768 L 31.34 14.898 L 31.48 15.105 L 31.59 15.377 L 31.663 15.696 L 31.696 16.042 L 31.685 16.393 L 31.631 16.729 L 31.539 17.026 L 31.413 17.267 L 31.262 17.437 L 31.094 17.525 L 30.922 17.525 L 30.754 17.437 L 30.603 17.267 L 30.477 17.026 L 30.385 16.729 L 30.331 16.393 L 30.32 16.042 L 30.353 15.696 L 30.426 15.377 L 30.536 15.105 L 30.676 14.898 L 30.837 14.768 Z" bx:shape="n-gon 31.008 16.13 0.689 1.406 25 0 1@37c15d48"/>
    <path d="M 31.441 14.099 L 31.563 14.126 L 31.678 14.205 L 31.778 14.332 L 31.856 14.499 L 31.909 14.694 L 31.932 14.906 L 31.924 15.121 L 31.886 15.327 L 31.82 15.509 L 31.73 15.657 L 31.622 15.761 L 31.503 15.814 L 31.379 15.814 L 31.26 15.761 L 31.152 15.657 L 31.062 15.509 L 30.996 15.327 L 30.958 15.121 L 30.95 14.906 L 30.973 14.694 L 31.026 14.499 L 31.104 14.332 L 31.204 14.205 L 31.319 14.126 Z" bx:shape="n-gon 31.441 14.96 0.492 0.861 25 0 1@0b801550"/>
    <path d="M 30.857 15.868 L 31.439 15.963 L 31.984 16.243 L 32.459 16.69 L 32.833 17.276 L 33.082 17.964 L 33.192 18.711 L 33.156 19.471 L 32.974 20.194 L 32.66 20.836 L 32.232 21.357 L 31.718 21.723 L 31.15 21.912 L 30.564 21.912 L 29.996 21.723 L 29.482 21.357 L 29.054 20.836 L 28.74 20.194 L 28.558 19.471 L 28.522 18.711 L 28.632 17.964 L 28.881 17.276 L 29.255 16.69 L 29.73 16.243 L 30.275 15.963 Z" bx:shape="n-gon 30.857 18.902 2.34 3.034 25 0 1@926f2283"/>
    <path style=" stroke:none;fill-rule:nonzero;fill:rgb(90.980392%,90.980392%,90.980392%);fill-opacity:1;" d="M -25.125 70.210938 C -20.015625 63.296875 -24.601562 53.65625 -33.382812 52.859375 C -42.164062 52.054688 -48.554688 60.703125 -44.882812 68.414062 C -41.890625 74.695312 -33.6875 76.8125 -27.820312 72.804688 L -18.078125 82.171875 L -15.382812 79.578125 Z M -24.90625 63.859375 C -24.90625 70.90625 -32.835938 75.3125 -39.1875 71.789062 C -45.53125 68.265625 -45.53125 59.460938 -39.1875 55.9375 C -37.734375 55.132812 -36.09375 54.710938 -34.421875 54.710938 C -29.171875 54.71875 -24.90625 58.8125 -24.90625 63.859375 Z M 32.554688 13.265625 C 31.625 13.039062 30.625 13.265625 29.90625 13.882812 C 29.8125 13.453125 29.65625 13.039062 29.429688 12.648438 C 29.195312 12.296875 28.414062 11.59375 27.679688 11.453125 C 26.992188 11.34375 26.28125 11.34375 25.585938 11.46875 C 24.921875 11.625 24.328125 11.992188 23.90625 12.507812 C 23.859375 12.414062 23.8125 12.320312 23.75 12.226562 C 23.296875 11.585938 22.609375 11.140625 21.820312 10.984375 C 21.125 10.859375 20.40625 10.898438 19.734375 11.101562 C 19.3125 11.226562 18.9375 11.460938 18.648438 11.78125 C 18.585938 11.4375 18.53125 11.109375 18.476562 10.789062 C 18.203125 9.125 17.890625 8 17.375 6.882812 C 17.054688 6.179688 16.453125 4.867188 15.335938 4.320312 C 14.289062 3.8125 12.726562 4.078125 12 4.890625 C 11.359375 5.617188 11.132812 6.929688 11.335938 8.789062 C 11.460938 9.71875 11.648438 10.640625 11.875 11.554688 L 12.085938 12.390625 C 12.203125 12.898438 12.320312 13.351562 12.484375 13.921875 L 12.578125 14.257812 C 12.734375 14.78125 12.804688 15.023438 13.007812 15.882812 C 13.125 16.375 13.226562 16.890625 13.3125 17.390625 C 13.023438 17.046875 12.703125 16.726562 12.359375 16.4375 C 11.453125 15.726562 10.546875 15.078125 9.398438 14.96875 C 7.734375 14.796875 6.210938 15.890625 5.914062 17.46875 C 5.726562 18.21875 5.851562 19.007812 6.265625 19.671875 C 6.59375 20.257812 7.304688 21.101562 7.992188 21.914062 C 8.429688 22.429688 8.84375 22.914062 9.101562 23.273438 C 9.703125 24.125 10.171875 24.890625 10.554688 25.515625 C 10.835938 26.007812 11.148438 26.484375 11.492188 26.9375 C 11.5 26.953125 11.507812 26.960938 11.523438 26.96875 L 13.164062 28.710938 C 13.429688 28.9375 13.78125 29.257812 14.132812 29.578125 C 14.578125 29.984375 15.023438 30.398438 15.351562 30.664062 C 15.625 30.882812 15.664062 31.804688 15.539062 32.492188 C 15.460938 32.914062 15.789062 33.296875 16.234375 33.304688 L 17.671875 33.328125 C 18.460938 33.335938 19.265625 33.351562 20 33.351562 C 20.765625 33.367188 21.539062 33.335938 22.296875 33.265625 C 23.3125 33.140625 24.3125 31.726562 24.875 30.90625 C 24.992188 31.125 26.078125 33.054688 27.296875 33.242188 C 28.1875 33.375 29.679688 33.195312 29.835938 33.179688 C 30.265625 33.125 30.546875 32.71875 30.429688 32.320312 C 30.296875 31.84375 30.226562 31.351562 30.226562 30.851562 C 30.226562 30.648438 30.242188 30.492188 30.242188 30.367188 C 30.25 29.96875 30.304688 29.578125 30.40625 29.195312 C 30.53125 28.601562 31.71875 27.078125 32.554688 26.132812 C 33.125 25.28125 33.578125 24.359375 33.898438 23.398438 C 34.1875 22.421875 34.351562 20.46875 34.382812 20.070312 C 34.4375 19.375 34.460938 18.789062 34.460938 17.820312 L 34.460938 17.492188 C 34.460938 17 34.460938 16.867188 34.421875 15.84375 C 34.351562 13.9375 33.101562 13.40625 32.554688 13.265625 Z M 33.757812 17.820312 C 33.757812 18.765625 33.734375 19.335938 33.679688 20.015625 C 33.625 20.75 33.460938 22.398438 33.226562 23.1875 C 32.921875 24.078125 32.507812 24.929688 31.984375 25.71875 C 31.984375 25.71875 29.953125 28 29.71875 29.03125 C 29.578125 29.609375 29.515625 30.203125 29.523438 30.796875 C 29.523438 31.367188 29.601562 31.929688 29.75 32.484375 C 29.75 32.484375 28.226562 32.671875 27.40625 32.546875 C 26.664062 32.429688 25.742188 31.007812 25.507812 30.570312 C 25.28125 30.085938 24.59375 30.015625 24.265625 30.445312 C 24.242188 30.476562 24.226562 30.5 24.210938 30.53125 C 23.78125 31.234375 22.859375 32.484375 22.210938 32.570312 C 20.945312 32.71875 18.304688 32.625 16.242188 32.601562 C 16.242188 32.601562 16.59375 30.757812 15.8125 30.125 C 15.226562 29.648438 14.226562 28.6875 13.632812 28.179688 L 12.054688 26.515625 C 11.507812 25.859375 10.859375 24.523438 9.6875 22.890625 C 9.023438 21.96875 7.382812 20.234375 6.898438 19.351562 C 6.46875 18.578125 6.515625 18.226562 6.617188 17.578125 C 6.796875 16.429688 8.023438 15.539062 9.328125 15.65625 C 10.3125 15.75 11.148438 16.375 11.90625 16.96875 C 12.398438 17.40625 12.84375 17.890625 13.257812 18.40625 C 13.5625 18.765625 13.640625 18.914062 13.96875 19.335938 C 14.40625 19.898438 14.546875 20.179688 14.382812 19.5625 C 14.242188 18.65625 14.023438 17.101562 13.703125 15.734375 C 13.453125 14.695312 13.398438 14.53125 13.171875 13.734375 C 12.914062 12.890625 12.796875 12.289062 12.570312 11.398438 C 12.34375 10.515625 12.171875 9.625 12.046875 8.726562 C 11.9375 7.726562 11.882812 6.09375 12.554688 5.34375 C 13.078125 4.757812 14.273438 4.578125 15.015625 4.945312 C 15.992188 5.414062 16.539062 6.773438 16.796875 7.320312 C 17.25 8.296875 17.53125 9.421875 17.773438 10.90625 C 18.085938 12.789062 18.664062 15.40625 18.679688 15.960938 C 18.726562 15.28125 18.554688 13.859375 18.679688 13.21875 C 18.8125 12.546875 19.296875 12 19.953125 11.75 C 20.507812 11.585938 21.101562 11.554688 21.679688 11.65625 C 22.265625 11.773438 22.78125 12.101562 23.132812 12.570312 C 23.820312 13.710938 23.835938 16.039062 23.867188 15.914062 C 24.03125 15.226562 24 13.671875 24.40625 13.023438 C 24.71875 12.59375 25.1875 12.28125 25.710938 12.140625 C 26.320312 12.039062 26.9375 12.03125 27.546875 12.132812 C 28.015625 12.21875 28.65625 12.757812 28.828125 13.023438 C 29.242188 13.648438 29.484375 15.429688 29.554688 16.054688 C 29.578125 16.3125 29.695312 15.335938 30.109375 14.703125 C 30.867188 13.539062 33.617188 13.3125 33.71875 15.875 C 33.765625 17.070312 33.757812 17.015625 33.757812 17.820312 Z M 33.757812 17.820312 "/>
    <path style="stroke: none; fill-rule: nonzero; fill-opacity: 1; fill: rgb(232, 232, 232);" d="M 30.109375 14.703125 C 29.695312 15.335938 29.585938 16.3125 29.554688 16.054688 C 29.484375 15.429688 29.25 13.648438 28.835938 13.023438 C 28.664062 12.757812 28.015625 12.21875 27.546875 12.132812 C 26.9375 12.03125 26.320312 12.039062 25.710938 12.140625 C 25.1875 12.28125 24.726562 12.59375 24.40625 13.023438 C 24 13.671875 24.03125 15.21875 23.867188 15.914062 C 23.835938 16.039062 23.828125 13.71875 23.132812 12.570312 C 22.78125 12.101562 22.265625 11.773438 21.679688 11.65625 C 21.09375 11.554688 20.5 11.585938 19.9375 11.757812 C 19.273438 12 18.796875 12.554688 18.664062 13.21875 C 18.546875 13.867188 18.71875 15.289062 18.664062 15.960938 C 18.640625 15.414062 18.070312 12.789062 17.757812 10.914062 C 17.507812 9.429688 17.226562 8.304688 16.773438 7.328125 C 16.523438 6.78125 15.96875 5.421875 15 4.945312 C 14.257812 4.585938 13.054688 4.765625 12.53125 5.351562 C 11.867188 6.101562 11.921875 7.734375 12.023438 8.734375 C 12.15625 9.625 12.335938 10.515625 12.570312 11.390625 C 12.796875 12.289062 12.921875 12.882812 13.171875 13.726562 C 13.398438 14.523438 13.460938 14.6875 13.703125 15.726562 C 14.023438 17.09375 14.242188 18.65625 14.382812 19.554688 C 14.546875 20.171875 14.40625 19.890625 13.96875 19.328125 C 13.640625 18.90625 13.5625 18.757812 13.257812 18.398438 C 12.84375 17.882812 12.398438 17.40625 11.90625 16.960938 C 11.140625 16.367188 10.3125 15.742188 9.328125 15.648438 C 8.023438 15.53125 6.789062 16.421875 6.617188 17.570312 C 6.515625 18.21875 6.46875 18.570312 6.898438 19.34375 C 7.382812 20.226562 9.023438 21.960938 9.6875 22.882812 C 10.859375 24.515625 11.507812 25.859375 12.054688 26.515625 L 13.632812 28.195312 C 14.226562 28.703125 15.226562 29.65625 15.8125 30.132812 C 16.59375 30.765625 16.242188 32.617188 16.242188 32.617188 C 18.304688 32.632812 20.9375 32.734375 22.210938 32.578125 C 22.859375 32.5 23.78125 31.242188 24.210938 30.546875 C 24.46875 30.070312 25.164062 30.046875 25.453125 30.5 C 25.476562 30.523438 25.492188 30.554688 25.507812 30.585938 C 25.742188 31.023438 26.664062 32.445312 27.40625 32.5625 C 28.226562 32.6875 29.75 32.492188 29.75 32.492188 C 29.601562 31.945312 29.523438 31.382812 29.523438 30.8125 C 29.515625 30.21875 29.578125 29.625 29.71875 29.046875 C 29.9375 28.015625 31.984375 25.734375 31.984375 25.734375 C 32.507812 24.945312 32.921875 24.09375 33.226562 23.203125 C 33.460938 22.398438 33.625 20.757812 33.679688 20.03125 C 33.734375 19.34375 33.757812 18.773438 33.757812 17.828125 C 33.757812 17.03125 33.757812 17.078125 33.71875 15.875 C 33.609375 13.3125 30.882812 13.539062 30.109375 14.703125 Z M 33.046875 17.492188 L 33.046875 17.8125 C 33.046875 18.742188 33.023438 19.296875 32.96875 19.960938 C 32.90625 20.992188 32.765625 22.007812 32.539062 23.007812 C 32.265625 23.804688 31.898438 24.570312 31.4375 25.28125 C 31.078125 25.6875 29.265625 27.757812 29.015625 28.90625 C 28.898438 29.367188 28.835938 29.84375 28.828125 30.328125 L 28.8125 30.773438 C 28.796875 31.148438 28.820312 31.515625 28.890625 31.890625 C 28.4375 31.929688 27.976562 31.929688 27.523438 31.890625 C 27.242188 31.828125 26.53125 30.992188 26.140625 30.273438 C 25.90625 29.8125 25.429688 29.507812 24.898438 29.492188 C 24.367188 29.5 23.875 29.765625 23.59375 30.195312 C 23.03125 31.117188 22.359375 31.835938 22.125 31.90625 C 21.1875 32.015625 19.414062 31.992188 17.703125 31.960938 L 17.03125 31.960938 C 17.0625 31.226562 16.960938 30.1875 16.273438 29.625 C 15.960938 29.382812 15.53125 28.984375 15.117188 28.601562 C 14.75 28.265625 14.382812 27.929688 14.164062 27.75 L 12.59375 26.085938 C 12.304688 25.6875 12.03125 25.265625 11.78125 24.84375 C 11.390625 24.1875 10.90625 23.390625 10.273438 22.507812 C 10 22.125 9.5625 21.609375 9.101562 21.0625 C 8.523438 20.429688 8 19.75 7.53125 19.039062 C 7.203125 18.445312 7.234375 18.273438 7.320312 17.6875 C 7.445312 16.890625 8.359375 16.265625 9.265625 16.34375 C 10.023438 16.414062 10.695312 16.914062 11.453125 17.5 C 11.84375 17.851562 12.210938 18.226562 12.539062 18.625 L 12.71875 18.84375 C 12.890625 19.039062 12.976562 19.164062 13.09375 19.328125 L 13.625 20.03125 C 13.835938 20.3125 14.195312 20.789062 14.757812 20.523438 C 15.320312 20.257812 15.164062 19.6875 15.101562 19.453125 L 15.070312 19.273438 C 14.929688 18.328125 14.71875 16.882812 14.414062 15.578125 C 14.203125 14.679688 14.125 14.421875 13.96875 13.867188 L 13.867188 13.539062 C 13.710938 12.992188 13.601562 12.5625 13.484375 12.070312 L 13.273438 11.226562 C 13.0625 10.375 12.890625 9.515625 12.765625 8.648438 C 12.617188 7.257812 12.742188 6.1875 13.101562 5.78125 C 13.398438 5.445312 14.242188 5.320312 14.703125 5.539062 C 15.375 5.859375 15.851562 6.921875 16.15625 7.585938 C 16.546875 8.429688 16.828125 9.453125 17.085938 11 C 17.21875 11.828125 17.414062 12.804688 17.59375 13.6875 C 17.773438 14.632812 17.984375 15.710938 17.992188 15.96875 C 18.007812 16.335938 18.3125 16.625 18.695312 16.632812 C 19 16.679688 19.390625 16.351562 19.414062 15.992188 C 19.4375 15.6875 19.414062 15.257812 19.398438 14.789062 C 19.351562 14.304688 19.351562 13.8125 19.398438 13.328125 C 19.484375 12.921875 19.765625 12.578125 20.15625 12.40625 C 20.609375 12.273438 21.085938 12.242188 21.554688 12.320312 C 21.945312 12.398438 22.289062 12.609375 22.539062 12.90625 C 22.851562 13.421875 23.046875 14.382812 23.15625 15.773438 C 23.164062 15.960938 23.203125 16.554688 23.828125 16.601562 C 24.1875 16.625 24.507812 16.398438 24.59375 16.0625 C 24.65625 15.71875 24.710938 15.367188 24.734375 15.015625 C 24.789062 14.46875 24.867188 13.65625 25.046875 13.367188 C 25.257812 13.109375 25.546875 12.914062 25.867188 12.8125 C 26.382812 12.71875 26.914062 12.710938 27.4375 12.796875 C 27.757812 12.921875 28.039062 13.125 28.265625 13.382812 C 28.484375 13.710938 28.726562 14.8125 28.875 16.117188 C 28.914062 16.460938 29.1875 16.734375 29.546875 16.773438 C 30.164062 16.8125 30.304688 16.257812 30.359375 16.039062 C 30.4375 15.695312 30.570312 15.367188 30.742188 15.0625 C 31.09375 14.632812 31.664062 14.445312 32.21875 14.578125 C 32.859375 14.742188 33.015625 15.375 33.039062 15.882812 C 33.046875 16.890625 33.046875 17 33.046875 17.492188 Z M 33.046875 17.492188 "/>
    <path style=" stroke:none;fill-rule:nonzero;fill:rgb(90.980392%,90.980392%,90.980392%);fill-opacity:1;" d="M 27.710938 20.148438 C 27.320312 20.148438 27 20.460938 27 20.835938 L 27 27.164062 C 27 27.6875 27.59375 28.015625 28.070312 27.757812 C 28.289062 27.632812 28.421875 27.40625 28.421875 27.164062 L 28.421875 20.835938 C 28.421875 20.460938 28.109375 20.148438 27.710938 20.148438 Z M 23.851562 20.148438 C 23.453125 20.148438 23.132812 20.460938 23.140625 20.835938 L 23.164062 27.179688 C 23.164062 27.710938 23.765625 28.039062 24.234375 27.78125 C 24.460938 27.65625 24.59375 27.429688 24.59375 27.179688 L 24.5625 20.835938 C 24.570312 20.453125 24.242188 20.148438 23.851562 20.148438 Z M 20.078125 20.203125 C 19.6875 20.203125 19.367188 20.515625 19.367188 20.890625 L 19.414062 27.15625 C 19.414062 27.539062 19.734375 27.84375 20.125 27.84375 C 20.515625 27.835938 20.835938 27.53125 20.835938 27.148438 L 20.789062 20.882812 C 20.789062 20.507812 20.476562 20.203125 20.078125 20.203125 Z M 20.078125 20.203125 "/>
  </g>
</svg>