<?xml version="1.0" encoding="utf-8"?>
<svg width="40px" height="38px" viewBox="0 0 40 38" version="1.1" xmlns="http://www.w3.org/2000/svg">
  <g id="surface1">
    <path style="stroke: none; fill-rule: nonzero;" d="M -25.125 70.210938 C -20.015625 63.296875 -24.601562 53.65625 -33.382812 52.859375 C -42.164062 52.054688 -48.554688 60.703125 -44.882812 68.414062 C -41.890625 74.695312 -33.6875 76.8125 -27.820312 72.804688 L -18.078125 82.171875 L -15.382812 79.578125 Z M -24.90625 63.859375 C -24.90625 70.90625 -32.835938 75.3125 -39.1875 71.789062 C -45.53125 68.265625 -45.53125 59.460938 -39.1875 55.9375 C -37.734375 55.132812 -36.09375 54.710938 -34.421875 54.710938 C -29.171875 54.71875 -24.90625 58.8125 -24.90625 63.859375 Z M 32.554688 13.265625 C 31.625 13.039062 30.625 13.265625 29.90625 13.882812 C 29.8125 13.453125 29.65625 13.039062 29.429688 12.648438 C 29.195312 12.296875 28.414062 11.59375 27.679688 11.453125 C 26.992188 11.34375 26.28125 11.34375 25.585938 11.46875 C 24.921875 11.625 24.328125 11.992188 23.90625 12.507812 C 23.859375 12.414062 23.8125 12.320312 23.75 12.226562 C 23.296875 11.585938 22.609375 11.140625 21.820312 10.984375 C 21.125 10.859375 20.40625 10.898438 19.734375 11.101562 C 19.3125 11.226562 18.9375 11.460938 18.648438 11.78125 C 18.585938 11.4375 18.53125 11.109375 18.476562 10.789062 C 18.203125 9.125 17.890625 8 17.375 6.882812 C 17.054688 6.179688 16.453125 4.867188 15.335938 4.320312 C 14.289062 3.8125 12.726562 4.078125 12 4.890625 C 11.359375 5.617188 11.132812 6.929688 11.335938 8.789062 C 11.460938 9.71875 11.648438 10.640625 11.875 11.554688 L 12.085938 12.390625 C 12.203125 12.898438 12.320312 13.351562 12.484375 13.921875 L 12.578125 14.257812 C 12.734375 14.78125 12.804688 15.023438 13.007812 15.882812 C 13.125 16.375 13.226562 16.890625 13.3125 17.390625 C 13.023438 17.046875 12.703125 16.726562 12.359375 16.4375 C 11.453125 15.726562 10.546875 15.078125 9.398438 14.96875 C 7.734375 14.796875 6.210938 15.890625 5.914062 17.46875 C 5.726562 18.21875 5.851562 19.007812 6.265625 19.671875 C 6.59375 20.257812 7.304688 21.101562 7.992188 21.914062 C 8.429688 22.429688 8.84375 22.914062 9.101562 23.273438 C 9.703125 24.125 10.171875 24.890625 10.554688 25.515625 C 10.835938 26.007812 11.148438 26.484375 11.492188 26.9375 C 11.5 26.953125 11.507812 26.960938 11.523438 26.96875 L 13.164062 28.710938 C 13.429688 28.9375 13.78125 29.257812 14.132812 29.578125 C 14.578125 29.984375 15.023438 30.398438 15.351562 30.664062 C 15.625 30.882812 15.664062 31.804688 15.539062 32.492188 C 15.460938 32.914062 15.789062 33.296875 16.234375 33.304688 L 17.671875 33.328125 C 18.460938 33.335938 19.265625 33.351562 20 33.351562 C 20.765625 33.367188 21.539062 33.335938 22.296875 33.265625 C 23.3125 33.140625 24.3125 31.726562 24.875 30.90625 C 24.992188 31.125 26.078125 33.054688 27.296875 33.242188 C 28.1875 33.375 29.679688 33.195312 29.835938 33.179688 C 30.265625 33.125 30.546875 32.71875 30.429688 32.320312 C 30.296875 31.84375 30.226562 31.351562 30.226562 30.851562 C 30.226562 30.648438 30.242188 30.492188 30.242188 30.367188 C 30.25 29.96875 30.304688 29.578125 30.40625 29.195312 C 30.53125 28.601562 31.71875 27.078125 32.554688 26.132812 C 33.125 25.28125 33.578125 24.359375 33.898438 23.398438 C 34.1875 22.421875 34.351562 20.46875 34.382812 20.070312 C 34.4375 19.375 34.460938 18.789062 34.460938 17.820312 L 34.460938 17.492188 C 34.460938 17 34.460938 16.867188 34.421875 15.84375 C 34.351562 13.9375 33.101562 13.40625 32.554688 13.265625 Z M 33.757812 17.820312 C 33.757812 18.765625 33.734375 19.335938 33.679688 20.015625 C 33.625 20.75 33.460938 22.398438 33.226562 23.1875 C 32.921875 24.078125 32.507812 24.929688 31.984375 25.71875 C 31.984375 25.71875 29.953125 28 29.71875 29.03125 C 29.578125 29.609375 29.515625 30.203125 29.523438 30.796875 C 29.523438 31.367188 29.601562 31.929688 29.75 32.484375 C 29.75 32.484375 28.226562 32.671875 27.40625 32.546875 C 26.664062 32.429688 25.742188 31.007812 25.507812 30.570312 C 25.28125 30.085938 24.59375 30.015625 24.265625 30.445312 C 24.242188 30.476562 24.226562 30.5 24.210938 30.53125 C 23.78125 31.234375 22.859375 32.484375 22.210938 32.570312 C 20.945312 32.71875 18.304688 32.625 16.242188 32.601562 C 16.242188 32.601562 16.59375 30.757812 15.8125 30.125 C 15.226562 29.648438 14.226562 28.6875 13.632812 28.179688 L 12.054688 26.515625 C 11.507812 25.859375 10.859375 24.523438 9.6875 22.890625 C 9.023438 21.96875 7.382812 20.234375 6.898438 19.351562 C 6.46875 18.578125 6.515625 18.226562 6.617188 17.578125 C 6.796875 16.429688 8.023438 15.539062 9.328125 15.65625 C 10.3125 15.75 11.148438 16.375 11.90625 16.96875 C 12.398438 17.40625 12.84375 17.890625 13.257812 18.40625 C 13.5625 18.765625 13.640625 18.914062 13.96875 19.335938 C 14.40625 19.898438 14.546875 20.179688 14.382812 19.5625 C 14.242188 18.65625 14.023438 17.101562 13.703125 15.734375 C 13.453125 14.695312 13.398438 14.53125 13.171875 13.734375 C 12.914062 12.890625 12.796875 12.289062 12.570312 11.398438 C 12.34375 10.515625 12.171875 9.625 12.046875 8.726562 C 11.9375 7.726562 11.882812 6.09375 12.554688 5.34375 C 13.078125 4.757812 14.273438 4.578125 15.015625 4.945312 C 15.992188 5.414062 16.539062 6.773438 16.796875 7.320312 C 17.25 8.296875 17.53125 9.421875 17.773438 10.90625 C 18.085938 12.789062 18.664062 15.40625 18.679688 15.960938 C 18.726562 15.28125 18.554688 13.859375 18.679688 13.21875 C 18.8125 12.546875 19.296875 12 19.953125 11.75 C 20.507812 11.585938 21.101562 11.554688 21.679688 11.65625 C 22.265625 11.773438 22.78125 12.101562 23.132812 12.570312 C 23.820312 13.710938 23.835938 16.039062 23.867188 15.914062 C 24.03125 15.226562 24 13.671875 24.40625 13.023438 C 24.71875 12.59375 25.1875 12.28125 25.710938 12.140625 C 26.320312 12.039062 26.9375 12.03125 27.546875 12.132812 C 28.015625 12.21875 28.65625 12.757812 28.828125 13.023438 C 29.242188 13.648438 29.484375 15.429688 29.554688 16.054688 C 29.578125 16.3125 29.695312 15.335938 30.109375 14.703125 C 30.867188 13.539062 33.617188 13.3125 33.71875 15.875 C 33.765625 17.070312 33.757812 17.015625 33.757812 17.820312 Z M 33.757812 17.820312 "/>
    <path style="stroke: none; fill-rule: evenodd; paint-order: fill; stroke-dashoffset: -14px; stroke-linecap: round; stroke-width: 46px;" d="M 30.109375 14.703125 C 29.695312 15.335938 29.585938 16.3125 29.554688 16.054688 C 29.484375 15.429688 29.25 13.648438 28.835938 13.023438 C 28.664062 12.757812 28.015625 12.21875 27.546875 12.132812 C 26.9375 12.03125 26.320312 12.039062 25.710938 12.140625 C 25.1875 12.28125 24.726562 12.59375 24.40625 13.023438 C 24 13.671875 24.03125 15.21875 23.867188 15.914062 C 23.835938 16.039062 23.828125 13.71875 23.132812 12.570312 C 22.78125 12.101562 22.265625 11.773438 21.679688 11.65625 C 21.09375 11.554688 20.5 11.585938 19.9375 11.757812 C 19.273438 12 18.796875 12.554688 18.664062 13.21875 C 18.546875 13.867188 18.71875 15.289062 18.664062 15.960938 C 18.640625 15.414062 18.070312 12.789062 17.757812 10.914062 C 17.507812 9.429688 17.226562 8.304688 16.773438 7.328125 C 16.523438 6.78125 15.96875 5.421875 15 4.945312 C 14.257812 4.585938 13.054688 4.765625 12.53125 5.351562 C 11.867188 6.101562 11.921875 7.734375 12.023438 8.734375 C 12.15625 9.625 12.335938 10.515625 12.570312 11.390625 C 12.796875 12.289062 12.921875 12.882812 13.171875 13.726562 C 13.398438 14.523438 13.460938 14.6875 13.703125 15.726562 C 14.023438 17.09375 14.242188 18.65625 14.382812 19.554688 C 14.546875 20.171875 14.40625 19.890625 13.96875 19.328125 C 13.640625 18.90625 13.5625 18.757812 13.257812 18.398438 C 12.84375 17.882812 12.398438 17.40625 11.90625 16.960938 C 11.140625 16.367188 10.3125 15.742188 9.328125 15.648438 C 8.023438 15.53125 6.789062 16.421875 6.617188 17.570312 C 6.515625 18.21875 6.46875 18.570312 6.898438 19.34375 C 7.382812 20.226562 9.023438 21.960938 9.6875 22.882812 C 10.859375 24.515625 11.507812 25.859375 12.054688 26.515625 L 13.632812 28.195312 C 14.226562 28.703125 15.226562 29.65625 15.8125 30.132812 C 16.59375 30.765625 16.242188 32.617188 16.242188 32.617188 C 18.304688 32.632812 20.9375 32.734375 22.210938 32.578125 C 22.859375 32.5 23.78125 31.242188 24.210938 30.546875 C 24.46875 30.070312 25.164062 30.046875 25.453125 30.5 C 25.476562 30.523438 25.492188 30.554688 25.507812 30.585938 C 25.742188 31.023438 26.664062 32.445312 27.40625 32.5625 C 28.226562 32.6875 29.75 32.492188 29.75 32.492188 C 29.601562 31.945312 29.523438 31.382812 29.523438 30.8125 C 29.515625 30.21875 29.578125 29.625 29.71875 29.046875 C 29.9375 28.015625 31.984375 25.734375 31.984375 25.734375 C 32.507812 24.945312 32.921875 24.09375 33.226562 23.203125 C 33.460938 22.398438 33.625 20.757812 33.679688 20.03125 C 33.734375 19.34375 33.757812 18.773438 33.757812 17.828125 C 33.757812 17.03125 33.757812 17.078125 33.71875 15.875 C 33.609375 13.3125 30.882812 13.539062 30.109375 14.703125 Z M 33.046875 17.492188 L 33.046875 17.8125 C 33.046875 18.742188 33.023438 19.296875 32.96875 19.960938 C 32.90625 20.992188 32.765625 22.007812 32.539062 23.007812 C 32.265625 23.804688 31.898438 24.570312 31.4375 25.28125 C 31.078125 25.6875 29.265625 27.757812 29.015625 28.90625 C 28.898438 29.367188 28.835938 29.84375 28.828125 30.328125 L 28.8125 30.773438 C 28.796875 31.148438 28.820312 31.515625 28.890625 31.890625 C 28.4375 31.929688 27.976562 31.929688 27.523438 31.890625 C 27.242188 31.828125 26.53125 30.992188 26.140625 30.273438 C 25.90625 29.8125 25.429688 29.507812 24.898438 29.492188 C 24.367188 29.5 23.875 29.765625 23.59375 30.195312 C 23.03125 31.117188 22.359375 31.835938 22.125 31.90625 C 21.1875 32.015625 19.414062 31.992188 17.703125 31.960938 L 17.03125 31.960938 C 17.0625 31.226562 16.960938 30.1875 16.273438 29.625 C 15.960938 29.382812 15.53125 28.984375 15.117188 28.601562 C 14.75 28.265625 14.382812 27.929688 14.164062 27.75 L 12.59375 26.085938 C 12.304688 25.6875 12.03125 25.265625 11.78125 24.84375 C 11.390625 24.1875 10.90625 23.390625 10.273438 22.507812 C 10 22.125 9.5625 21.609375 9.101562 21.0625 C 8.523438 20.429688 8 19.75 7.53125 19.039062 C 7.203125 18.445312 7.234375 18.273438 7.320312 17.6875 C 7.445312 16.890625 8.359375 16.265625 9.265625 16.34375 C 10.023438 16.414062 10.695312 16.914062 11.453125 17.5 C 11.84375 17.851562 12.210938 18.226562 12.539062 18.625 L 12.71875 18.84375 C 12.890625 19.039062 12.976562 19.164062 13.09375 19.328125 L 13.625 20.03125 C 13.835938 20.3125 14.195312 20.789062 14.757812 20.523438 C 15.320312 20.257812 15.164062 19.6875 15.101562 19.453125 L 15.070312 19.273438 C 14.929688 18.328125 14.71875 16.882812 14.414062 15.578125 C 14.203125 14.679688 14.125 14.421875 13.96875 13.867188 L 13.867188 13.539062 C 13.710938 12.992188 13.601562 12.5625 13.484375 12.070312 L 13.273438 11.226562 C 13.0625 10.375 12.890625 9.515625 12.765625 8.648438 C 12.617188 7.257812 12.742188 6.1875 13.101562 5.78125 C 13.398438 5.445312 14.242188 5.320312 14.703125 5.539062 C 15.375 5.859375 15.851562 6.921875 16.15625 7.585938 C 16.546875 8.429688 16.828125 9.453125 17.085938 11 C 17.21875 11.828125 17.414062 12.804688 17.59375 13.6875 C 17.773438 14.632812 17.984375 15.710938 17.992188 15.96875 C 18.007812 16.335938 18.3125 16.625 18.695312 16.632812 C 19 16.679688 19.390625 16.351562 19.414062 15.992188 C 19.4375 15.6875 19.414062 15.257812 19.398438 14.789062 C 19.351562 14.304688 19.351562 13.8125 19.398438 13.328125 C 19.484375 12.921875 19.765625 12.578125 20.15625 12.40625 C 20.609375 12.273438 21.085938 12.242188 21.554688 12.320312 C 21.945312 12.398438 22.289062 12.609375 22.539062 12.90625 C 22.851562 13.421875 23.046875 14.382812 23.15625 15.773438 C 23.164062 15.960938 23.203125 16.554688 23.828125 16.601562 C 24.1875 16.625 24.507812 16.398438 24.59375 16.0625 C 24.65625 15.71875 24.710938 15.367188 24.734375 15.015625 C 24.789062 14.46875 24.867188 13.65625 25.046875 13.367188 C 25.257812 13.109375 25.546875 12.914062 25.867188 12.8125 C 26.382812 12.71875 26.914062 12.710938 27.4375 12.796875 C 27.757812 12.921875 28.039062 13.125 28.265625 13.382812 C 28.484375 13.710938 28.726562 14.8125 28.875 16.117188 C 28.914062 16.460938 29.1875 16.734375 29.546875 16.773438 C 30.164062 16.8125 30.304688 16.257812 30.359375 16.039062 C 30.4375 15.695312 30.570312 15.367188 30.742188 15.0625 C 31.09375 14.632812 31.664062 14.445312 32.21875 14.578125 C 32.859375 14.742188 33.015625 15.375 33.039062 15.882812 C 33.046875 16.890625 33.046875 17 33.046875 17.492188 Z M 33.046875 17.492188 "/>
    <path style="stroke: none; fill-rule: nonzero;" d="M 27.710938 20.148438 C 27.320312 20.148438 27 20.460938 27 20.835938 L 27 27.164062 C 27 27.6875 27.59375 28.015625 28.070312 27.757812 C 28.289062 27.632812 28.421875 27.40625 28.421875 27.164062 L 28.421875 20.835938 C 28.421875 20.460938 28.109375 20.148438 27.710938 20.148438 Z M 23.851562 20.148438 C 23.453125 20.148438 23.132812 20.460938 23.140625 20.835938 L 23.164062 27.179688 C 23.164062 27.710938 23.765625 28.039062 24.234375 27.78125 C 24.460938 27.65625 24.59375 27.429688 24.59375 27.179688 L 24.5625 20.835938 C 24.570312 20.453125 24.242188 20.148438 23.851562 20.148438 Z M 20.078125 20.203125 C 19.6875 20.203125 19.367188 20.515625 19.367188 20.890625 L 19.414062 27.15625 C 19.414062 27.539062 19.734375 27.84375 20.125 27.84375 C 20.515625 27.835938 20.835938 27.53125 20.835938 27.148438 L 20.789062 20.882812 C 20.789062 20.507812 20.476562 20.203125 20.078125 20.203125 Z M 20.078125 20.203125 "/>
  </g>
</svg>