<svg id="svg" version="1.1" xmlns="http://www.w3.org/2000/svg" xmlns:xlink="http://www.w3.org/1999/xlink" width="400" height="400" viewBox="0, 0, 400,400"><g id="svgg"><path id="path0" d="M32.300 161.487 L 31.200 161.653 31.200 166.603 C 31.200 169.471,31.368 171.657,31.600 171.800 C 31.823 171.938,32.000 173.795,32.000 175.995 C 32.000 178.971,32.148 180.091,32.600 180.543 C 32.990 180.933,33.200 181.924,33.200 183.371 C 33.200 184.597,33.380 185.600,33.600 185.600 C 33.822 185.600,34.000 186.667,34.000 188.000 C 34.000 189.867,34.133 190.400,34.600 190.400 C 35.040 190.400,35.200 190.858,35.200 192.120 C 35.200 193.066,35.370 194.011,35.579 194.220 C 35.787 194.429,36.002 195.365,36.057 196.300 C 36.112 197.235,36.301 198.000,36.478 198.000 C 36.655 198.000,36.800 198.546,36.800 199.213 C 36.800 199.921,37.049 200.521,37.400 200.655 C 37.766 200.796,38.000 201.402,38.000 202.209 C 38.000 202.938,38.174 203.593,38.387 203.667 C 38.600 203.740,38.820 204.406,38.876 205.147 C 38.932 205.887,39.207 206.581,39.489 206.689 C 39.770 206.797,40.000 207.139,40.000 207.448 C 40.000 207.758,40.156 208.323,40.346 208.705 C 40.854 209.724,41.669 212.123,41.704 212.700 C 41.720 212.975,41.973 213.200,42.267 213.200 C 42.569 213.200,42.800 213.633,42.800 214.200 C 42.800 214.750,42.980 215.200,43.200 215.200 C 43.420 215.200,43.600 215.566,43.600 216.013 C 43.600 216.459,43.870 216.929,44.200 217.055 C 44.530 217.182,44.800 217.716,44.800 218.243 C 44.800 218.769,44.980 219.200,45.200 219.200 C 45.420 219.200,45.600 219.545,45.600 219.967 C 45.600 220.388,45.788 220.796,46.018 220.873 C 46.248 220.949,46.466 221.414,46.503 221.906 C 46.540 222.398,46.802 222.800,47.085 222.800 C 47.368 222.800,47.600 223.250,47.600 223.800 C 47.600 224.350,47.780 224.800,48.000 224.800 C 48.220 224.800,48.400 225.070,48.400 225.400 C 48.400 225.730,48.670 226.000,49.000 226.000 C 49.333 226.000,49.600 226.356,49.600 226.800 C 49.600 227.240,49.780 227.600,50.000 227.600 C 50.220 227.600,50.400 227.870,50.400 228.200 C 50.400 228.530,50.580 228.800,50.800 228.800 C 51.020 228.800,51.200 229.057,51.200 229.371 C 51.200 229.686,51.436 230.181,51.725 230.471 C 52.013 230.762,52.507 231.585,52.822 232.300 C 53.137 233.015,53.544 233.600,53.726 233.600 C 54.237 233.600,55.199 234.681,55.213 235.271 C 55.230 235.995,56.187 237.200,56.744 237.200 C 56.995 237.200,57.200 237.455,57.200 237.767 C 57.200 238.078,57.366 238.393,57.570 238.467 C 57.773 238.540,57.998 238.855,58.070 239.167 C 58.141 239.478,59.235 240.783,60.500 242.067 C 61.765 243.350,62.800 244.555,62.800 244.744 C 62.800 244.933,63.430 245.756,64.200 246.573 C 64.970 247.389,65.600 248.224,65.600 248.428 C 65.600 248.633,65.870 248.800,66.200 248.800 C 66.530 248.800,66.800 249.070,66.800 249.400 C 66.800 249.730,66.962 250.000,67.160 250.000 C 67.629 250.000,70.400 252.771,70.400 253.240 C 70.400 253.438,70.625 253.602,70.900 253.604 C 71.175 253.607,72.010 254.237,72.756 255.004 C 73.502 255.772,74.267 256.400,74.456 256.400 C 74.645 256.400,75.880 257.480,77.200 258.800 C 78.533 260.133,79.956 261.200,80.400 261.200 C 80.840 261.200,81.200 261.393,81.200 261.629 C 81.200 262.167,82.211 263.200,82.738 263.200 C 82.955 263.200,83.193 263.335,83.267 263.500 C 83.505 264.035,86.765 266.000,87.415 266.000 C 87.763 266.000,87.956 266.148,87.844 266.329 C 87.545 266.812,89.081 268.000,90.005 268.000 C 90.445 268.000,90.800 268.268,90.800 268.600 C 90.800 268.977,91.180 269.200,91.824 269.200 C 92.404 269.200,92.740 269.373,92.600 269.600 C 92.464 269.820,92.633 270.000,92.976 270.000 C 93.319 270.000,93.600 270.180,93.600 270.400 C 93.600 270.620,94.050 270.800,94.600 270.800 C 95.222 270.800,95.600 271.027,95.600 271.400 C 95.600 271.773,95.978 272.000,96.600 272.000 C 97.150 272.000,97.600 272.180,97.600 272.400 C 97.600 272.620,97.941 272.800,98.357 272.800 C 98.774 272.800,99.218 273.070,99.345 273.400 C 99.471 273.730,99.941 274.000,100.387 274.000 C 100.834 274.000,101.200 274.180,101.200 274.400 C 101.200 274.620,101.650 274.800,102.200 274.800 C 102.750 274.800,103.200 274.980,103.200 275.200 C 103.200 275.420,103.650 275.600,104.200 275.600 C 104.822 275.600,105.200 275.827,105.200 276.200 C 105.200 276.530,105.549 276.800,105.976 276.800 C 106.403 276.800,106.864 276.980,107.000 277.200 C 107.136 277.420,107.597 277.600,108.024 277.600 C 108.451 277.600,108.800 277.780,108.800 278.000 C 108.800 278.220,109.115 278.401,109.500 278.402 C 109.885 278.404,110.716 278.674,111.346 279.002 C 111.976 279.331,113.011 279.600,113.646 279.600 C 114.281 279.600,114.800 279.780,114.800 280.000 C 114.800 280.220,115.250 280.400,115.800 280.400 C 116.422 280.400,116.800 280.627,116.800 281.000 C 116.800 281.444,117.267 281.600,118.600 281.600 C 119.590 281.600,120.400 281.780,120.400 282.000 C 120.400 282.220,121.011 282.400,121.757 282.400 C 122.504 282.400,123.204 282.634,123.314 282.919 C 123.425 283.211,124.278 283.483,125.256 283.539 C 126.215 283.595,127.060 283.811,127.133 284.020 C 127.207 284.229,128.051 284.400,129.010 284.400 C 129.968 284.400,130.864 284.580,131.000 284.800 C 131.136 285.020,132.477 285.200,133.981 285.200 C 136.042 285.200,136.771 285.348,136.945 285.800 C 137.123 286.264,137.901 286.400,140.387 286.400 C 142.262 286.400,143.600 286.567,143.600 286.800 C 143.600 287.051,146.133 287.200,150.400 287.200 L 157.200 287.200 157.200 267.200 L 157.200 247.200 152.220 247.200 C 148.355 247.200,147.168 247.074,146.920 246.637 C 146.721 246.286,145.619 245.988,144.000 245.847 C 138.259 245.346,136.818 245.104,136.370 244.564 C 136.113 244.254,135.384 244.000,134.751 244.000 C 134.118 244.000,133.600 243.820,133.600 243.600 C 133.600 243.380,132.981 243.200,132.224 243.200 C 131.467 243.200,130.736 243.020,130.600 242.800 C 130.464 242.580,129.823 242.400,129.176 242.400 C 128.397 242.400,128.000 242.197,128.000 241.800 C 128.000 241.381,127.578 241.200,126.600 241.200 C 125.830 241.200,125.200 241.020,125.200 240.800 C 125.200 240.580,124.769 240.400,124.243 240.400 C 123.716 240.400,123.182 240.130,123.055 239.800 C 122.929 239.470,122.459 239.200,122.013 239.200 C 121.566 239.200,121.200 239.009,121.200 238.776 C 121.200 238.543,121.058 238.441,120.884 238.548 C 120.515 238.776,117.925 237.615,117.532 237.045 C 117.385 236.831,116.938 236.608,116.539 236.550 C 116.141 236.491,115.751 236.254,115.674 236.022 C 115.597 235.790,115.098 235.600,114.567 235.600 C 114.035 235.600,113.600 235.395,113.600 235.144 C 113.600 234.529,112.365 233.628,111.500 233.613 C 111.115 233.606,110.800 233.420,110.800 233.200 C 110.800 232.980,110.350 232.800,109.800 232.800 C 109.250 232.800,108.793 232.575,108.785 232.300 C 108.769 231.766,105.870 229.600,105.171 229.600 C 104.941 229.600,104.864 229.420,105.000 229.200 C 105.136 228.980,105.030 228.800,104.764 228.800 C 104.498 228.800,103.669 228.170,102.921 227.400 C 102.173 226.630,101.387 226.000,101.174 226.000 C 100.960 226.000,100.174 225.370,99.426 224.600 C 98.679 223.830,97.872 223.200,97.633 223.200 C 97.395 223.200,97.200 223.029,97.200 222.819 C 97.200 222.323,93.277 218.400,92.781 218.400 C 92.571 218.400,92.400 218.130,92.400 217.800 C 92.400 217.470,92.220 217.200,92.000 217.200 C 91.780 217.200,91.600 216.912,91.600 216.560 C 91.600 216.209,90.727 215.066,89.661 214.022 C 88.594 212.977,87.470 211.555,87.163 210.861 C 86.856 210.168,86.510 209.600,86.393 209.600 C 86.277 209.600,85.843 208.970,85.428 208.200 C 85.013 207.430,84.522 206.800,84.337 206.800 C 84.152 206.800,84.000 206.465,84.000 206.056 C 84.000 205.647,83.550 204.974,83.000 204.561 C 82.449 204.147,82.000 203.404,82.000 202.905 C 82.000 202.407,81.840 202.000,81.643 202.000 C 81.447 202.000,81.174 201.550,81.036 201.000 C 80.898 200.450,80.608 200.000,80.392 200.000 C 80.177 200.000,80.000 199.539,80.000 198.976 C 80.000 198.413,79.832 198.056,79.627 198.183 C 79.422 198.310,79.197 197.916,79.127 197.307 C 79.056 196.683,78.782 196.244,78.500 196.300 C 78.207 196.359,78.000 195.987,78.000 195.400 C 78.000 194.850,77.820 194.400,77.600 194.400 C 77.380 194.400,77.200 193.770,77.200 193.000 C 77.200 192.230,77.020 191.600,76.800 191.600 C 76.580 191.600,76.400 191.150,76.400 190.600 C 76.400 189.978,76.173 189.600,75.800 189.600 C 75.383 189.600,75.200 189.180,75.200 188.224 C 75.200 187.467,75.020 186.736,74.800 186.600 C 74.580 186.464,74.400 185.733,74.400 184.976 C 74.400 184.020,74.217 183.600,73.800 183.600 C 73.356 183.600,73.200 183.133,73.200 181.800 C 73.200 180.810,73.020 180.000,72.800 180.000 C 72.578 180.000,72.400 178.933,72.400 177.600 C 72.400 176.267,72.222 175.200,72.000 175.200 C 71.769 175.200,71.600 173.943,71.600 172.229 C 71.600 170.121,71.426 169.083,71.000 168.657 C 70.567 168.224,70.400 167.170,70.400 164.875 C 70.400 161.914,70.338 161.677,69.500 161.452 C 68.510 161.187,34.068 161.219,32.300 161.487 M254.700 161.500 C 260.035 161.563,268.765 161.563,274.100 161.500 C 279.435 161.437,275.070 161.385,264.400 161.385 C 253.730 161.385,249.365 161.437,254.700 161.500 " stroke="none" fill="#2cb37c" fill-rule="evenodd"></path><path id="path1" d="M153.200 33.600 C 153.200 33.849,150.929 34.000,147.187 34.000 C 142.212 34.000,141.135 34.103,140.945 34.600 C 140.769 35.058,140.017 35.200,137.757 35.200 C 136.052 35.200,134.800 35.369,134.800 35.600 C 134.800 35.822,133.733 36.000,132.400 36.000 C 131.067 36.000,130.000 36.178,130.000 36.400 C 130.000 36.620,129.184 36.800,128.187 36.800 C 126.945 36.800,126.302 36.989,126.145 37.400 C 125.988 37.807,125.350 38.000,124.157 38.000 C 123.191 38.000,122.400 38.180,122.400 38.400 C 122.400 38.620,121.770 38.800,121.000 38.800 C 120.022 38.800,119.600 38.981,119.600 39.400 C 119.600 39.833,119.156 40.000,118.000 40.000 C 117.120 40.000,116.400 40.180,116.400 40.400 C 116.400 40.620,115.770 40.800,115.000 40.800 C 114.230 40.800,113.600 40.980,113.600 41.200 C 113.600 41.420,113.163 41.600,112.629 41.600 C 112.094 41.600,111.387 41.870,111.057 42.200 C 110.727 42.530,110.084 42.800,109.629 42.800 C 109.173 42.800,108.800 42.980,108.800 43.200 C 108.800 43.420,108.254 43.600,107.587 43.600 C 106.879 43.600,106.279 43.849,106.145 44.200 C 106.018 44.530,105.484 44.800,104.957 44.800 C 104.431 44.800,104.000 44.980,104.000 45.200 C 104.000 45.420,103.640 45.600,103.200 45.600 C 102.760 45.600,102.400 45.780,102.400 46.000 C 102.400 46.220,102.034 46.400,101.587 46.400 C 101.141 46.400,100.671 46.670,100.545 47.000 C 100.418 47.330,99.884 47.600,99.357 47.600 C 98.831 47.600,98.400 47.780,98.400 48.000 C 98.400 48.220,98.034 48.400,97.587 48.400 C 97.141 48.400,96.671 48.670,96.545 49.000 C 96.418 49.330,96.008 49.600,95.633 49.600 C 95.258 49.600,94.564 49.960,94.092 50.400 C 93.620 50.840,92.950 51.200,92.604 51.200 C 92.258 51.200,91.871 51.470,91.745 51.800 C 91.618 52.130,91.174 52.400,90.757 52.400 C 90.341 52.400,90.000 52.580,90.000 52.800 C 90.000 53.020,89.730 53.200,89.400 53.200 C 89.070 53.200,88.800 53.470,88.800 53.800 C 88.800 54.130,88.474 54.400,88.075 54.400 C 87.677 54.400,86.964 54.760,86.492 55.200 C 86.020 55.640,85.454 56.000,85.235 56.000 C 85.016 56.000,84.386 56.450,83.836 57.000 C 83.286 57.550,82.648 58.000,82.418 58.000 C 82.188 58.000,82.000 58.270,82.000 58.600 C 82.000 58.933,81.644 59.200,81.200 59.200 C 80.760 59.200,80.400 59.380,80.400 59.600 C 80.400 59.820,80.208 60.000,79.973 60.000 C 79.738 60.000,78.952 60.630,78.226 61.400 C 77.500 62.170,76.728 62.800,76.511 62.800 C 76.294 62.800,74.998 63.880,73.633 65.200 C 72.267 66.520,70.981 67.600,70.775 67.600 C 70.569 67.600,70.400 67.788,70.400 68.018 C 70.400 68.561,68.561 70.400,68.018 70.400 C 67.788 70.400,67.600 70.593,67.600 70.829 C 67.600 71.382,66.582 72.400,66.029 72.400 C 65.793 72.400,65.600 72.572,65.600 72.782 C 65.600 72.992,64.520 74.275,63.200 75.632 C 61.880 76.990,60.800 78.308,60.800 78.562 C 60.800 78.816,60.440 79.283,60.000 79.600 C 59.560 79.917,59.200 80.407,59.200 80.688 C 59.200 80.970,58.995 81.200,58.744 81.200 C 58.129 81.200,57.228 82.435,57.213 83.300 C 57.206 83.685,57.007 84.000,56.771 84.000 C 56.218 84.000,55.200 85.018,55.200 85.571 C 55.200 85.807,55.020 86.000,54.800 86.000 C 54.580 86.000,54.400 86.279,54.400 86.619 C 54.400 86.960,53.950 87.655,53.400 88.165 C 52.850 88.675,52.400 89.476,52.400 89.946 C 52.400 90.416,52.207 90.800,51.971 90.800 C 51.328 90.800,50.400 91.856,50.400 92.589 C 50.400 92.944,49.950 93.720,49.400 94.313 C 48.850 94.907,48.400 95.619,48.400 95.896 C 48.400 96.173,48.220 96.400,48.000 96.400 C 47.780 96.400,47.600 96.831,47.600 97.357 C 47.600 97.884,47.330 98.418,47.000 98.545 C 46.670 98.671,46.400 99.141,46.400 99.587 C 46.400 100.034,46.220 100.400,46.000 100.400 C 45.780 100.400,45.600 100.760,45.600 101.200 C 45.600 101.640,45.420 102.000,45.200 102.000 C 44.980 102.000,44.800 102.450,44.800 103.000 C 44.800 103.622,44.573 104.000,44.200 104.000 C 43.827 104.000,43.600 104.378,43.600 105.000 C 43.600 105.550,43.420 106.000,43.200 106.000 C 42.980 106.000,42.800 106.431,42.800 106.957 C 42.800 107.484,42.530 108.018,42.200 108.145 C 41.870 108.271,41.600 108.741,41.600 109.187 C 41.600 109.634,41.420 110.000,41.200 110.000 C 40.980 110.000,40.800 110.630,40.800 111.400 C 40.800 112.170,40.620 112.800,40.400 112.800 C 40.180 112.800,40.000 113.250,40.000 113.800 C 40.000 114.422,39.773 114.800,39.400 114.800 C 38.981 114.800,38.800 115.222,38.800 116.200 C 38.800 116.970,38.620 117.600,38.400 117.600 C 38.180 117.600,38.000 118.211,38.000 118.957 C 38.000 119.795,37.770 120.403,37.400 120.545 C 37.053 120.678,36.800 121.276,36.800 121.964 C 36.800 122.618,36.620 123.264,36.400 123.400 C 36.180 123.536,36.000 124.447,36.000 125.424 C 36.000 126.401,35.820 127.200,35.600 127.200 C 35.380 127.200,35.200 127.991,35.200 128.957 C 35.200 130.150,35.007 130.788,34.600 130.945 C 34.189 131.102,34.000 131.745,34.000 132.987 C 34.000 133.984,33.820 134.800,33.600 134.800 C 33.372 134.800,33.200 135.984,33.200 137.551 C 33.200 139.508,33.027 140.446,32.600 140.800 C 32.141 141.181,32.000 142.225,32.000 145.249 C 32.000 147.616,31.840 149.200,31.600 149.200 C 31.351 149.200,31.200 151.500,31.200 155.300 L 31.200 161.400 50.800 161.400 L 70.400 161.400 70.400 157.143 C 70.400 153.728,70.519 152.840,71.000 152.655 C 71.459 152.479,71.600 151.724,71.600 149.436 C 71.600 147.792,71.780 146.336,72.000 146.200 C 72.220 146.064,72.400 144.973,72.400 143.776 C 72.400 142.579,72.580 141.600,72.800 141.600 C 73.020 141.600,73.200 140.700,73.200 139.600 C 73.200 138.089,73.347 137.600,73.800 137.600 C 74.219 137.600,74.400 137.178,74.400 136.200 C 74.400 135.430,74.580 134.800,74.800 134.800 C 75.020 134.800,75.200 134.247,75.200 133.571 C 75.200 132.896,75.470 132.073,75.800 131.743 C 76.130 131.413,76.400 130.616,76.400 129.971 C 76.400 129.327,76.580 128.800,76.800 128.800 C 77.020 128.800,77.200 128.451,77.200 128.024 C 77.200 127.597,77.380 127.136,77.600 127.000 C 77.820 126.864,78.000 126.423,78.000 126.019 C 78.000 125.616,78.270 125.182,78.600 125.055 C 78.930 124.929,79.200 124.470,79.200 124.036 C 79.200 123.602,79.380 123.136,79.600 123.000 C 79.820 122.864,80.000 122.403,80.000 121.976 C 80.000 121.549,80.177 121.200,80.392 121.200 C 80.608 121.200,80.898 120.750,81.036 120.200 C 81.174 119.650,81.447 119.200,81.643 119.200 C 81.840 119.200,82.000 118.840,82.000 118.400 C 82.000 117.960,82.180 117.600,82.400 117.600 C 82.620 117.600,82.800 117.150,82.800 116.600 C 82.800 115.978,83.027 115.600,83.400 115.600 C 83.730 115.600,84.000 115.330,84.000 115.000 C 84.000 114.670,84.180 114.400,84.400 114.400 C 84.620 114.400,84.800 114.121,84.800 113.781 C 84.800 113.440,85.250 112.745,85.800 112.235 C 86.350 111.725,86.800 111.014,86.800 110.654 C 86.800 110.294,86.980 110.000,87.200 110.000 C 87.420 110.000,87.600 109.730,87.600 109.400 C 87.600 109.070,87.870 108.800,88.200 108.800 C 88.530 108.800,88.800 108.665,88.800 108.500 C 88.801 108.335,89.251 107.677,89.800 107.038 C 90.350 106.399,90.800 105.732,90.800 105.556 C 90.800 105.109,102.349 93.600,102.797 93.600 C 102.999 93.600,103.614 93.150,104.164 92.600 C 104.714 92.050,105.352 91.600,105.582 91.600 C 105.812 91.600,106.000 91.432,106.000 91.227 C 106.000 91.022,106.341 90.746,106.759 90.613 C 107.176 90.481,108.179 89.749,108.987 88.986 C 109.796 88.224,110.714 87.600,111.028 87.600 C 111.343 87.600,111.600 87.420,111.600 87.200 C 111.600 86.980,111.934 86.800,112.342 86.800 C 112.749 86.800,113.569 86.350,114.162 85.800 C 114.756 85.250,115.502 84.800,115.821 84.800 C 116.139 84.800,116.400 84.620,116.400 84.400 C 116.400 84.180,116.850 84.000,117.400 84.000 C 118.022 84.000,118.400 83.773,118.400 83.400 C 118.400 83.027,118.778 82.800,119.400 82.800 C 119.950 82.800,120.400 82.620,120.400 82.400 C 120.400 82.180,120.749 82.000,121.176 82.000 C 121.603 82.000,122.064 81.820,122.200 81.600 C 122.336 81.380,122.777 81.200,123.181 81.200 C 123.584 81.200,124.018 80.930,124.145 80.600 C 124.278 80.253,124.876 80.000,125.564 80.000 C 126.218 80.000,126.864 79.820,127.000 79.600 C 127.136 79.380,127.674 79.200,128.195 79.200 C 128.716 79.200,129.413 78.930,129.743 78.600 C 130.073 78.270,130.896 78.000,131.571 78.000 C 132.247 78.000,132.800 77.820,132.800 77.600 C 132.800 77.380,133.430 77.200,134.200 77.200 C 134.970 77.200,135.600 77.020,135.600 76.800 C 135.600 76.580,136.416 76.400,137.413 76.400 C 138.655 76.400,139.298 76.211,139.455 75.800 C 139.629 75.347,140.361 75.200,142.443 75.200 C 144.014 75.200,145.200 75.028,145.200 74.800 C 145.200 74.559,146.871 74.400,149.413 74.400 C 152.788 74.400,153.671 74.281,153.855 73.800 C 154.012 73.392,154.651 73.200,155.850 73.200 L 157.614 73.200 157.593 53.200 L 157.572 33.200 155.386 33.200 C 154.184 33.200,153.200 33.380,153.200 33.600 " stroke="none" fill="#fba413" fill-rule="evenodd"></path><path id="path2" d="M157.567 33.366 C 157.475 33.458,157.448 42.458,157.507 53.366 L 157.615 73.200 159.565 73.200 C 160.929 73.200,161.584 73.380,161.745 73.800 C 161.929 74.281,162.812 74.400,166.187 74.400 C 168.729 74.400,170.400 74.559,170.400 74.800 C 170.400 75.028,171.586 75.200,173.157 75.200 C 175.239 75.200,175.971 75.347,176.145 75.800 C 176.302 76.211,176.945 76.400,178.187 76.400 C 179.184 76.400,180.000 76.580,180.000 76.800 C 180.000 77.020,180.630 77.200,181.400 77.200 C 182.170 77.200,182.800 77.380,182.800 77.600 C 182.800 77.820,183.411 78.000,184.157 78.000 C 184.995 78.000,185.603 78.230,185.745 78.600 C 185.879 78.951,186.479 79.200,187.187 79.200 C 187.854 79.200,188.400 79.380,188.400 79.600 C 188.400 79.820,189.011 80.000,189.757 80.000 C 190.595 80.000,191.203 80.230,191.345 80.600 C 191.471 80.930,191.941 81.200,192.387 81.200 C 192.834 81.200,193.200 81.380,193.200 81.600 C 193.200 81.820,193.650 82.000,194.200 82.000 C 194.750 82.000,195.200 82.180,195.200 82.400 C 195.200 82.620,195.650 82.800,196.200 82.800 C 196.822 82.800,197.200 83.027,197.200 83.400 C 197.200 83.773,197.578 84.000,198.200 84.000 C 198.750 84.000,199.200 84.180,199.200 84.400 C 199.200 84.620,199.479 84.800,199.819 84.800 C 200.160 84.800,200.855 85.250,201.365 85.800 C 201.875 86.350,202.676 86.800,203.146 86.800 C 203.616 86.800,204.000 86.980,204.000 87.200 C 204.000 87.420,204.279 87.600,204.619 87.600 C 204.960 87.600,205.635 88.021,206.119 88.535 C 206.604 89.050,207.540 89.815,208.200 90.235 C 209.746 91.220,210.758 92.026,211.546 92.900 C 211.894 93.285,212.396 93.600,212.662 93.600 C 213.225 93.600,222.000 102.270,222.000 102.827 C 222.000 103.032,222.193 103.200,222.429 103.200 C 222.895 103.200,224.000 104.185,224.000 104.600 C 224.000 104.741,224.225 105.108,224.500 105.415 C 225.586 106.626,226.000 107.177,226.000 107.412 C 226.000 107.818,227.112 108.800,227.571 108.800 C 227.807 108.800,228.000 109.070,228.000 109.400 C 228.000 109.730,228.180 110.000,228.400 110.000 C 228.620 110.000,228.800 110.294,228.800 110.654 C 228.800 111.014,229.250 111.725,229.800 112.235 C 230.350 112.745,230.800 113.440,230.800 113.781 C 230.800 114.121,230.980 114.400,231.200 114.400 C 231.420 114.400,231.600 114.670,231.600 115.000 C 231.600 115.330,231.870 115.600,232.200 115.600 C 232.573 115.600,232.800 115.978,232.800 116.600 C 232.800 117.150,232.980 117.600,233.200 117.600 C 233.420 117.600,233.600 117.960,233.600 118.400 C 233.600 118.840,233.760 119.200,233.957 119.200 C 234.153 119.200,234.426 119.650,234.564 120.200 C 234.702 120.750,234.992 121.200,235.208 121.200 C 235.423 121.200,235.600 121.650,235.600 122.200 C 235.600 122.750,235.780 123.200,236.000 123.200 C 236.220 123.200,236.400 123.566,236.400 124.013 C 236.400 124.459,236.670 124.929,237.000 125.055 C 237.330 125.182,237.600 125.716,237.600 126.243 C 237.600 126.769,237.780 127.200,238.000 127.200 C 238.220 127.200,238.400 127.560,238.400 128.000 C 238.400 128.440,238.580 128.800,238.800 128.800 C 239.020 128.800,239.200 129.436,239.200 130.213 C 239.200 131.099,239.423 131.711,239.800 131.855 C 240.170 131.997,240.400 132.605,240.400 133.443 C 240.400 134.189,240.580 134.800,240.800 134.800 C 241.020 134.800,241.200 135.430,241.200 136.200 C 241.200 137.178,241.381 137.600,241.800 137.600 C 242.253 137.600,242.400 138.089,242.400 139.600 C 242.400 140.700,242.580 141.600,242.800 141.600 C 243.020 141.600,243.200 142.579,243.200 143.776 C 243.200 144.973,243.380 146.064,243.600 146.200 C 243.820 146.336,244.000 147.877,244.000 149.624 C 244.000 152.180,244.117 152.800,244.600 152.800 C 245.095 152.800,245.200 153.533,245.200 157.000 L 245.200 161.200 264.167 161.200 C 274.599 161.200,283.419 161.309,283.767 161.443 C 284.328 161.658,284.400 160.971,284.400 155.443 C 284.400 151.548,284.250 149.200,284.000 149.200 C 283.760 149.200,283.600 147.610,283.600 145.229 C 283.600 142.232,283.453 141.110,283.000 140.657 C 282.588 140.246,282.400 139.232,282.400 137.429 C 282.400 135.943,282.226 134.800,282.000 134.800 C 281.780 134.800,281.600 133.984,281.600 132.987 C 281.600 131.745,281.411 131.102,281.000 130.945 C 280.593 130.788,280.400 130.150,280.400 128.957 C 280.400 127.991,280.220 127.200,280.000 127.200 C 279.780 127.200,279.600 126.300,279.600 125.200 C 279.600 124.100,279.420 123.200,279.200 123.200 C 278.980 123.200,278.800 122.654,278.800 121.987 C 278.800 121.279,278.551 120.679,278.200 120.545 C 277.830 120.403,277.600 119.795,277.600 118.957 C 277.600 118.211,277.420 117.600,277.200 117.600 C 276.980 117.600,276.800 116.970,276.800 116.200 C 276.800 115.222,276.619 114.800,276.200 114.800 C 275.827 114.800,275.600 114.422,275.600 113.800 C 275.600 113.250,275.420 112.800,275.200 112.800 C 274.980 112.800,274.800 112.170,274.800 111.400 C 274.800 110.630,274.620 110.000,274.400 110.000 C 274.180 110.000,274.000 109.550,274.000 109.000 C 274.000 108.378,273.773 108.000,273.400 108.000 C 273.027 108.000,272.800 107.622,272.800 107.000 C 272.800 106.450,272.620 106.000,272.400 106.000 C 272.180 106.000,272.000 105.550,272.000 105.000 C 272.000 104.378,271.773 104.000,271.400 104.000 C 271.027 104.000,270.800 103.622,270.800 103.000 C 270.800 102.450,270.620 102.000,270.400 102.000 C 270.180 102.000,270.000 101.640,270.000 101.200 C 270.000 100.760,269.820 100.400,269.600 100.400 C 269.380 100.400,269.200 99.950,269.200 99.400 C 269.200 98.778,268.973 98.400,268.600 98.400 C 268.227 98.400,268.000 98.022,268.000 97.400 C 268.000 96.850,267.820 96.400,267.600 96.400 C 267.380 96.400,267.200 96.065,267.200 95.656 C 267.200 95.247,266.750 94.574,266.200 94.161 C 265.650 93.748,265.200 93.080,265.200 92.676 C 265.200 91.871,264.303 90.800,263.629 90.800 C 263.393 90.800,263.200 90.416,263.200 89.946 C 263.200 89.476,262.750 88.675,262.200 88.165 C 261.650 87.655,261.200 86.960,261.200 86.619 C 261.200 86.279,261.020 86.000,260.800 86.000 C 260.580 86.000,260.400 85.807,260.400 85.571 C 260.400 85.018,259.382 84.000,258.829 84.000 C 258.593 84.000,258.400 83.627,258.400 83.171 C 258.400 82.286,257.534 81.200,256.829 81.200 C 256.593 81.200,256.400 80.970,256.400 80.688 C 256.400 80.407,256.040 79.917,255.600 79.600 C 255.160 79.283,254.800 78.805,254.800 78.537 C 254.800 78.270,253.720 76.933,252.400 75.567 C 251.080 74.202,250.000 72.930,250.000 72.742 C 250.000 72.554,249.807 72.400,249.571 72.400 C 249.018 72.400,248.000 71.382,248.000 70.829 C 248.000 70.593,247.796 70.400,247.547 70.400 C 247.068 70.400,245.201 68.411,245.200 67.900 C 245.200 67.735,245.020 67.600,244.800 67.600 C 244.580 67.600,243.320 66.520,242.000 65.200 C 240.680 63.880,239.411 62.800,239.181 62.800 C 238.951 62.800,237.941 61.990,236.936 61.000 C 235.932 60.010,234.855 59.200,234.543 59.200 C 234.230 59.200,233.871 58.930,233.745 58.600 C 233.618 58.270,233.345 58.000,233.139 58.000 C 232.933 58.000,232.314 57.550,231.764 57.000 C 231.214 56.450,230.542 56.000,230.270 56.000 C 229.999 56.000,229.517 55.640,229.200 55.200 C 228.883 54.760,228.213 54.400,227.712 54.400 C 227.210 54.400,226.800 54.195,226.800 53.944 C 226.800 53.343,225.572 52.429,224.743 52.413 C 224.381 52.406,223.982 52.130,223.855 51.800 C 223.729 51.470,223.342 51.200,222.996 51.200 C 222.650 51.200,221.980 50.840,221.508 50.400 C 221.036 49.960,220.323 49.600,219.925 49.600 C 219.526 49.600,219.200 49.330,219.200 49.000 C 219.200 48.627,218.822 48.400,218.200 48.400 C 217.650 48.400,217.200 48.220,217.200 48.000 C 217.200 47.780,216.750 47.600,216.200 47.600 C 215.578 47.600,215.200 47.373,215.200 47.000 C 215.200 46.627,214.822 46.400,214.200 46.400 C 213.650 46.400,213.200 46.220,213.200 46.000 C 213.200 45.780,212.840 45.600,212.400 45.600 C 211.960 45.600,211.600 45.420,211.600 45.200 C 211.600 44.980,211.169 44.800,210.643 44.800 C 210.116 44.800,209.582 44.530,209.455 44.200 C 209.321 43.849,208.721 43.600,208.013 43.600 C 207.346 43.600,206.800 43.420,206.800 43.200 C 206.800 42.980,206.369 42.800,205.843 42.800 C 205.316 42.800,204.782 42.530,204.655 42.200 C 204.521 41.849,203.921 41.600,203.213 41.600 C 202.546 41.600,202.000 41.420,202.000 41.200 C 202.000 40.980,201.370 40.800,200.600 40.800 C 199.830 40.800,199.200 40.620,199.200 40.400 C 199.200 40.180,198.480 40.000,197.600 40.000 C 196.444 40.000,196.000 39.833,196.000 39.400 C 196.000 38.981,195.578 38.800,194.600 38.800 C 193.830 38.800,193.200 38.620,193.200 38.400 C 193.200 38.180,192.409 38.000,191.443 38.000 C 190.250 38.000,189.612 37.807,189.455 37.400 C 189.298 36.989,188.655 36.800,187.413 36.800 C 186.416 36.800,185.600 36.620,185.600 36.400 C 185.600 36.178,184.533 36.000,183.200 36.000 C 181.867 36.000,180.800 35.822,180.800 35.600 C 180.800 35.369,179.533 35.200,177.800 35.200 C 175.400 35.200,174.800 35.080,174.800 34.600 C 174.800 34.092,173.844 34.000,168.600 34.000 C 164.733 34.000,162.400 33.849,162.400 33.600 C 162.400 33.224,157.926 33.007,157.567 33.366 " stroke="none" fill="#fc0c4b" fill-rule="evenodd"></path><path id="path3" d="M245.200 164.957 C 245.200 167.572,245.067 168.365,244.600 168.545 C 244.136 168.723,244.000 169.501,244.000 171.987 C 244.000 173.862,243.833 175.200,243.600 175.200 C 243.378 175.200,243.200 176.267,243.200 177.600 C 243.200 178.933,243.022 180.000,242.800 180.000 C 242.580 180.000,242.400 180.611,242.400 181.357 C 242.400 182.195,242.170 182.803,241.800 182.945 C 241.406 183.096,241.200 183.720,241.200 184.764 C 241.200 185.638,241.020 186.464,240.800 186.600 C 240.580 186.736,240.400 187.467,240.400 188.224 C 240.400 189.180,240.217 189.600,239.800 189.600 C 239.427 189.600,239.200 189.978,239.200 190.600 C 239.200 191.150,239.020 191.600,238.800 191.600 C 238.580 191.600,238.400 192.230,238.400 193.000 C 238.400 193.770,238.220 194.400,238.000 194.400 C 237.780 194.400,237.600 194.741,237.600 195.157 C 237.600 195.574,237.330 196.018,237.000 196.145 C 236.670 196.271,236.400 196.741,236.400 197.187 C 236.400 197.634,236.220 198.000,236.000 198.000 C 235.780 198.000,235.600 198.431,235.600 198.957 C 235.600 199.484,235.330 200.018,235.000 200.145 C 234.670 200.271,234.400 200.741,234.400 201.187 C 234.400 201.634,234.220 202.000,234.000 202.000 C 233.780 202.000,233.600 202.407,233.600 202.905 C 233.600 203.404,233.151 204.147,232.600 204.561 C 232.050 204.974,231.600 205.565,231.600 205.874 C 231.600 206.183,231.150 206.886,230.600 207.436 C 230.050 207.986,229.600 208.616,229.600 208.835 C 229.600 209.054,229.240 209.620,228.800 210.092 C 228.360 210.564,228.000 211.277,228.000 211.675 C 228.000 212.074,227.730 212.400,227.400 212.400 C 227.070 212.400,226.800 212.592,226.800 212.827 C 226.800 213.062,226.170 213.848,225.400 214.574 C 224.630 215.300,224.000 216.188,224.000 216.547 C 224.000 216.906,223.820 217.200,223.600 217.200 C 223.380 217.200,223.200 217.470,223.200 217.800 C 223.200 218.130,223.011 218.400,222.781 218.400 C 222.235 218.400,218.400 222.235,218.400 222.781 C 218.400 223.011,218.205 223.200,217.967 223.200 C 217.728 223.200,216.921 223.830,216.174 224.600 C 215.426 225.370,214.607 226.000,214.354 226.000 C 214.101 226.000,213.300 226.630,212.574 227.400 C 211.848 228.170,211.139 228.800,210.998 228.800 C 210.858 228.800,210.492 229.025,210.185 229.300 C 208.974 230.386,208.423 230.800,208.188 230.800 C 207.782 230.800,206.800 231.912,206.800 232.371 C 206.800 232.607,206.350 232.800,205.800 232.800 C 205.250 232.800,204.800 232.980,204.800 233.200 C 204.800 233.420,204.485 233.606,204.100 233.613 C 203.235 233.628,202.000 234.529,202.000 235.144 C 202.000 235.395,201.550 235.600,201.000 235.600 C 200.450 235.600,200.000 235.780,200.000 236.000 C 200.000 236.220,199.634 236.400,199.187 236.400 C 198.741 236.400,198.271 236.670,198.145 237.000 C 198.018 237.330,197.574 237.600,197.157 237.600 C 196.741 237.600,196.400 237.780,196.400 238.000 C 196.400 238.220,195.950 238.400,195.400 238.400 C 194.850 238.400,194.400 238.580,194.400 238.800 C 194.400 239.020,194.034 239.200,193.587 239.200 C 193.141 239.200,192.671 239.470,192.545 239.800 C 192.418 240.130,191.884 240.400,191.357 240.400 C 190.831 240.400,190.400 240.580,190.400 240.800 C 190.400 241.020,189.770 241.200,189.000 241.200 C 188.022 241.200,187.600 241.381,187.600 241.800 C 187.600 242.219,187.178 242.400,186.200 242.400 C 185.430 242.400,184.800 242.580,184.800 242.800 C 184.800 243.020,184.170 243.200,183.400 243.200 C 182.630 243.200,182.000 243.380,182.000 243.600 C 182.000 243.820,181.364 244.000,180.587 244.000 C 179.701 244.000,179.089 244.223,178.945 244.600 C 178.780 245.030,178.108 245.200,176.581 245.200 C 175.407 245.200,174.336 245.380,174.200 245.600 C 174.064 245.820,172.788 246.000,171.364 246.000 C 169.432 246.000,168.716 246.152,168.545 246.600 C 168.355 247.093,167.328 247.200,162.757 247.200 L 157.200 247.200 157.200 267.200 L 157.200 287.200 164.600 287.200 C 169.267 287.200,172.000 287.052,172.000 286.800 C 172.000 286.565,173.400 286.400,175.400 286.400 C 178.156 286.400,178.800 286.286,178.800 285.800 C 178.800 285.324,179.375 285.200,181.576 285.200 C 183.103 285.200,184.464 285.020,184.600 284.800 C 184.736 284.580,185.647 284.400,186.624 284.400 C 187.601 284.400,188.400 284.220,188.400 284.000 C 188.400 283.780,189.216 283.600,190.213 283.600 C 191.455 283.600,192.098 283.411,192.255 283.000 C 192.397 282.630,193.005 282.400,193.843 282.400 C 194.589 282.400,195.200 282.220,195.200 282.000 C 195.200 281.780,196.010 281.600,197.000 281.600 C 198.333 281.600,198.800 281.444,198.800 281.000 C 198.800 280.627,199.178 280.400,199.800 280.400 C 200.350 280.400,200.800 280.220,200.800 280.000 C 200.800 279.780,201.342 279.600,202.005 279.600 C 202.668 279.600,203.523 279.450,203.905 279.268 C 204.287 279.085,205.200 278.635,205.932 278.268 C 206.665 277.900,207.520 277.600,207.832 277.600 C 208.145 277.600,208.400 277.420,208.400 277.200 C 208.400 276.980,208.850 276.800,209.400 276.800 C 210.022 276.800,210.400 276.573,210.400 276.200 C 210.400 275.827,210.778 275.600,211.400 275.600 C 211.950 275.600,212.400 275.420,212.400 275.200 C 212.400 274.980,212.850 274.800,213.400 274.800 C 213.950 274.800,214.400 274.620,214.400 274.400 C 214.400 274.180,214.766 274.000,215.213 274.000 C 215.659 274.000,216.129 273.730,216.255 273.400 C 216.382 273.070,216.816 272.800,217.219 272.800 C 217.623 272.800,218.064 272.620,218.200 272.400 C 218.336 272.180,218.797 272.000,219.224 272.000 C 219.651 272.000,220.000 271.730,220.000 271.400 C 220.000 271.063,220.357 270.800,220.817 270.800 C 221.266 270.800,222.020 270.440,222.492 270.000 C 222.964 269.560,223.677 269.200,224.075 269.200 C 224.474 269.200,224.800 268.930,224.800 268.600 C 224.800 268.243,225.167 268.000,225.705 268.000 C 226.204 268.000,226.947 267.551,227.361 267.000 C 227.774 266.450,228.447 266.000,228.856 266.000 C 229.265 266.000,229.600 265.820,229.600 265.600 C 229.600 265.380,229.788 265.200,230.017 265.200 C 230.409 265.200,230.862 264.887,232.185 263.700 C 232.492 263.425,232.859 263.200,233.000 263.200 C 233.415 263.200,234.400 262.095,234.400 261.629 C 234.400 261.393,234.670 261.200,235.000 261.200 C 235.330 261.200,235.600 261.020,235.600 260.800 C 235.600 260.580,235.894 260.400,236.253 260.400 C 236.612 260.400,237.500 259.770,238.226 259.000 C 238.952 258.230,239.738 257.600,239.973 257.600 C 240.208 257.600,240.400 257.330,240.400 257.000 C 240.400 256.670,240.580 256.400,240.800 256.400 C 241.020 256.400,241.200 256.670,241.200 257.000 C 241.200 257.330,241.470 257.600,241.800 257.600 C 242.219 257.600,242.400 258.022,242.400 259.000 C 242.400 259.770,242.580 260.400,242.800 260.400 C 243.022 260.400,243.200 261.467,243.200 262.800 C 243.200 264.133,243.378 265.200,243.600 265.200 C 243.833 265.200,244.000 266.538,244.000 268.413 C 244.000 270.899,244.136 271.677,244.600 271.855 C 245.030 272.020,245.200 272.692,245.200 274.219 C 245.200 275.393,245.380 276.464,245.600 276.600 C 245.820 276.736,246.000 277.197,246.000 277.624 C 246.000 278.051,246.270 278.400,246.600 278.400 C 246.930 278.400,247.200 278.670,247.200 279.000 C 247.200 279.330,247.380 279.600,247.600 279.600 C 247.820 279.600,248.006 279.915,248.013 280.300 C 248.028 281.165,248.929 282.400,249.544 282.400 C 249.795 282.400,250.000 282.670,250.000 283.000 C 250.000 283.330,250.180 283.600,250.400 283.600 C 250.620 283.600,250.800 283.960,250.800 284.400 C 250.800 284.844,251.067 285.200,251.400 285.200 C 251.730 285.200,252.000 285.389,252.000 285.619 C 252.000 286.165,255.835 290.000,256.381 290.000 C 256.611 290.000,256.800 290.186,256.800 290.412 C 256.800 290.892,270.267 304.400,270.745 304.400 C 270.921 304.400,271.306 304.850,271.600 305.400 C 271.936 306.028,272.482 306.400,273.068 306.400 C 273.580 306.400,274.000 306.588,274.000 306.818 C 274.000 307.361,275.839 309.200,276.382 309.200 C 276.612 309.200,276.800 309.393,276.800 309.629 C 276.800 310.182,277.818 311.200,278.371 311.200 C 278.607 311.200,278.800 311.388,278.800 311.618 C 278.800 312.161,280.639 314.000,281.182 314.000 C 281.412 314.000,281.600 314.193,281.600 314.429 C 281.600 314.982,282.618 316.000,283.171 316.000 C 283.407 316.000,283.600 316.188,283.600 316.418 C 283.600 316.961,285.439 318.800,285.982 318.800 C 286.212 318.800,286.400 318.993,286.400 319.229 C 286.400 319.782,287.418 320.800,287.971 320.800 C 288.207 320.800,288.400 320.988,288.400 321.218 C 288.400 321.761,290.239 323.600,290.782 323.600 C 291.012 323.600,291.200 323.793,291.200 324.029 C 291.200 324.582,292.218 325.600,292.771 325.600 C 293.007 325.600,293.200 325.735,293.200 325.900 C 293.201 326.411,295.068 328.400,295.547 328.400 C 295.796 328.400,296.000 328.593,296.000 328.829 C 296.000 329.382,297.018 330.400,297.571 330.400 C 297.807 330.400,298.000 330.535,298.000 330.700 C 298.001 331.211,299.868 333.200,300.347 333.200 C 300.596 333.200,300.800 333.393,300.800 333.629 C 300.800 334.095,301.785 335.200,302.200 335.200 C 302.534 335.200,303.600 336.266,303.600 336.600 C 303.600 337.015,304.705 338.000,305.171 338.000 C 305.407 338.000,305.600 338.193,305.600 338.429 C 305.600 338.895,306.585 340.000,307.000 340.000 C 307.334 340.000,308.400 341.066,308.400 341.400 C 308.400 341.815,309.505 342.800,309.971 342.800 C 310.207 342.800,310.400 342.993,310.400 343.229 C 310.400 343.695,311.385 344.800,311.800 344.800 C 312.134 344.800,313.200 345.866,313.200 346.200 C 313.200 346.615,314.305 347.600,314.771 347.600 C 315.007 347.600,315.200 347.793,315.200 348.029 C 315.200 348.495,316.185 349.600,316.600 349.600 C 316.934 349.600,318.000 350.666,318.000 351.000 C 318.000 351.415,319.105 352.400,319.571 352.400 C 319.807 352.400,320.000 352.593,320.000 352.829 C 320.000 353.295,320.985 354.400,321.400 354.400 C 321.785 354.400,322.800 355.490,322.800 355.904 C 322.800 356.102,323.250 356.506,323.800 356.800 C 324.350 357.094,324.800 357.498,324.800 357.696 C 324.800 358.110,325.815 359.200,326.200 359.200 C 326.534 359.200,327.600 360.266,327.600 360.600 C 327.600 361.015,328.705 362.000,329.171 362.000 C 329.407 362.000,329.600 362.193,329.600 362.429 C 329.600 362.883,330.581 364.000,330.980 364.000 C 331.110 364.000,332.457 365.260,333.973 366.800 C 335.488 368.340,337.015 369.600,337.364 369.600 C 337.714 369.600,338.000 369.870,338.000 370.200 C 338.000 370.530,338.193 370.800,338.429 370.800 C 338.982 370.800,340.000 371.818,340.000 372.371 C 340.000 372.607,340.230 372.800,340.512 372.800 C 340.793 372.800,341.283 373.160,341.600 373.600 C 342.553 374.923,345.600 373.718,345.600 372.018 C 345.600 371.788,345.793 371.600,346.029 371.600 C 346.582 371.600,347.600 370.582,347.600 370.029 C 347.600 369.793,347.788 369.600,348.018 369.600 C 348.561 369.600,350.400 367.761,350.400 367.218 C 350.400 366.988,350.593 366.800,350.829 366.800 C 351.382 366.800,352.400 365.782,352.400 365.229 C 352.400 364.993,352.588 364.800,352.818 364.800 C 353.361 364.800,355.200 362.961,355.200 362.418 C 355.200 362.188,355.393 362.000,355.629 362.000 C 355.864 362.000,356.314 361.743,356.629 361.429 C 356.943 361.114,357.200 360.664,357.200 360.429 C 357.200 360.193,357.388 360.000,357.618 360.000 C 358.161 360.000,360.000 358.161,360.000 357.618 C 360.000 357.388,360.193 357.200,360.429 357.200 C 360.664 357.200,361.114 356.943,361.429 356.629 C 361.743 356.314,362.000 355.864,362.000 355.629 C 362.000 355.393,362.188 355.200,362.418 355.200 C 362.961 355.200,364.800 353.361,364.800 352.818 C 364.800 352.588,364.993 352.400,365.229 352.400 C 365.464 352.400,365.914 352.143,366.229 351.829 C 366.543 351.514,366.800 351.064,366.800 350.829 C 366.800 350.593,366.988 350.400,367.218 350.400 C 367.761 350.400,369.600 348.561,369.600 348.018 C 369.600 347.788,369.793 347.600,370.029 347.600 C 371.005 347.600,371.600 346.389,371.600 344.400 C 371.600 342.411,371.005 341.200,370.029 341.200 C 369.793 341.200,369.600 341.011,369.600 340.781 C 369.600 340.550,368.709 339.470,367.619 338.381 C 366.530 337.291,365.450 336.400,365.219 336.400 C 364.989 336.400,364.800 336.211,364.800 335.981 C 364.800 335.750,363.909 334.670,362.819 333.581 C 361.730 332.491,360.650 331.600,360.419 331.600 C 360.189 331.600,360.000 331.405,360.000 331.167 C 360.000 330.928,359.370 330.121,358.600 329.374 C 357.830 328.626,357.200 327.827,357.200 327.599 C 357.200 327.370,353.780 323.766,349.600 319.590 C 345.420 315.413,342.000 311.817,342.000 311.598 C 342.000 311.379,341.829 311.200,341.619 311.200 C 341.123 311.200,337.200 307.277,337.200 306.781 C 337.200 306.571,337.029 306.400,336.819 306.400 C 336.323 306.400,332.400 302.477,332.400 301.981 C 332.400 301.771,332.196 301.600,331.947 301.600 C 331.468 301.600,329.601 299.611,329.600 299.100 C 329.600 298.935,329.407 298.800,329.171 298.800 C 328.618 298.800,327.600 297.782,327.600 297.229 C 327.600 296.993,327.396 296.800,327.147 296.800 C 326.668 296.800,324.801 294.811,324.800 294.300 C 324.800 294.135,324.607 294.000,324.371 294.000 C 323.818 294.000,322.800 292.982,322.800 292.429 C 322.800 292.193,322.596 292.000,322.347 292.000 C 321.868 292.000,320.001 290.011,320.000 289.500 C 320.000 289.335,319.807 289.200,319.571 289.200 C 319.018 289.200,318.000 288.182,318.000 287.629 C 318.000 287.393,317.796 287.200,317.547 287.200 C 317.068 287.200,315.201 285.211,315.200 284.700 C 315.200 284.535,315.007 284.400,314.771 284.400 C 314.218 284.400,313.200 283.382,313.200 282.829 C 313.200 282.593,313.065 282.400,312.900 282.400 C 312.389 282.399,310.400 280.532,310.400 280.053 C 310.400 279.804,310.207 279.600,309.971 279.600 C 309.450 279.600,308.400 278.595,308.400 278.096 C 308.400 277.898,307.970 277.505,307.444 277.224 C 306.918 276.942,306.258 276.282,305.976 275.756 C 305.695 275.230,305.302 274.800,305.104 274.800 C 304.690 274.800,303.600 273.785,303.600 273.400 C 303.600 273.015,302.510 272.000,302.096 272.000 C 301.898 272.000,301.487 271.505,301.184 270.900 C 300.881 270.295,299.771 268.929,298.717 267.864 C 297.663 266.800,296.800 265.842,296.800 265.736 C 296.800 265.372,295.657 264.400,295.229 264.400 C 294.993 264.400,294.800 264.212,294.800 263.982 C 294.800 263.439,292.961 261.600,292.418 261.600 C 292.188 261.600,292.000 261.407,292.000 261.171 C 292.000 260.618,290.982 259.600,290.429 259.600 C 290.193 259.600,290.000 259.412,290.000 259.182 C 290.000 258.639,288.161 256.800,287.618 256.800 C 287.388 256.800,287.200 256.607,287.200 256.371 C 287.200 255.838,286.190 254.800,285.671 254.800 C 285.459 254.800,285.182 254.530,285.055 254.200 C 284.929 253.870,284.549 253.600,284.213 253.600 C 283.876 253.600,283.600 253.420,283.600 253.200 C 283.600 252.980,283.407 252.800,283.171 252.800 C 282.618 252.800,281.600 251.782,281.600 251.229 C 281.600 250.993,281.330 250.800,281.000 250.800 C 280.670 250.800,280.400 250.620,280.400 250.400 C 280.400 250.180,280.121 250.000,279.781 250.000 C 279.440 250.000,278.745 249.550,278.235 249.000 C 277.725 248.450,276.924 248.000,276.454 248.000 C 275.984 248.000,275.600 247.820,275.600 247.600 C 275.600 247.380,275.259 247.200,274.843 247.200 C 274.426 247.200,273.982 246.930,273.855 246.600 C 273.689 246.167,273.010 246.000,271.413 246.000 C 270.196 246.000,269.200 245.820,269.200 245.600 C 269.200 245.360,267.600 245.200,265.200 245.200 C 261.911 245.200,261.200 245.093,261.200 244.600 C 261.200 244.156,260.733 244.000,259.400 244.000 C 258.410 244.000,257.600 243.820,257.600 243.600 C 257.600 243.380,257.232 243.200,256.783 243.200 C 255.027 243.200,254.822 242.312,256.258 240.917 C 256.996 240.200,257.600 239.341,257.600 239.007 C 257.600 238.673,257.780 238.400,258.000 238.400 C 258.220 238.400,258.400 238.130,258.400 237.800 C 258.400 237.470,258.593 237.200,258.829 237.200 C 259.476 237.200,260.400 236.142,260.400 235.400 C 260.400 234.658,261.324 233.600,261.971 233.600 C 262.207 233.600,262.400 233.193,262.400 232.695 C 262.400 232.196,262.849 231.453,263.400 231.039 C 263.950 230.626,264.400 229.953,264.400 229.544 C 264.400 229.135,264.580 228.800,264.800 228.800 C 265.020 228.800,265.200 228.530,265.200 228.200 C 265.200 227.870,265.380 227.600,265.600 227.600 C 265.820 227.600,266.000 227.240,266.000 226.800 C 266.000 226.356,266.267 226.000,266.600 226.000 C 266.930 226.000,267.200 225.730,267.200 225.400 C 267.200 225.070,267.380 224.800,267.600 224.800 C 267.820 224.800,268.000 224.350,268.000 223.800 C 268.000 223.250,268.135 222.799,268.300 222.797 C 268.702 222.794,270.000 220.481,270.000 219.768 C 270.000 219.455,270.180 219.200,270.400 219.200 C 270.620 219.200,270.800 218.750,270.800 218.200 C 270.800 217.578,271.027 217.200,271.400 217.200 C 271.773 217.200,272.000 216.822,272.000 216.200 C 272.000 215.650,272.180 215.200,272.400 215.200 C 272.620 215.200,272.800 214.750,272.800 214.200 C 272.800 213.650,272.967 213.200,273.171 213.200 C 273.691 213.200,274.800 210.861,274.800 209.762 C 274.800 209.259,274.980 208.736,275.200 208.600 C 275.420 208.464,275.600 208.023,275.600 207.619 C 275.600 207.216,275.870 206.782,276.200 206.655 C 276.577 206.511,276.800 205.899,276.800 205.013 C 276.800 204.236,276.980 203.600,277.200 203.600 C 277.420 203.600,277.600 202.989,277.600 202.243 C 277.600 201.405,277.830 200.797,278.200 200.655 C 278.551 200.521,278.800 199.921,278.800 199.213 C 278.800 198.546,278.980 198.000,279.200 198.000 C 279.420 198.000,279.600 197.201,279.600 196.224 C 279.600 195.247,279.780 194.336,280.000 194.200 C 280.220 194.064,280.400 193.153,280.400 192.176 C 280.400 190.864,280.557 190.400,281.000 190.400 C 281.467 190.400,281.600 189.867,281.600 188.000 C 281.600 186.667,281.778 185.600,282.000 185.600 C 282.220 185.600,282.400 184.597,282.400 183.371 C 282.400 181.924,282.610 180.933,283.000 180.543 C 283.453 180.090,283.600 178.968,283.600 175.971 C 283.600 173.590,283.760 172.000,284.000 172.000 C 284.246 172.000,284.400 170.000,284.400 166.800 L 284.400 161.600 264.800 161.600 L 245.200 161.600 245.200 164.957 " stroke="none" fill="#1484fc" fill-rule="evenodd"></path></g></svg>